<?xml version="1.0" encoding="utf-8" standalone="no"?>
<!DOCTYPE svg PUBLIC "-//W3C//DTD SVG 1.1//EN"
  "http://www.w3.org/Graphics/SVG/1.1/DTD/svg11.dtd">
<!-- Created with matplotlib (http://matplotlib.org/) -->
<svg height="396pt" version="1.1" viewBox="0 0 576 396" width="576pt" xmlns="http://www.w3.org/2000/svg" xmlns:xlink="http://www.w3.org/1999/xlink">
 <defs>
  <style type="text/css">
*{stroke-linecap:butt;stroke-linejoin:round;}
  </style>
 </defs>
 <g id="figure_1">
  <g id="patch_1">
   <path d="M 0 396 
L 576 396 
L 576 0 
L 0 0 
z
" style="fill:#ffffff;"/>
  </g>
  <g id="axes_1">
   <g id="patch_2">
    <path d="M 122.3765 314.965 
L 472.006 314.965 
L 472.006 42.70125 
L 122.3765 42.70125 
z
" style="fill:#ffffff;"/>
   </g>
   <g id="matplotlib.axis_1">
    <g id="xtick_1">
     <g id="line2d_1">
      <defs>
       <path d="M 0 0 
L 0 6 
" id="m87fd0b0bfe" style="stroke:#262626;"/>
      </defs>
      <g>
       <use style="fill:#262626;stroke:#262626;" x="163.065168" xlink:href="#m87fd0b0bfe" y="314.965"/>
      </g>
     </g>
     <g id="text_1">
      <!-- 1 -->
      <defs>
       <path d="M 39.40625 0 
L 11.796875 0 
L 11.796875 1.5 
Q 17.296875 1.796875 19.296875 3.546875 
Q 21.296875 5.296875 21.296875 9.5 
L 21.296875 54.40625 
Q 21.296875 59.296875 18.296875 59.296875 
Q 16.90625 59.296875 13.796875 58.09375 
L 11.09375 57.09375 
L 11.09375 58.5 
L 29 67.59375 
L 29.90625 67.296875 
L 29.90625 7.59375 
Q 29.90625 4.296875 31.90625 2.890625 
Q 33.90625 1.5 39.40625 1.5 
z
" id="STIXGeneral-Regular-31"/>
      </defs>
      <g style="fill:#262626;" transform="translate(158.065168 341.624375)scale(0.2 -0.2)">
       <use xlink:href="#STIXGeneral-Regular-31"/>
      </g>
     </g>
    </g>
    <g id="xtick_2">
     <g id="line2d_2">
      <g>
       <use style="fill:#262626;stroke:#262626;" x="275.776161" xlink:href="#m87fd0b0bfe" y="314.965"/>
      </g>
     </g>
     <g id="text_2">
      <!-- 2 -->
      <defs>
       <path d="M 47.40625 13.703125 
L 42 0 
L 2.90625 0 
L 2.90625 1.203125 
L 20.703125 20.09375 
Q 27.703125 27.40625 30.703125 33.5 
Q 33.703125 39.59375 33.703125 46.09375 
Q 33.703125 52.796875 30 56.5 
Q 26.296875 60.203125 19.796875 60.203125 
Q 14.40625 60.203125 11.25 57.390625 
Q 8.09375 54.59375 5.09375 47.203125 
L 3 47.703125 
Q 4.703125 57 9.84375 62.296875 
Q 15 67.59375 23.796875 67.59375 
Q 32.09375 67.59375 37.1875 62.59375 
Q 42.296875 57.59375 42.296875 50 
Q 42.296875 38.703125 29.5 25.203125 
L 13 7.59375 
L 36.40625 7.59375 
Q 39.703125 7.59375 41.640625 8.890625 
Q 43.59375 10.203125 46 14.296875 
z
" id="STIXGeneral-Regular-32"/>
      </defs>
      <g style="fill:#262626;" transform="translate(270.776161 341.624375)scale(0.2 -0.2)">
       <use xlink:href="#STIXGeneral-Regular-32"/>
      </g>
     </g>
    </g>
    <g id="xtick_3">
     <g id="line2d_3">
      <g>
       <use style="fill:#262626;stroke:#262626;" x="388.487154" xlink:href="#m87fd0b0bfe" y="314.965"/>
      </g>
     </g>
     <g id="text_3">
      <!-- 3 -->
      <defs>
       <path d="M 6.09375 51 
L 4.5 51.40625 
Q 6.796875 58.90625 11.6875 63.25 
Q 16.59375 67.59375 24.09375 67.59375 
Q 31.09375 67.59375 35.390625 63.796875 
Q 39.703125 60 39.703125 53.90625 
Q 39.703125 45.703125 30.40625 40.09375 
Q 35.90625 37.703125 38.703125 34.796875 
Q 43.09375 29.90625 43.09375 21.90625 
Q 43.09375 13.90625 38.5 7.90625 
Q 35.09375 3.296875 28.75 0.9375 
Q 22.40625 -1.40625 15.296875 -1.40625 
Q 4.09375 -1.40625 4.09375 4.296875 
Q 4.09375 5.90625 5.296875 6.90625 
Q 6.5 7.90625 8.203125 7.90625 
Q 10.703125 7.90625 14.296875 5.296875 
Q 18.703125 2.203125 22.90625 2.203125 
Q 28.40625 2.203125 32.15625 6.640625 
Q 35.90625 11.09375 35.90625 17.5 
Q 35.90625 29 25.5 32 
Q 22.40625 33 15.296875 33 
L 15.296875 34.40625 
Q 20.90625 36.296875 23.703125 38 
Q 31.796875 42.59375 31.796875 51.40625 
Q 31.796875 56.40625 28.9375 59 
Q 26.09375 61.59375 21 61.59375 
Q 12 61.59375 6.09375 51 
" id="STIXGeneral-Regular-33"/>
      </defs>
      <g style="fill:#262626;" transform="translate(383.487154 341.624375)scale(0.2 -0.2)">
       <use xlink:href="#STIXGeneral-Regular-33"/>
      </g>
     </g>
    </g>
    <g id="text_4">
     <!-- Wavelength (μm) -->
     <defs>
      <path d="M 93.203125 66.203125 
L 93.203125 64.296875 
Q 89.203125 63.5 87.75 62.34375 
Q 86.296875 61.203125 84.90625 57.296875 
Q 73.5 26.703125 64.5 -1.09375 
L 63 -1.09375 
Q 56.90625 15.796875 47 41.203125 
L 31.59375 -1.09375 
L 30.09375 -1.09375 
Q 26.703125 9 19.953125 27.390625 
Q 13.203125 45.796875 10.90625 52.296875 
Q 8.40625 59.5 6.34375 61.84375 
Q 4.296875 64.203125 0.5 64.296875 
L 0.5 66.203125 
L 24.90625 66.203125 
L 24.90625 64.296875 
Q 21.203125 64.203125 19.84375 63.5 
Q 18.5 62.796875 18.5 61.203125 
Q 18.5 59.5 19.59375 56.5 
L 34 18.90625 
L 44.40625 47.203125 
L 41.59375 54.703125 
Q 39.203125 61.203125 37.5 62.703125 
Q 35.796875 64.203125 31.40625 64.296875 
L 31.40625 66.203125 
L 57.90625 66.203125 
L 57.90625 64.296875 
Q 50.203125 64.09375 50.203125 60.796875 
Q 50.203125 59.5 51.90625 55 
L 66.203125 18.59375 
L 78.796875 52.5 
Q 80.5 57.296875 80.5 60.203125 
Q 80.5 64.203125 73.5 64.296875 
L 73.5 66.203125 
z
" id="STIXGeneral-Regular-57"/>
      <path d="M 44.203125 6.59375 
L 44.203125 3.796875 
Q 40.40625 -1 35.203125 -1 
Q 29.5 -1 28.796875 6.296875 
L 28.703125 6.296875 
Q 22.296875 -1 14.203125 -1 
Q 9.5 -1 6.59375 1.75 
Q 3.703125 4.5 3.703125 9.40625 
Q 3.703125 16.40625 10.703125 21.09375 
Q 15.5 24.296875 28.703125 29.203125 
L 28.703125 34.59375 
Q 28.703125 39.09375 26.546875 41.34375 
Q 24.40625 43.59375 20.90625 43.59375 
Q 17.90625 43.59375 15.90625 42.140625 
Q 13.90625 40.703125 13.90625 38.703125 
Q 13.90625 37.796875 14.203125 36.6875 
Q 14.5 35.59375 14.5 34.5 
Q 14.5 33 13.140625 31.703125 
Q 11.796875 30.40625 9.90625 30.40625 
Q 8.203125 30.40625 6.890625 31.703125 
Q 5.59375 33 5.59375 35 
Q 5.59375 39.796875 10.703125 43 
Q 15.40625 46 22.203125 46 
Q 30.296875 46 34 41.5 
Q 35.796875 39.40625 36.296875 37.25 
Q 36.796875 35.09375 36.796875 30.40625 
L 36.796875 11.296875 
Q 36.796875 4.703125 39.90625 4.703125 
Q 41.90625 4.703125 44.203125 6.59375 
M 28.703125 12.703125 
L 28.703125 26.796875 
Q 19.5 23.59375 15.90625 20.203125 
Q 12.5 17.09375 12.5 12.5 
Q 12.5 8.703125 14.390625 6.75 
Q 16.296875 4.796875 19.40625 4.796875 
Q 22.703125 4.796875 25.203125 6.40625 
Q 27.296875 7.90625 28 9.203125 
Q 28.703125 10.5 28.703125 12.703125 
" id="STIXGeneral-Regular-61"/>
      <path d="M 47.703125 45 
L 47.703125 43.5 
Q 45.40625 43.296875 44.296875 42 
Q 43.203125 40.703125 41.203125 35.703125 
L 28.40625 3.59375 
Q 26.40625 -1.40625 25.59375 -1.40625 
Q 24.796875 -1.40625 23.796875 1.203125 
Q 23.59375 1.5 23.390625 2.203125 
Q 23.203125 2.90625 23 3.296875 
L 11 32 
Q 7.796875 39.59375 6.296875 41.4375 
Q 4.796875 43.296875 1.90625 43.5 
L 1.90625 45 
L 21.5 45 
L 21.5 43.5 
Q 18.90625 43.296875 17.90625 42.6875 
Q 16.90625 42.09375 16.90625 40.796875 
Q 16.90625 39.203125 17.796875 37 
L 28 11.40625 
L 37.90625 37.296875 
Q 38.5 38.796875 38.5 40.296875 
Q 38.5 43.09375 33.796875 43.5 
L 33.796875 45 
z
" id="STIXGeneral-Regular-76"/>
      <path d="M 40.796875 16.40625 
L 42.40625 15.703125 
Q 36.40625 -1 21.5 -1 
Q 12.703125 -1 7.59375 5.140625 
Q 2.5 11.296875 2.5 21.703125 
Q 2.5 32.40625 8.203125 39.203125 
Q 13.90625 46 23.203125 46 
Q 32.203125 46 37.09375 39.09375 
Q 40 35.09375 40.5 27.703125 
L 9.703125 27.703125 
Q 10.09375 21.40625 10.9375 18.09375 
Q 11.796875 14.796875 14.296875 11.40625 
Q 18.5 5.90625 25.40625 5.90625 
Q 30.296875 5.90625 33.640625 8.296875 
Q 37 10.703125 40.796875 16.40625 
M 9.90625 30.90625 
L 30.296875 30.90625 
Q 29.40625 37.203125 27.34375 39.796875 
Q 25.296875 42.40625 20.5 42.40625 
Q 16.296875 42.40625 13.5 39.453125 
Q 10.703125 36.5 9.90625 30.90625 
" id="STIXGeneral-Regular-65"/>
      <path d="M 25.703125 0 
L 2.09375 0 
L 2.09375 1.5 
Q 6.796875 1.90625 8.296875 3.453125 
Q 9.796875 5 9.796875 9.203125 
L 9.796875 56.09375 
Q 9.796875 59.703125 8.890625 61.09375 
Q 8 62.5 5.59375 62.5 
Q 3.5 62.5 1.90625 62.296875 
L 1.90625 63.90625 
Q 11.40625 66.203125 17.703125 68.296875 
L 18.203125 67.90625 
L 18.203125 8.703125 
Q 18.203125 4.5 19.59375 3.140625 
Q 21 1.796875 25.703125 1.5 
z
" id="STIXGeneral-Regular-6c"/>
      <path d="M 48.5 0 
L 27.703125 0 
L 27.796875 1.5 
Q 31.5 1.796875 32.75 3.640625 
Q 34 5.5 34 10.5 
L 34 30.40625 
Q 34 40.5 26.703125 40.5 
Q 24.203125 40.5 22 39.296875 
Q 19.796875 38.09375 16.40625 34.796875 
L 16.40625 7.203125 
Q 16.40625 4.203125 17.75 3 
Q 19.09375 1.796875 22.90625 1.5 
L 22.90625 0 
L 1.796875 0 
L 1.796875 1.5 
Q 5.59375 1.796875 6.796875 3.34375 
Q 8 4.90625 8 9.40625 
L 8 33.703125 
Q 8 37.40625 7.296875 38.796875 
Q 6.59375 40.203125 4.5 40.203125 
Q 2.5 40.203125 1.59375 39.796875 
L 1.59375 41.5 
Q 8.59375 43.5 15.296875 46 
L 16.09375 45.703125 
L 16.09375 37.90625 
L 16.203125 37.90625 
Q 23.296875 46 30.59375 46 
Q 36.296875 46 39.34375 42 
Q 42.40625 38 42.40625 30.59375 
L 42.40625 8.5 
Q 42.40625 4.5 43.59375 3.203125 
Q 44.796875 1.90625 48.5 1.5 
z
" id="STIXGeneral-Regular-6e"/>
      <path d="M 47 38.796875 
L 38.703125 38.796875 
Q 40.59375 34.5 40.59375 30.40625 
Q 40.59375 22.703125 35.390625 18.796875 
Q 30.203125 14.90625 25 14.90625 
Q 23.90625 14.90625 21.203125 15.203125 
L 19.296875 15.40625 
Q 17.296875 14.796875 15.296875 12.6875 
Q 13.296875 10.59375 13.296875 9.09375 
Q 13.296875 6.796875 21.09375 6.40625 
L 34 5.796875 
Q 39.5 5.59375 42.796875 2.6875 
Q 46.09375 -0.203125 46.09375 -4.90625 
Q 46.09375 -10.703125 40.09375 -15.40625 
Q 31.796875 -21.796875 20.09375 -21.796875 
Q 12.90625 -21.796875 7.84375 -18.9375 
Q 2.796875 -16.09375 2.796875 -12.09375 
Q 2.796875 -9.296875 5 -6.546875 
Q 7.203125 -3.796875 12.59375 0.09375 
Q 9.40625 1.59375 8.34375 2.6875 
Q 7.296875 3.796875 7.296875 5.40625 
Q 7.296875 8.296875 11.90625 12.296875 
Q 14.203125 14.296875 16.203125 16.296875 
Q 11.203125 18.796875 9.046875 21.890625 
Q 6.90625 25 6.90625 29.703125 
Q 6.90625 36.5 11.75 41.25 
Q 16.59375 46 23.59375 46 
Q 27.59375 46 31.59375 44.5 
L 33.796875 43.703125 
Q 36.703125 42.703125 39.296875 42.703125 
L 47 42.703125 
z
M 15.203125 33.796875 
L 15.203125 33.5 
Q 15.203125 26.296875 18.046875 21.84375 
Q 20.90625 17.40625 25.5 17.40625 
Q 28.90625 17.40625 30.90625 19.84375 
Q 32.90625 22.296875 32.90625 26.40625 
Q 32.90625 33 29.90625 38.5 
Q 27.40625 43.203125 22.59375 43.203125 
Q 19.09375 43.203125 17.140625 40.703125 
Q 15.203125 38.203125 15.203125 33.796875 
M 43.296875 -6.40625 
Q 43.296875 -3.59375 40.546875 -2.546875 
Q 37.796875 -1.5 30.90625 -1.5 
Q 21 -1.5 14.703125 -0.203125 
Q 11.703125 -3.796875 10.75 -5.4375 
Q 9.796875 -7.09375 9.796875 -8.796875 
Q 9.796875 -12.09375 13.75 -14.09375 
Q 17.703125 -16.09375 24.296875 -16.09375 
Q 32.796875 -16.09375 38.046875 -13.4375 
Q 43.296875 -10.796875 43.296875 -6.40625 
" id="STIXGeneral-Regular-67"/>
      <path d="M 26.59375 7.703125 
L 27.90625 6.59375 
Q 23.09375 -1 15.796875 -1 
Q 7 -1 7 11.703125 
L 7 41.796875 
L 1.703125 41.796875 
Q 1.296875 42.09375 1.296875 42.5 
Q 1.296875 43.296875 3 44.40625 
Q 6.796875 46.59375 12.703125 55.09375 
Q 12.90625 55.40625 13.65625 56.34375 
Q 14.40625 57.296875 14.703125 57.90625 
Q 15.40625 57.90625 15.40625 56.59375 
L 15.40625 45 
L 25.5 45 
L 25.5 41.796875 
L 15.40625 41.796875 
L 15.40625 13.203125 
Q 15.40625 8.40625 16.59375 6.296875 
Q 17.796875 4.203125 20.59375 4.203125 
Q 23.59375 4.203125 26.59375 7.703125 
" id="STIXGeneral-Regular-74"/>
      <path d="M 48.703125 0 
L 27.5 0 
L 27.5 1.5 
Q 31.90625 2 33.09375 3.5 
Q 34.296875 5 34.296875 10.203125 
L 34.296875 30 
Q 34.296875 40.59375 26.90625 40.59375 
Q 23.90625 40.59375 21.40625 39.1875 
Q 18.90625 37.796875 15.703125 34.296875 
L 15.703125 10.203125 
Q 15.703125 5 16.890625 3.5 
Q 18.09375 2 22.5 1.5 
L 22.5 0 
L 0.90625 0 
L 0.90625 1.5 
Q 5.203125 2.09375 6.25 3.5 
Q 7.296875 4.90625 7.296875 10.203125 
L 7.296875 57.296875 
Q 7.296875 60.5 6.34375 61.453125 
Q 5.40625 62.40625 2.203125 62.40625 
Q 1.296875 62.40625 1 62.296875 
L 1 63.90625 
L 3.703125 64.703125 
Q 11.40625 67 15.203125 68.296875 
L 15.703125 68 
L 15.703125 37.59375 
Q 19.203125 42.09375 22.59375 44.046875 
Q 26 46 30.40625 46 
Q 42.703125 46 42.703125 30.09375 
L 42.703125 10.203125 
Q 42.703125 5 43.640625 3.640625 
Q 44.59375 2.296875 48.703125 1.5 
z
" id="STIXGeneral-Regular-68"/>
      <path id="STIXGeneral-Regular-20"/>
      <path d="M 30.40625 -16.09375 
L 29.203125 -17.703125 
Q 17.59375 -11.09375 11.1875 0.5 
Q 4.796875 12.09375 4.796875 25.203125 
Q 4.796875 52.90625 29.5 67.59375 
L 30.40625 66 
Q 20.203125 57.296875 16.796875 48.84375 
Q 13.40625 40.40625 13.40625 25.5 
Q 13.40625 10.703125 16.90625 1.5 
Q 20.40625 -7.703125 30.40625 -16.09375 
" id="STIXGeneral-Regular-28"/>
      <path d="M 50.09375 10.59375 
L 51.59375 9.90625 
Q 46.296875 -1 40.59375 -1 
Q 34.5 -1 34.5 7.09375 
L 34.296875 7.09375 
Q 28.703125 -1 21.796875 -1 
Q 16.90625 -1 15.5 1.796875 
L 15.296875 1.796875 
L 15.296875 -13.09375 
Q 15.296875 -18.296875 13.703125 -21.703125 
L 5.5 -21.703125 
Q 7.09375 -18 7.09375 -13.203125 
L 7.09375 45 
L 15.5 45 
L 15.5 13.796875 
Q 15.5 9.703125 18.140625 7.25 
Q 20.796875 4.796875 24.09375 4.796875 
Q 28.796875 4.796875 32.203125 7.90625 
Q 33.59375 9.09375 34.046875 10.140625 
Q 34.5 11.203125 34.5 13.59375 
L 34.5 45 
L 42.90625 45 
L 42.90625 11.296875 
Q 42.90625 5.59375 44.90625 5.59375 
Q 46.40625 5.59375 47.453125 6.59375 
Q 48.5 7.59375 50.09375 10.59375 
" id="STIXGeneral-Regular-3bc"/>
      <path d="M 77.5 0 
L 55.703125 0 
L 55.703125 1.5 
Q 59.90625 1.90625 61.046875 3.25 
Q 62.203125 4.59375 62.203125 9 
L 62.203125 29.59375 
Q 62.203125 35.59375 60.453125 38.1875 
Q 58.703125 40.796875 54.5 40.796875 
Q 51 40.796875 48.546875 39.390625 
Q 46.09375 38 43.796875 34.703125 
L 43.796875 9.5 
Q 43.796875 4.703125 45.25 3.140625 
Q 46.703125 1.59375 51 1.5 
L 51 0 
L 28.59375 0 
L 28.59375 1.5 
Q 33 1.796875 34.203125 2.9375 
Q 35.40625 4.09375 35.40625 8.59375 
L 35.40625 29.703125 
Q 35.40625 40.796875 28.90625 40.796875 
Q 26.09375 40.796875 22.9375 39.546875 
Q 19.796875 38.296875 18.296875 36.5 
Q 17 35 17 34.796875 
L 17 7 
Q 17 3.796875 18.390625 2.75 
Q 19.796875 1.703125 23.796875 1.5 
L 23.796875 0 
L 1.59375 0 
L 1.59375 1.5 
Q 5.796875 1.59375 7.1875 3.046875 
Q 8.59375 4.5 8.59375 8.796875 
L 8.59375 33.59375 
Q 8.59375 37.296875 7.796875 38.75 
Q 7 40.203125 5.09375 40.203125 
Q 3.59375 40.203125 1.90625 39.796875 
L 1.90625 41.5 
Q 8.703125 43.40625 15.796875 46 
L 16.59375 45.703125 
L 16.59375 38.296875 
L 16.796875 38.296875 
Q 21.296875 43 24.75 44.5 
Q 28.203125 46 32.09375 46 
Q 40 46 42.703125 37.59375 
Q 50.5 46 59 46 
Q 70.59375 46 70.59375 28 
L 70.59375 7.703125 
Q 70.59375 4.40625 71.59375 3.15625 
Q 72.59375 1.90625 74.90625 1.703125 
L 77.5 1.5 
z
" id="STIXGeneral-Regular-6d"/>
      <path d="M 2.90625 66 
L 4.09375 67.59375 
Q 15.5 60.796875 22 49.1875 
Q 28.5 37.59375 28.5 24.703125 
Q 28.5 -2.59375 3.796875 -17.703125 
L 2.90625 -16.09375 
Q 13.203125 -7.59375 16.546875 0.84375 
Q 19.90625 9.296875 19.90625 24.40625 
Q 19.90625 39.59375 16.546875 48.75 
Q 13.203125 57.90625 2.90625 66 
" id="STIXGeneral-Regular-29"/>
     </defs>
     <g style="fill:#262626;" transform="translate(219.596562 364.990313)scale(0.22 -0.22)">
      <use xlink:href="#STIXGeneral-Regular-57"/>
      <use x="94.399994" xlink:href="#STIXGeneral-Regular-61"/>
      <use x="138.799988" xlink:href="#STIXGeneral-Regular-76"/>
      <use x="188.799973" xlink:href="#STIXGeneral-Regular-65"/>
      <use x="233.199966" xlink:href="#STIXGeneral-Regular-6c"/>
      <use x="260.999954" xlink:href="#STIXGeneral-Regular-65"/>
      <use x="305.399948" xlink:href="#STIXGeneral-Regular-6e"/>
      <use x="355.399933" xlink:href="#STIXGeneral-Regular-67"/>
      <use x="405.399918" xlink:href="#STIXGeneral-Regular-74"/>
      <use x="433.199905" xlink:href="#STIXGeneral-Regular-68"/>
      <use x="483.19989" xlink:href="#STIXGeneral-Regular-20"/>
      <use x="508.199875" xlink:href="#STIXGeneral-Regular-28"/>
      <use x="541.499863" xlink:href="#STIXGeneral-Regular-3bc"/>
      <use x="594.29985" xlink:href="#STIXGeneral-Regular-6d"/>
      <use x="672.099838" xlink:href="#STIXGeneral-Regular-29"/>
     </g>
    </g>
   </g>
   <g id="matplotlib.axis_2">
    <g id="ytick_1">
     <g id="line2d_4">
      <defs>
       <path d="M 0 0 
L -6 0 
" id="m12754cab39" style="stroke:#4c72b0;"/>
      </defs>
      <g>
       <use style="fill:#4c72b0;stroke:#4c72b0;" x="122.3765" xlink:href="#m12754cab39" y="277.684866"/>
      </g>
     </g>
     <g id="text_5">
      <!-- 0.0100 -->
      <defs>
       <path d="M 47.59375 33 
Q 47.59375 26.296875 46.296875 20.34375 
Q 45 14.40625 42.453125 9.40625 
Q 39.90625 4.40625 35.40625 1.5 
Q 30.90625 -1.40625 25 -1.40625 
Q 18.90625 -1.40625 14.296875 1.6875 
Q 9.703125 4.796875 7.203125 10 
Q 4.703125 15.203125 3.546875 21.09375 
Q 2.40625 27 2.40625 33.59375 
Q 2.40625 42.90625 4.703125 50.34375 
Q 7 57.796875 12.34375 62.6875 
Q 17.703125 67.59375 25.40625 67.59375 
Q 35.203125 67.59375 41.390625 58 
Q 47.59375 48.40625 47.59375 33 
M 38 32.5 
Q 38 48.296875 34.640625 56.640625 
Q 31.296875 65 24.796875 65 
Q 18.59375 65 15.296875 56.59375 
Q 12 48.203125 12 32.90625 
Q 12 17.5 15.296875 9.34375 
Q 18.59375 1.203125 25 1.203125 
Q 31.296875 1.203125 34.640625 9.34375 
Q 38 17.5 38 32.5 
" id="STIXGeneral-Regular-30"/>
       <path d="M 18.09375 4.296875 
Q 18.09375 2.09375 16.4375 0.5 
Q 14.796875 -1.09375 12.5 -1.09375 
Q 10.203125 -1.09375 8.59375 0.5 
Q 7 2.09375 7 4.390625 
Q 7 6.703125 8.640625 8.34375 
Q 10.296875 10 12.59375 10 
Q 14.796875 10 16.4375 8.296875 
Q 18.09375 6.59375 18.09375 4.296875 
" id="STIXGeneral-Regular-2e"/>
      </defs>
      <g style="fill:#4c72b0;" transform="translate(54.3765 284.514554)scale(0.2 -0.2)">
       <use xlink:href="#STIXGeneral-Regular-30"/>
       <use x="49.999985" xlink:href="#STIXGeneral-Regular-2e"/>
       <use x="74.999969" xlink:href="#STIXGeneral-Regular-30"/>
       <use x="124.999954" xlink:href="#STIXGeneral-Regular-31"/>
       <use x="174.999939" xlink:href="#STIXGeneral-Regular-30"/>
       <use x="224.999924" xlink:href="#STIXGeneral-Regular-30"/>
      </g>
     </g>
    </g>
    <g id="ytick_2">
     <g id="line2d_5">
      <g>
       <use style="fill:#4c72b0;stroke:#4c72b0;" x="122.3765" xlink:href="#m12754cab39" y="230.270514"/>
      </g>
     </g>
     <g id="text_6">
      <!-- 0.0125 -->
      <defs>
       <path d="M 43.796875 68.09375 
L 40.203125 59.59375 
Q 39.59375 58.296875 37.5 58.296875 
L 18.09375 58.296875 
L 14.09375 49.796875 
Q 25.09375 47.703125 30 45.25 
Q 34.90625 42.796875 39.09375 37 
Q 42.59375 32.203125 42.59375 24.296875 
Q 42.59375 17.09375 40.25 12.1875 
Q 37.90625 7.296875 32.796875 3.5 
Q 26 -1.40625 15.796875 -1.40625 
Q 10.09375 -1.40625 6.59375 0.296875 
Q 3.09375 2 3.09375 4.796875 
Q 3.09375 8.59375 7.59375 8.59375 
Q 11.203125 8.59375 15 5.5 
Q 18.90625 2.296875 22.09375 2.296875 
Q 27.296875 2.296875 31.4375 7.5 
Q 35.59375 12.703125 35.59375 19.203125 
Q 35.59375 28.796875 28.90625 34.203125 
Q 20.203125 41.203125 7.59375 41.203125 
Q 6.40625 41.203125 6.40625 42 
L 6.5 42.5 
L 17.40625 66.203125 
L 38.09375 66.203125 
Q 39.796875 66.203125 40.75 66.703125 
Q 41.703125 67.203125 42.90625 68.796875 
z
" id="STIXGeneral-Regular-35"/>
      </defs>
      <g style="fill:#4c72b0;" transform="translate(54.3765 237.100201)scale(0.2 -0.2)">
       <use xlink:href="#STIXGeneral-Regular-30"/>
       <use x="49.999985" xlink:href="#STIXGeneral-Regular-2e"/>
       <use x="74.999969" xlink:href="#STIXGeneral-Regular-30"/>
       <use x="124.999954" xlink:href="#STIXGeneral-Regular-31"/>
       <use x="174.999939" xlink:href="#STIXGeneral-Regular-32"/>
       <use x="224.999924" xlink:href="#STIXGeneral-Regular-35"/>
      </g>
     </g>
    </g>
    <g id="ytick_3">
     <g id="line2d_6">
      <g>
       <use style="fill:#4c72b0;stroke:#4c72b0;" x="122.3765" xlink:href="#m12754cab39" y="182.856161"/>
      </g>
     </g>
     <g id="text_7">
      <!-- 0.0150 -->
      <g style="fill:#4c72b0;" transform="translate(54.3765 189.685848)scale(0.2 -0.2)">
       <use xlink:href="#STIXGeneral-Regular-30"/>
       <use x="49.999985" xlink:href="#STIXGeneral-Regular-2e"/>
       <use x="74.999969" xlink:href="#STIXGeneral-Regular-30"/>
       <use x="124.999954" xlink:href="#STIXGeneral-Regular-31"/>
       <use x="174.999939" xlink:href="#STIXGeneral-Regular-35"/>
       <use x="224.999924" xlink:href="#STIXGeneral-Regular-30"/>
      </g>
     </g>
    </g>
    <g id="ytick_4">
     <g id="line2d_7">
      <g>
       <use style="fill:#4c72b0;stroke:#4c72b0;" x="122.3765" xlink:href="#m12754cab39" y="135.441808"/>
      </g>
     </g>
     <g id="text_8">
      <!-- 0.0175 -->
      <defs>
       <path d="M 44.90625 64.59375 
L 23.703125 -0.796875 
L 17.203125 -0.796875 
L 37 58.796875 
L 15.5 58.796875 
Q 11.203125 58.796875 9.09375 57.296875 
Q 7 55.796875 3.796875 50.59375 
L 2 51.5 
L 8 66.203125 
L 44.90625 66.203125 
z
" id="STIXGeneral-Regular-37"/>
      </defs>
      <g style="fill:#4c72b0;" transform="translate(54.3765 142.271496)scale(0.2 -0.2)">
       <use xlink:href="#STIXGeneral-Regular-30"/>
       <use x="49.999985" xlink:href="#STIXGeneral-Regular-2e"/>
       <use x="74.999969" xlink:href="#STIXGeneral-Regular-30"/>
       <use x="124.999954" xlink:href="#STIXGeneral-Regular-31"/>
       <use x="174.999939" xlink:href="#STIXGeneral-Regular-37"/>
       <use x="224.999924" xlink:href="#STIXGeneral-Regular-35"/>
      </g>
     </g>
    </g>
    <g id="ytick_5">
     <g id="line2d_8">
      <g>
       <use style="fill:#4c72b0;stroke:#4c72b0;" x="122.3765" xlink:href="#m12754cab39" y="88.027455"/>
      </g>
     </g>
     <g id="text_9">
      <!-- 0.0200 -->
      <g style="fill:#4c72b0;" transform="translate(54.3765 94.857143)scale(0.2 -0.2)">
       <use xlink:href="#STIXGeneral-Regular-30"/>
       <use x="49.999985" xlink:href="#STIXGeneral-Regular-2e"/>
       <use x="74.999969" xlink:href="#STIXGeneral-Regular-30"/>
       <use x="124.999954" xlink:href="#STIXGeneral-Regular-32"/>
       <use x="174.999939" xlink:href="#STIXGeneral-Regular-30"/>
       <use x="224.999924" xlink:href="#STIXGeneral-Regular-30"/>
      </g>
     </g>
    </g>
    <g id="text_10">
     <!-- Fluence ($\mathrm{J/cm^2}$) -->
     <defs>
      <path d="M 54.59375 51.90625 
L 52.09375 51.90625 
Q 51 58.703125 48.34375 60.546875 
Q 45.703125 62.40625 36.703125 62.40625 
L 23.5 62.40625 
Q 21.40625 62.40625 20.75 61.65625 
Q 20.09375 60.90625 20.09375 58.5 
L 20.09375 36.796875 
L 34.296875 36.796875 
Q 40.59375 36.796875 42.75 38.59375 
Q 44.90625 40.40625 45.59375 46.296875 
L 47.90625 46.296875 
L 47.90625 23 
L 45.59375 23 
Q 45 29.09375 42.890625 30.890625 
Q 40.796875 32.703125 34.296875 32.703125 
L 20.09375 32.703125 
L 20.09375 11.203125 
Q 20.09375 5.5 21.75 3.84375 
Q 23.40625 2.203125 29.203125 1.90625 
L 29.203125 0 
L 1.09375 0 
L 1.09375 1.90625 
Q 6.796875 2.296875 8.34375 4.046875 
Q 9.90625 5.796875 9.90625 12.296875 
L 9.90625 55.09375 
Q 9.90625 60.59375 8.40625 62.25 
Q 6.90625 63.90625 1.203125 64.296875 
L 1.203125 66.203125 
L 54.09375 66.203125 
z
" id="STIXGeneral-Regular-46"/>
      <path d="M 48 5 
L 48 3.59375 
Q 40.203125 1.5 34.296875 -0.90625 
L 33.796875 -0.59375 
L 33.796875 7.59375 
L 33.59375 7.59375 
Q 27.296875 -1 19.296875 -1 
Q 13.59375 -1 10.34375 2.5 
Q 7.09375 6 7.09375 11.796875 
L 7.09375 36.90625 
Q 7.09375 40.59375 5.796875 42 
Q 4.5 43.40625 0.90625 43.59375 
L 0.90625 45 
L 15.5 45 
L 15.5 12.703125 
Q 15.5 9.296875 17.546875 7.046875 
Q 19.59375 4.796875 22.59375 4.796875 
Q 27.5 4.796875 31 7.90625 
Q 32.296875 9.09375 32.796875 10.140625 
Q 33.296875 11.203125 33.296875 13.703125 
L 33.296875 36.796875 
Q 33.296875 40.703125 31.890625 41.84375 
Q 30.5 43 25.90625 43.296875 
L 25.90625 45 
L 41.703125 45 
L 41.703125 10.703125 
Q 41.703125 7.203125 42.84375 6.09375 
Q 44 5 47.40625 5 
z
" id="STIXGeneral-Regular-75"/>
      <path d="M 39.796875 15.59375 
L 41.203125 14.703125 
Q 36.90625 6.296875 33 3.203125 
Q 27.90625 -1 21.5 -1 
Q 13.203125 -1 7.84375 5.25 
Q 2.5 11.5 2.5 21.203125 
Q 2.5 33.90625 10.90625 40.90625 
Q 17.09375 46 24.40625 46 
Q 30.703125 46 35.25 42.953125 
Q 39.796875 39.90625 39.796875 35.703125 
Q 39.796875 34 38.390625 32.75 
Q 37 31.5 35.09375 31.5 
Q 31.59375 31.5 30.296875 36.09375 
L 29.703125 38.296875 
Q 28.90625 41.09375 27.703125 42.09375 
Q 26.5 43.09375 23.796875 43.09375 
Q 17.703125 43.09375 13.953125 38.296875 
Q 10.203125 33.5 10.203125 25.703125 
Q 10.203125 17.09375 14.5 11.640625 
Q 18.796875 6.203125 25.703125 6.203125 
Q 30 6.203125 33.09375 8.25 
Q 36.203125 10.296875 39.796875 15.59375 
" id="STIXGeneral-Regular-63"/>
      <path d="M 35.40625 66.203125 
L 35.40625 64.296875 
Q 29.296875 63.796875 27.75 62.25 
Q 26.203125 60.703125 26.203125 54.90625 
L 26.203125 18.5 
Q 26.203125 -1.40625 9.5 -1.40625 
Q 4.90625 -1.40625 2.15625 0.5 
Q -0.59375 2.40625 -0.59375 5.796875 
Q -0.59375 7.796875 0.84375 9.390625 
Q 2.296875 11 4.296875 11 
Q 7.59375 11 9.203125 6.796875 
Q 9.40625 6.296875 9.703125 5.4375 
Q 10 4.59375 10.140625 4.140625 
Q 10.296875 3.703125 10.59375 3.25 
Q 10.90625 2.796875 11.296875 2.59375 
Q 11.703125 2.40625 12.296875 2.40625 
Q 14.5 2.40625 15.25 3.953125 
Q 16 5.5 16 9.40625 
L 16 55 
Q 16 60.90625 14.5 62.34375 
Q 13 63.796875 6.703125 64.296875 
L 6.703125 66.203125 
z
" id="STIXGeneral-Regular-4a"/>
      <path d="M 28.703125 67.59375 
L 5.90625 -1.40625 
L -0.90625 -1.40625 
L 22 67.59375 
z
" id="STIXGeneral-Regular-2f"/>
     </defs>
     <g style="fill:#4c72b0;" transform="translate(45.601813 248.903125)rotate(-90)scale(0.22 -0.22)">
      <use transform="translate(0 0.684375)" xlink:href="#STIXGeneral-Regular-46"/>
      <use transform="translate(55.599991 0.684375)" xlink:href="#STIXGeneral-Regular-6c"/>
      <use transform="translate(83.399979 0.684375)" xlink:href="#STIXGeneral-Regular-75"/>
      <use transform="translate(133.399963 0.684375)" xlink:href="#STIXGeneral-Regular-65"/>
      <use transform="translate(177.799957 0.684375)" xlink:href="#STIXGeneral-Regular-6e"/>
      <use transform="translate(227.799942 0.684375)" xlink:href="#STIXGeneral-Regular-63"/>
      <use transform="translate(272.199936 0.684375)" xlink:href="#STIXGeneral-Regular-65"/>
      <use transform="translate(316.59993 0.684375)" xlink:href="#STIXGeneral-Regular-20"/>
      <use transform="translate(341.599915 0.684375)" xlink:href="#STIXGeneral-Regular-28"/>
      <use transform="translate(374.899902 0.684375)" xlink:href="#STIXGeneral-Regular-4a"/>
      <use transform="translate(412.19989 0.684375)" xlink:href="#STIXGeneral-Regular-2f"/>
      <use transform="translate(439.999878 0.684375)" xlink:href="#STIXGeneral-Regular-63"/>
      <use transform="translate(484.399872 0.684375)" xlink:href="#STIXGeneral-Regular-6d"/>
      <use transform="translate(563.77486 36.684375)scale(0.7)" xlink:href="#STIXGeneral-Regular-32"/>
      <use transform="translate(603.274849 0.684375)" xlink:href="#STIXGeneral-Regular-29"/>
     </g>
    </g>
   </g>
   <g id="line2d_9">
    <path clip-path="url(#p77a17bd29f)" d="M 138.26875 68.103849 
L 139.39586 77.874079 
L 141.65008 103.928026 
L 142.77719 113.698257 
L 143.9043 126.72523 
L 146.15852 146.265691 
L 147.285629 152.779178 
L 148.412739 162.549408 
L 155.175399 201.630329 
L 156.302509 204.887072 
L 157.429619 211.400559 
L 158.556729 214.657303 
L 159.683839 221.170789 
L 160.810949 224.427533 
L 161.938059 230.94102 
L 163.065168 234.197763 
L 164.192278 240.71125 
L 173.209158 266.765197 
L 174.336268 266.765197 
L 176.590488 273.278684 
L 177.717598 273.278684 
L 178.844707 276.535428 
L 179.971817 276.535428 
L 181.098927 279.792171 
L 182.226037 279.792171 
L 183.353147 283.048914 
L 184.480257 283.048914 
L 185.607367 286.305658 
L 187.861587 286.305658 
L 188.988697 289.562401 
L 194.624246 289.562401 
L 195.751356 286.305658 
L 196.878466 286.305658 
L 199.132686 279.792171 
L 200.259796 273.278684 
L 201.386906 230.94102 
L 202.514016 253.738224 
L 203.641126 136.495461 
L 204.768236 116.955 
L 205.895346 103.928026 
L 208.149566 84.387566 
L 211.530895 64.847105 
L 214.912225 55.076875 
L 219.420665 55.076875 
L 220.547775 58.333618 
L 221.674885 58.333618 
L 223.929105 64.847105 
L 226.183324 77.874079 
L 227.310434 81.130822 
L 228.437544 87.644309 
L 229.564654 90.901053 
L 230.691764 100.671283 
L 232.945984 107.18477 
L 235.200204 120.211743 
L 236.327314 123.468487 
L 237.454424 129.981974 
L 238.581534 133.238717 
L 239.708644 139.752204 
L 241.962863 146.265691 
L 243.089973 152.779178 
L 245.344193 159.292664 
L 246.471303 165.806151 
L 249.852633 175.576382 
L 250.979743 182.089868 
L 264.505062 221.170789 
L 265.632172 221.170789 
L 271.267722 237.454507 
L 272.394832 237.454507 
L 275.776161 247.224737 
L 276.903271 247.224737 
L 278.030381 250.48148 
L 279.157491 250.48148 
L 281.411711 256.994967 
L 282.538821 256.994967 
L 283.665931 260.251711 
L 284.793041 260.251711 
L 285.920151 263.508454 
L 287.047261 263.508454 
L 288.174371 266.765197 
L 289.30148 266.765197 
L 290.42859 270.021941 
L 291.5557 270.021941 
L 292.68281 273.278684 
L 294.93703 273.278684 
L 296.06414 276.535428 
L 297.19125 276.535428 
L 298.31836 279.792171 
L 301.69969 279.792171 
L 302.8268 283.048914 
L 307.335239 283.048914 
L 308.462349 286.305658 
L 310.716569 286.305658 
L 311.843679 283.048914 
L 312.970789 286.305658 
L 314.097899 283.048914 
L 317.479229 263.508454 
L 321.987668 250.48148 
L 323.114778 250.48148 
L 324.241888 247.224737 
L 326.496108 247.224737 
L 327.623218 243.967993 
L 343.402757 243.967993 
L 344.529867 247.224737 
L 347.911197 247.224737 
L 349.038307 250.48148 
L 352.419637 250.48148 
L 353.546746 253.738224 
L 355.800966 253.738224 
L 356.928076 256.994967 
L 359.182296 256.994967 
L 360.309406 260.251711 
L 362.563626 260.251711 
L 363.690736 263.508454 
L 364.817846 263.508454 
L 365.944956 266.765197 
L 368.199176 266.765197 
L 369.326285 270.021941 
L 371.580505 270.021941 
L 372.707615 273.278684 
L 374.961835 273.278684 
L 376.088945 276.535428 
L 378.343165 276.535428 
L 379.470275 279.792171 
L 381.724495 279.792171 
L 382.851605 283.048914 
L 385.105824 283.048914 
L 386.232934 286.305658 
L 388.487154 286.305658 
L 389.614264 289.562401 
L 391.868484 289.562401 
L 392.995594 292.819145 
L 396.376924 292.819145 
L 397.504034 296.075888 
L 400.885363 296.075888 
L 402.012473 299.332632 
L 408.775133 299.332632 
L 409.902243 302.589375 
L 412.156463 302.589375 
L 413.283573 296.075888 
L 414.410683 296.075888 
L 415.537793 292.819145 
L 418.919122 292.819145 
L 420.046232 289.562401 
L 425.681782 289.562401 
L 426.808892 286.305658 
L 427.936002 289.562401 
L 429.063112 286.305658 
L 430.190222 286.305658 
L 431.317332 289.562401 
L 443.715541 289.562401 
L 444.842651 292.819145 
L 451.60531 292.819145 
L 452.73242 296.075888 
L 456.11375 296.075888 
L 456.11375 296.075888 
" style="fill:none;stroke:#4c72b0;stroke-linecap:round;stroke-width:1.75;"/>
    <defs>
     <path d="M 0 3.5 
C 0.928211 3.5 1.81853 3.131218 2.474874 2.474874 
C 3.131218 1.81853 3.5 0.928211 3.5 0 
C 3.5 -0.928211 3.131218 -1.81853 2.474874 -2.474874 
C 1.81853 -3.131218 0.928211 -3.5 0 -3.5 
C -0.928211 -3.5 -1.81853 -3.131218 -2.474874 -2.474874 
C -3.131218 -1.81853 -3.5 -0.928211 -3.5 0 
C -3.5 0.928211 -3.131218 1.81853 -2.474874 2.474874 
C -1.81853 3.131218 -0.928211 3.5 0 3.5 
z
" id="mf0db253c41"/>
    </defs>
    <g clip-path="url(#p77a17bd29f)">
     <use style="fill:#4c72b0;" x="138.26875" xlink:href="#mf0db253c41" y="68.103849"/>
     <use style="fill:#4c72b0;" x="139.39586" xlink:href="#mf0db253c41" y="77.874079"/>
     <use style="fill:#4c72b0;" x="140.52297" xlink:href="#mf0db253c41" y="90.901053"/>
     <use style="fill:#4c72b0;" x="141.65008" xlink:href="#mf0db253c41" y="103.928026"/>
     <use style="fill:#4c72b0;" x="142.77719" xlink:href="#mf0db253c41" y="113.698257"/>
     <use style="fill:#4c72b0;" x="143.9043" xlink:href="#mf0db253c41" y="126.72523"/>
     <use style="fill:#4c72b0;" x="145.03141" xlink:href="#mf0db253c41" y="136.495461"/>
     <use style="fill:#4c72b0;" x="146.15852" xlink:href="#mf0db253c41" y="146.265691"/>
     <use style="fill:#4c72b0;" x="147.285629" xlink:href="#mf0db253c41" y="152.779178"/>
     <use style="fill:#4c72b0;" x="148.412739" xlink:href="#mf0db253c41" y="162.549408"/>
     <use style="fill:#4c72b0;" x="149.539849" xlink:href="#mf0db253c41" y="169.062895"/>
     <use style="fill:#4c72b0;" x="150.666959" xlink:href="#mf0db253c41" y="175.576382"/>
     <use style="fill:#4c72b0;" x="151.794069" xlink:href="#mf0db253c41" y="182.089868"/>
     <use style="fill:#4c72b0;" x="152.921179" xlink:href="#mf0db253c41" y="188.603355"/>
     <use style="fill:#4c72b0;" x="154.048289" xlink:href="#mf0db253c41" y="195.116842"/>
     <use style="fill:#4c72b0;" x="155.175399" xlink:href="#mf0db253c41" y="201.630329"/>
     <use style="fill:#4c72b0;" x="156.302509" xlink:href="#mf0db253c41" y="204.887072"/>
     <use style="fill:#4c72b0;" x="157.429619" xlink:href="#mf0db253c41" y="211.400559"/>
     <use style="fill:#4c72b0;" x="158.556729" xlink:href="#mf0db253c41" y="214.657303"/>
     <use style="fill:#4c72b0;" x="159.683839" xlink:href="#mf0db253c41" y="221.170789"/>
     <use style="fill:#4c72b0;" x="160.810949" xlink:href="#mf0db253c41" y="224.427533"/>
     <use style="fill:#4c72b0;" x="161.938059" xlink:href="#mf0db253c41" y="230.94102"/>
     <use style="fill:#4c72b0;" x="163.065168" xlink:href="#mf0db253c41" y="234.197763"/>
     <use style="fill:#4c72b0;" x="164.192278" xlink:href="#mf0db253c41" y="240.71125"/>
     <use style="fill:#4c72b0;" x="165.319388" xlink:href="#mf0db253c41" y="243.967993"/>
     <use style="fill:#4c72b0;" x="166.446498" xlink:href="#mf0db253c41" y="247.224737"/>
     <use style="fill:#4c72b0;" x="167.573608" xlink:href="#mf0db253c41" y="250.48148"/>
     <use style="fill:#4c72b0;" x="168.700718" xlink:href="#mf0db253c41" y="253.738224"/>
     <use style="fill:#4c72b0;" x="169.827828" xlink:href="#mf0db253c41" y="256.994967"/>
     <use style="fill:#4c72b0;" x="170.954938" xlink:href="#mf0db253c41" y="260.251711"/>
     <use style="fill:#4c72b0;" x="172.082048" xlink:href="#mf0db253c41" y="263.508454"/>
     <use style="fill:#4c72b0;" x="173.209158" xlink:href="#mf0db253c41" y="266.765197"/>
     <use style="fill:#4c72b0;" x="174.336268" xlink:href="#mf0db253c41" y="266.765197"/>
     <use style="fill:#4c72b0;" x="175.463378" xlink:href="#mf0db253c41" y="270.021941"/>
     <use style="fill:#4c72b0;" x="176.590488" xlink:href="#mf0db253c41" y="273.278684"/>
     <use style="fill:#4c72b0;" x="177.717598" xlink:href="#mf0db253c41" y="273.278684"/>
     <use style="fill:#4c72b0;" x="178.844707" xlink:href="#mf0db253c41" y="276.535428"/>
     <use style="fill:#4c72b0;" x="179.971817" xlink:href="#mf0db253c41" y="276.535428"/>
     <use style="fill:#4c72b0;" x="181.098927" xlink:href="#mf0db253c41" y="279.792171"/>
     <use style="fill:#4c72b0;" x="182.226037" xlink:href="#mf0db253c41" y="279.792171"/>
     <use style="fill:#4c72b0;" x="183.353147" xlink:href="#mf0db253c41" y="283.048914"/>
     <use style="fill:#4c72b0;" x="184.480257" xlink:href="#mf0db253c41" y="283.048914"/>
     <use style="fill:#4c72b0;" x="185.607367" xlink:href="#mf0db253c41" y="286.305658"/>
     <use style="fill:#4c72b0;" x="186.734477" xlink:href="#mf0db253c41" y="286.305658"/>
     <use style="fill:#4c72b0;" x="187.861587" xlink:href="#mf0db253c41" y="286.305658"/>
     <use style="fill:#4c72b0;" x="188.988697" xlink:href="#mf0db253c41" y="289.562401"/>
     <use style="fill:#4c72b0;" x="190.115807" xlink:href="#mf0db253c41" y="289.562401"/>
     <use style="fill:#4c72b0;" x="191.242917" xlink:href="#mf0db253c41" y="289.562401"/>
     <use style="fill:#4c72b0;" x="192.370027" xlink:href="#mf0db253c41" y="289.562401"/>
     <use style="fill:#4c72b0;" x="193.497137" xlink:href="#mf0db253c41" y="289.562401"/>
     <use style="fill:#4c72b0;" x="194.624246" xlink:href="#mf0db253c41" y="289.562401"/>
     <use style="fill:#4c72b0;" x="195.751356" xlink:href="#mf0db253c41" y="286.305658"/>
     <use style="fill:#4c72b0;" x="196.878466" xlink:href="#mf0db253c41" y="286.305658"/>
     <use style="fill:#4c72b0;" x="198.005576" xlink:href="#mf0db253c41" y="283.048914"/>
     <use style="fill:#4c72b0;" x="199.132686" xlink:href="#mf0db253c41" y="279.792171"/>
     <use style="fill:#4c72b0;" x="200.259796" xlink:href="#mf0db253c41" y="273.278684"/>
     <use style="fill:#4c72b0;" x="201.386906" xlink:href="#mf0db253c41" y="230.94102"/>
     <use style="fill:#4c72b0;" x="202.514016" xlink:href="#mf0db253c41" y="253.738224"/>
     <use style="fill:#4c72b0;" x="203.641126" xlink:href="#mf0db253c41" y="136.495461"/>
     <use style="fill:#4c72b0;" x="204.768236" xlink:href="#mf0db253c41" y="116.955"/>
     <use style="fill:#4c72b0;" x="205.895346" xlink:href="#mf0db253c41" y="103.928026"/>
     <use style="fill:#4c72b0;" x="207.022456" xlink:href="#mf0db253c41" y="94.157796"/>
     <use style="fill:#4c72b0;" x="208.149566" xlink:href="#mf0db253c41" y="84.387566"/>
     <use style="fill:#4c72b0;" x="209.276676" xlink:href="#mf0db253c41" y="77.874079"/>
     <use style="fill:#4c72b0;" x="210.403785" xlink:href="#mf0db253c41" y="71.360592"/>
     <use style="fill:#4c72b0;" x="211.530895" xlink:href="#mf0db253c41" y="64.847105"/>
     <use style="fill:#4c72b0;" x="212.658005" xlink:href="#mf0db253c41" y="61.590362"/>
     <use style="fill:#4c72b0;" x="213.785115" xlink:href="#mf0db253c41" y="58.333618"/>
     <use style="fill:#4c72b0;" x="214.912225" xlink:href="#mf0db253c41" y="55.076875"/>
     <use style="fill:#4c72b0;" x="216.039335" xlink:href="#mf0db253c41" y="55.076875"/>
     <use style="fill:#4c72b0;" x="217.166445" xlink:href="#mf0db253c41" y="55.076875"/>
     <use style="fill:#4c72b0;" x="218.293555" xlink:href="#mf0db253c41" y="55.076875"/>
     <use style="fill:#4c72b0;" x="219.420665" xlink:href="#mf0db253c41" y="55.076875"/>
     <use style="fill:#4c72b0;" x="220.547775" xlink:href="#mf0db253c41" y="58.333618"/>
     <use style="fill:#4c72b0;" x="221.674885" xlink:href="#mf0db253c41" y="58.333618"/>
     <use style="fill:#4c72b0;" x="222.801995" xlink:href="#mf0db253c41" y="61.590362"/>
     <use style="fill:#4c72b0;" x="223.929105" xlink:href="#mf0db253c41" y="64.847105"/>
     <use style="fill:#4c72b0;" x="225.056215" xlink:href="#mf0db253c41" y="71.360592"/>
     <use style="fill:#4c72b0;" x="226.183324" xlink:href="#mf0db253c41" y="77.874079"/>
     <use style="fill:#4c72b0;" x="227.310434" xlink:href="#mf0db253c41" y="81.130822"/>
     <use style="fill:#4c72b0;" x="228.437544" xlink:href="#mf0db253c41" y="87.644309"/>
     <use style="fill:#4c72b0;" x="229.564654" xlink:href="#mf0db253c41" y="90.901053"/>
     <use style="fill:#4c72b0;" x="230.691764" xlink:href="#mf0db253c41" y="100.671283"/>
     <use style="fill:#4c72b0;" x="231.818874" xlink:href="#mf0db253c41" y="103.928026"/>
     <use style="fill:#4c72b0;" x="232.945984" xlink:href="#mf0db253c41" y="107.18477"/>
     <use style="fill:#4c72b0;" x="234.073094" xlink:href="#mf0db253c41" y="113.698257"/>
     <use style="fill:#4c72b0;" x="235.200204" xlink:href="#mf0db253c41" y="120.211743"/>
     <use style="fill:#4c72b0;" x="236.327314" xlink:href="#mf0db253c41" y="123.468487"/>
     <use style="fill:#4c72b0;" x="237.454424" xlink:href="#mf0db253c41" y="129.981974"/>
     <use style="fill:#4c72b0;" x="238.581534" xlink:href="#mf0db253c41" y="133.238717"/>
     <use style="fill:#4c72b0;" x="239.708644" xlink:href="#mf0db253c41" y="139.752204"/>
     <use style="fill:#4c72b0;" x="240.835754" xlink:href="#mf0db253c41" y="143.008947"/>
     <use style="fill:#4c72b0;" x="241.962863" xlink:href="#mf0db253c41" y="146.265691"/>
     <use style="fill:#4c72b0;" x="243.089973" xlink:href="#mf0db253c41" y="152.779178"/>
     <use style="fill:#4c72b0;" x="244.217083" xlink:href="#mf0db253c41" y="156.035921"/>
     <use style="fill:#4c72b0;" x="245.344193" xlink:href="#mf0db253c41" y="159.292664"/>
     <use style="fill:#4c72b0;" x="246.471303" xlink:href="#mf0db253c41" y="165.806151"/>
     <use style="fill:#4c72b0;" x="247.598413" xlink:href="#mf0db253c41" y="169.062895"/>
     <use style="fill:#4c72b0;" x="248.725523" xlink:href="#mf0db253c41" y="172.319638"/>
     <use style="fill:#4c72b0;" x="249.852633" xlink:href="#mf0db253c41" y="175.576382"/>
     <use style="fill:#4c72b0;" x="250.979743" xlink:href="#mf0db253c41" y="182.089868"/>
     <use style="fill:#4c72b0;" x="252.106853" xlink:href="#mf0db253c41" y="185.346612"/>
     <use style="fill:#4c72b0;" x="253.233963" xlink:href="#mf0db253c41" y="188.603355"/>
     <use style="fill:#4c72b0;" x="254.361073" xlink:href="#mf0db253c41" y="191.860099"/>
     <use style="fill:#4c72b0;" x="255.488183" xlink:href="#mf0db253c41" y="195.116842"/>
     <use style="fill:#4c72b0;" x="256.615293" xlink:href="#mf0db253c41" y="198.373586"/>
     <use style="fill:#4c72b0;" x="257.742402" xlink:href="#mf0db253c41" y="201.630329"/>
     <use style="fill:#4c72b0;" x="258.869512" xlink:href="#mf0db253c41" y="204.887072"/>
     <use style="fill:#4c72b0;" x="259.996622" xlink:href="#mf0db253c41" y="208.143816"/>
     <use style="fill:#4c72b0;" x="261.123732" xlink:href="#mf0db253c41" y="211.400559"/>
     <use style="fill:#4c72b0;" x="262.250842" xlink:href="#mf0db253c41" y="214.657303"/>
     <use style="fill:#4c72b0;" x="263.377952" xlink:href="#mf0db253c41" y="217.914046"/>
     <use style="fill:#4c72b0;" x="264.505062" xlink:href="#mf0db253c41" y="221.170789"/>
     <use style="fill:#4c72b0;" x="265.632172" xlink:href="#mf0db253c41" y="221.170789"/>
     <use style="fill:#4c72b0;" x="266.759282" xlink:href="#mf0db253c41" y="224.427533"/>
     <use style="fill:#4c72b0;" x="267.886392" xlink:href="#mf0db253c41" y="227.684276"/>
     <use style="fill:#4c72b0;" x="269.013502" xlink:href="#mf0db253c41" y="230.94102"/>
     <use style="fill:#4c72b0;" x="270.140612" xlink:href="#mf0db253c41" y="234.197763"/>
     <use style="fill:#4c72b0;" x="271.267722" xlink:href="#mf0db253c41" y="237.454507"/>
     <use style="fill:#4c72b0;" x="272.394832" xlink:href="#mf0db253c41" y="237.454507"/>
     <use style="fill:#4c72b0;" x="273.521941" xlink:href="#mf0db253c41" y="240.71125"/>
     <use style="fill:#4c72b0;" x="274.649051" xlink:href="#mf0db253c41" y="243.967993"/>
     <use style="fill:#4c72b0;" x="275.776161" xlink:href="#mf0db253c41" y="247.224737"/>
     <use style="fill:#4c72b0;" x="276.903271" xlink:href="#mf0db253c41" y="247.224737"/>
     <use style="fill:#4c72b0;" x="278.030381" xlink:href="#mf0db253c41" y="250.48148"/>
     <use style="fill:#4c72b0;" x="279.157491" xlink:href="#mf0db253c41" y="250.48148"/>
     <use style="fill:#4c72b0;" x="280.284601" xlink:href="#mf0db253c41" y="253.738224"/>
     <use style="fill:#4c72b0;" x="281.411711" xlink:href="#mf0db253c41" y="256.994967"/>
     <use style="fill:#4c72b0;" x="282.538821" xlink:href="#mf0db253c41" y="256.994967"/>
     <use style="fill:#4c72b0;" x="283.665931" xlink:href="#mf0db253c41" y="260.251711"/>
     <use style="fill:#4c72b0;" x="284.793041" xlink:href="#mf0db253c41" y="260.251711"/>
     <use style="fill:#4c72b0;" x="285.920151" xlink:href="#mf0db253c41" y="263.508454"/>
     <use style="fill:#4c72b0;" x="287.047261" xlink:href="#mf0db253c41" y="263.508454"/>
     <use style="fill:#4c72b0;" x="288.174371" xlink:href="#mf0db253c41" y="266.765197"/>
     <use style="fill:#4c72b0;" x="289.30148" xlink:href="#mf0db253c41" y="266.765197"/>
     <use style="fill:#4c72b0;" x="290.42859" xlink:href="#mf0db253c41" y="270.021941"/>
     <use style="fill:#4c72b0;" x="291.5557" xlink:href="#mf0db253c41" y="270.021941"/>
     <use style="fill:#4c72b0;" x="292.68281" xlink:href="#mf0db253c41" y="273.278684"/>
     <use style="fill:#4c72b0;" x="293.80992" xlink:href="#mf0db253c41" y="273.278684"/>
     <use style="fill:#4c72b0;" x="294.93703" xlink:href="#mf0db253c41" y="273.278684"/>
     <use style="fill:#4c72b0;" x="296.06414" xlink:href="#mf0db253c41" y="276.535428"/>
     <use style="fill:#4c72b0;" x="297.19125" xlink:href="#mf0db253c41" y="276.535428"/>
     <use style="fill:#4c72b0;" x="298.31836" xlink:href="#mf0db253c41" y="279.792171"/>
     <use style="fill:#4c72b0;" x="299.44547" xlink:href="#mf0db253c41" y="279.792171"/>
     <use style="fill:#4c72b0;" x="300.57258" xlink:href="#mf0db253c41" y="279.792171"/>
     <use style="fill:#4c72b0;" x="301.69969" xlink:href="#mf0db253c41" y="279.792171"/>
     <use style="fill:#4c72b0;" x="302.8268" xlink:href="#mf0db253c41" y="283.048914"/>
     <use style="fill:#4c72b0;" x="303.95391" xlink:href="#mf0db253c41" y="283.048914"/>
     <use style="fill:#4c72b0;" x="305.08102" xlink:href="#mf0db253c41" y="283.048914"/>
     <use style="fill:#4c72b0;" x="306.208129" xlink:href="#mf0db253c41" y="283.048914"/>
     <use style="fill:#4c72b0;" x="307.335239" xlink:href="#mf0db253c41" y="283.048914"/>
     <use style="fill:#4c72b0;" x="308.462349" xlink:href="#mf0db253c41" y="286.305658"/>
     <use style="fill:#4c72b0;" x="309.589459" xlink:href="#mf0db253c41" y="286.305658"/>
     <use style="fill:#4c72b0;" x="310.716569" xlink:href="#mf0db253c41" y="286.305658"/>
     <use style="fill:#4c72b0;" x="311.843679" xlink:href="#mf0db253c41" y="283.048914"/>
     <use style="fill:#4c72b0;" x="312.970789" xlink:href="#mf0db253c41" y="286.305658"/>
     <use style="fill:#4c72b0;" x="314.097899" xlink:href="#mf0db253c41" y="283.048914"/>
     <use style="fill:#4c72b0;" x="315.225009" xlink:href="#mf0db253c41" y="276.535428"/>
     <use style="fill:#4c72b0;" x="316.352119" xlink:href="#mf0db253c41" y="270.021941"/>
     <use style="fill:#4c72b0;" x="317.479229" xlink:href="#mf0db253c41" y="263.508454"/>
     <use style="fill:#4c72b0;" x="318.606339" xlink:href="#mf0db253c41" y="260.251711"/>
     <use style="fill:#4c72b0;" x="319.733449" xlink:href="#mf0db253c41" y="256.994967"/>
     <use style="fill:#4c72b0;" x="320.860559" xlink:href="#mf0db253c41" y="253.738224"/>
     <use style="fill:#4c72b0;" x="321.987668" xlink:href="#mf0db253c41" y="250.48148"/>
     <use style="fill:#4c72b0;" x="323.114778" xlink:href="#mf0db253c41" y="250.48148"/>
     <use style="fill:#4c72b0;" x="324.241888" xlink:href="#mf0db253c41" y="247.224737"/>
     <use style="fill:#4c72b0;" x="325.368998" xlink:href="#mf0db253c41" y="247.224737"/>
     <use style="fill:#4c72b0;" x="326.496108" xlink:href="#mf0db253c41" y="247.224737"/>
     <use style="fill:#4c72b0;" x="327.623218" xlink:href="#mf0db253c41" y="243.967993"/>
     <use style="fill:#4c72b0;" x="328.750328" xlink:href="#mf0db253c41" y="243.967993"/>
     <use style="fill:#4c72b0;" x="329.877438" xlink:href="#mf0db253c41" y="243.967993"/>
     <use style="fill:#4c72b0;" x="331.004548" xlink:href="#mf0db253c41" y="243.967993"/>
     <use style="fill:#4c72b0;" x="332.131658" xlink:href="#mf0db253c41" y="243.967993"/>
     <use style="fill:#4c72b0;" x="333.258768" xlink:href="#mf0db253c41" y="243.967993"/>
     <use style="fill:#4c72b0;" x="334.385878" xlink:href="#mf0db253c41" y="243.967993"/>
     <use style="fill:#4c72b0;" x="335.512988" xlink:href="#mf0db253c41" y="243.967993"/>
     <use style="fill:#4c72b0;" x="336.640098" xlink:href="#mf0db253c41" y="243.967993"/>
     <use style="fill:#4c72b0;" x="337.767207" xlink:href="#mf0db253c41" y="243.967993"/>
     <use style="fill:#4c72b0;" x="338.894317" xlink:href="#mf0db253c41" y="243.967993"/>
     <use style="fill:#4c72b0;" x="340.021427" xlink:href="#mf0db253c41" y="243.967993"/>
     <use style="fill:#4c72b0;" x="341.148537" xlink:href="#mf0db253c41" y="243.967993"/>
     <use style="fill:#4c72b0;" x="342.275647" xlink:href="#mf0db253c41" y="243.967993"/>
     <use style="fill:#4c72b0;" x="343.402757" xlink:href="#mf0db253c41" y="243.967993"/>
     <use style="fill:#4c72b0;" x="344.529867" xlink:href="#mf0db253c41" y="247.224737"/>
     <use style="fill:#4c72b0;" x="345.656977" xlink:href="#mf0db253c41" y="247.224737"/>
     <use style="fill:#4c72b0;" x="346.784087" xlink:href="#mf0db253c41" y="247.224737"/>
     <use style="fill:#4c72b0;" x="347.911197" xlink:href="#mf0db253c41" y="247.224737"/>
     <use style="fill:#4c72b0;" x="349.038307" xlink:href="#mf0db253c41" y="250.48148"/>
     <use style="fill:#4c72b0;" x="350.165417" xlink:href="#mf0db253c41" y="250.48148"/>
     <use style="fill:#4c72b0;" x="351.292527" xlink:href="#mf0db253c41" y="250.48148"/>
     <use style="fill:#4c72b0;" x="352.419637" xlink:href="#mf0db253c41" y="250.48148"/>
     <use style="fill:#4c72b0;" x="353.546746" xlink:href="#mf0db253c41" y="253.738224"/>
     <use style="fill:#4c72b0;" x="354.673856" xlink:href="#mf0db253c41" y="253.738224"/>
     <use style="fill:#4c72b0;" x="355.800966" xlink:href="#mf0db253c41" y="253.738224"/>
     <use style="fill:#4c72b0;" x="356.928076" xlink:href="#mf0db253c41" y="256.994967"/>
     <use style="fill:#4c72b0;" x="358.055186" xlink:href="#mf0db253c41" y="256.994967"/>
     <use style="fill:#4c72b0;" x="359.182296" xlink:href="#mf0db253c41" y="256.994967"/>
     <use style="fill:#4c72b0;" x="360.309406" xlink:href="#mf0db253c41" y="260.251711"/>
     <use style="fill:#4c72b0;" x="361.436516" xlink:href="#mf0db253c41" y="260.251711"/>
     <use style="fill:#4c72b0;" x="362.563626" xlink:href="#mf0db253c41" y="260.251711"/>
     <use style="fill:#4c72b0;" x="363.690736" xlink:href="#mf0db253c41" y="263.508454"/>
     <use style="fill:#4c72b0;" x="364.817846" xlink:href="#mf0db253c41" y="263.508454"/>
     <use style="fill:#4c72b0;" x="365.944956" xlink:href="#mf0db253c41" y="266.765197"/>
     <use style="fill:#4c72b0;" x="367.072066" xlink:href="#mf0db253c41" y="266.765197"/>
     <use style="fill:#4c72b0;" x="368.199176" xlink:href="#mf0db253c41" y="266.765197"/>
     <use style="fill:#4c72b0;" x="369.326285" xlink:href="#mf0db253c41" y="270.021941"/>
     <use style="fill:#4c72b0;" x="370.453395" xlink:href="#mf0db253c41" y="270.021941"/>
     <use style="fill:#4c72b0;" x="371.580505" xlink:href="#mf0db253c41" y="270.021941"/>
     <use style="fill:#4c72b0;" x="372.707615" xlink:href="#mf0db253c41" y="273.278684"/>
     <use style="fill:#4c72b0;" x="373.834725" xlink:href="#mf0db253c41" y="273.278684"/>
     <use style="fill:#4c72b0;" x="374.961835" xlink:href="#mf0db253c41" y="273.278684"/>
     <use style="fill:#4c72b0;" x="376.088945" xlink:href="#mf0db253c41" y="276.535428"/>
     <use style="fill:#4c72b0;" x="377.216055" xlink:href="#mf0db253c41" y="276.535428"/>
     <use style="fill:#4c72b0;" x="378.343165" xlink:href="#mf0db253c41" y="276.535428"/>
     <use style="fill:#4c72b0;" x="379.470275" xlink:href="#mf0db253c41" y="279.792171"/>
     <use style="fill:#4c72b0;" x="380.597385" xlink:href="#mf0db253c41" y="279.792171"/>
     <use style="fill:#4c72b0;" x="381.724495" xlink:href="#mf0db253c41" y="279.792171"/>
     <use style="fill:#4c72b0;" x="382.851605" xlink:href="#mf0db253c41" y="283.048914"/>
     <use style="fill:#4c72b0;" x="383.978715" xlink:href="#mf0db253c41" y="283.048914"/>
     <use style="fill:#4c72b0;" x="385.105824" xlink:href="#mf0db253c41" y="283.048914"/>
     <use style="fill:#4c72b0;" x="386.232934" xlink:href="#mf0db253c41" y="286.305658"/>
     <use style="fill:#4c72b0;" x="387.360044" xlink:href="#mf0db253c41" y="286.305658"/>
     <use style="fill:#4c72b0;" x="388.487154" xlink:href="#mf0db253c41" y="286.305658"/>
     <use style="fill:#4c72b0;" x="389.614264" xlink:href="#mf0db253c41" y="289.562401"/>
     <use style="fill:#4c72b0;" x="390.741374" xlink:href="#mf0db253c41" y="289.562401"/>
     <use style="fill:#4c72b0;" x="391.868484" xlink:href="#mf0db253c41" y="289.562401"/>
     <use style="fill:#4c72b0;" x="392.995594" xlink:href="#mf0db253c41" y="292.819145"/>
     <use style="fill:#4c72b0;" x="394.122704" xlink:href="#mf0db253c41" y="292.819145"/>
     <use style="fill:#4c72b0;" x="395.249814" xlink:href="#mf0db253c41" y="292.819145"/>
     <use style="fill:#4c72b0;" x="396.376924" xlink:href="#mf0db253c41" y="292.819145"/>
     <use style="fill:#4c72b0;" x="397.504034" xlink:href="#mf0db253c41" y="296.075888"/>
     <use style="fill:#4c72b0;" x="398.631144" xlink:href="#mf0db253c41" y="296.075888"/>
     <use style="fill:#4c72b0;" x="399.758254" xlink:href="#mf0db253c41" y="296.075888"/>
     <use style="fill:#4c72b0;" x="400.885363" xlink:href="#mf0db253c41" y="296.075888"/>
     <use style="fill:#4c72b0;" x="402.012473" xlink:href="#mf0db253c41" y="299.332632"/>
     <use style="fill:#4c72b0;" x="403.139583" xlink:href="#mf0db253c41" y="299.332632"/>
     <use style="fill:#4c72b0;" x="404.266693" xlink:href="#mf0db253c41" y="299.332632"/>
     <use style="fill:#4c72b0;" x="405.393803" xlink:href="#mf0db253c41" y="299.332632"/>
     <use style="fill:#4c72b0;" x="406.520913" xlink:href="#mf0db253c41" y="299.332632"/>
     <use style="fill:#4c72b0;" x="407.648023" xlink:href="#mf0db253c41" y="299.332632"/>
     <use style="fill:#4c72b0;" x="408.775133" xlink:href="#mf0db253c41" y="299.332632"/>
     <use style="fill:#4c72b0;" x="409.902243" xlink:href="#mf0db253c41" y="302.589375"/>
     <use style="fill:#4c72b0;" x="411.029353" xlink:href="#mf0db253c41" y="302.589375"/>
     <use style="fill:#4c72b0;" x="412.156463" xlink:href="#mf0db253c41" y="302.589375"/>
     <use style="fill:#4c72b0;" x="413.283573" xlink:href="#mf0db253c41" y="296.075888"/>
     <use style="fill:#4c72b0;" x="414.410683" xlink:href="#mf0db253c41" y="296.075888"/>
     <use style="fill:#4c72b0;" x="415.537793" xlink:href="#mf0db253c41" y="292.819145"/>
     <use style="fill:#4c72b0;" x="416.664902" xlink:href="#mf0db253c41" y="292.819145"/>
     <use style="fill:#4c72b0;" x="417.792012" xlink:href="#mf0db253c41" y="292.819145"/>
     <use style="fill:#4c72b0;" x="418.919122" xlink:href="#mf0db253c41" y="292.819145"/>
     <use style="fill:#4c72b0;" x="420.046232" xlink:href="#mf0db253c41" y="289.562401"/>
     <use style="fill:#4c72b0;" x="421.173342" xlink:href="#mf0db253c41" y="289.562401"/>
     <use style="fill:#4c72b0;" x="422.300452" xlink:href="#mf0db253c41" y="289.562401"/>
     <use style="fill:#4c72b0;" x="423.427562" xlink:href="#mf0db253c41" y="289.562401"/>
     <use style="fill:#4c72b0;" x="424.554672" xlink:href="#mf0db253c41" y="289.562401"/>
     <use style="fill:#4c72b0;" x="425.681782" xlink:href="#mf0db253c41" y="289.562401"/>
     <use style="fill:#4c72b0;" x="426.808892" xlink:href="#mf0db253c41" y="286.305658"/>
     <use style="fill:#4c72b0;" x="427.936002" xlink:href="#mf0db253c41" y="289.562401"/>
     <use style="fill:#4c72b0;" x="429.063112" xlink:href="#mf0db253c41" y="286.305658"/>
     <use style="fill:#4c72b0;" x="430.190222" xlink:href="#mf0db253c41" y="286.305658"/>
     <use style="fill:#4c72b0;" x="431.317332" xlink:href="#mf0db253c41" y="289.562401"/>
     <use style="fill:#4c72b0;" x="432.444441" xlink:href="#mf0db253c41" y="289.562401"/>
     <use style="fill:#4c72b0;" x="433.571551" xlink:href="#mf0db253c41" y="289.562401"/>
     <use style="fill:#4c72b0;" x="434.698661" xlink:href="#mf0db253c41" y="289.562401"/>
     <use style="fill:#4c72b0;" x="435.825771" xlink:href="#mf0db253c41" y="289.562401"/>
     <use style="fill:#4c72b0;" x="436.952881" xlink:href="#mf0db253c41" y="289.562401"/>
     <use style="fill:#4c72b0;" x="438.079991" xlink:href="#mf0db253c41" y="289.562401"/>
     <use style="fill:#4c72b0;" x="439.207101" xlink:href="#mf0db253c41" y="289.562401"/>
     <use style="fill:#4c72b0;" x="440.334211" xlink:href="#mf0db253c41" y="289.562401"/>
     <use style="fill:#4c72b0;" x="441.461321" xlink:href="#mf0db253c41" y="289.562401"/>
     <use style="fill:#4c72b0;" x="442.588431" xlink:href="#mf0db253c41" y="289.562401"/>
     <use style="fill:#4c72b0;" x="443.715541" xlink:href="#mf0db253c41" y="289.562401"/>
     <use style="fill:#4c72b0;" x="444.842651" xlink:href="#mf0db253c41" y="292.819145"/>
     <use style="fill:#4c72b0;" x="445.969761" xlink:href="#mf0db253c41" y="292.819145"/>
     <use style="fill:#4c72b0;" x="447.096871" xlink:href="#mf0db253c41" y="292.819145"/>
     <use style="fill:#4c72b0;" x="448.22398" xlink:href="#mf0db253c41" y="292.819145"/>
     <use style="fill:#4c72b0;" x="449.35109" xlink:href="#mf0db253c41" y="292.819145"/>
     <use style="fill:#4c72b0;" x="450.4782" xlink:href="#mf0db253c41" y="292.819145"/>
     <use style="fill:#4c72b0;" x="451.60531" xlink:href="#mf0db253c41" y="292.819145"/>
     <use style="fill:#4c72b0;" x="452.73242" xlink:href="#mf0db253c41" y="296.075888"/>
     <use style="fill:#4c72b0;" x="453.85953" xlink:href="#mf0db253c41" y="296.075888"/>
     <use style="fill:#4c72b0;" x="454.98664" xlink:href="#mf0db253c41" y="296.075888"/>
     <use style="fill:#4c72b0;" x="456.11375" xlink:href="#mf0db253c41" y="296.075888"/>
    </g>
   </g>
   <g id="patch_3">
    <path d="M 122.3765 314.965 
L 122.3765 42.70125 
" style="fill:none;stroke:#262626;stroke-linecap:square;stroke-linejoin:miter;stroke-width:1.25;"/>
   </g>
   <g id="patch_4">
    <path d="M 472.006 314.965 
L 472.006 42.70125 
" style="fill:none;stroke:#262626;stroke-linecap:square;stroke-linejoin:miter;stroke-width:1.25;"/>
   </g>
   <g id="patch_5">
    <path d="M 122.3765 314.965 
L 472.006 314.965 
" style="fill:none;stroke:#262626;stroke-linecap:square;stroke-linejoin:miter;stroke-width:1.25;"/>
   </g>
   <g id="patch_6">
    <path d="M 122.3765 42.70125 
L 472.006 42.70125 
" style="fill:none;stroke:#262626;stroke-linecap:square;stroke-linejoin:miter;stroke-width:1.25;"/>
   </g>
  </g>
  <g id="axes_2">
   <g id="matplotlib.axis_3">
    <g id="ytick_6">
     <g id="line2d_10">
      <defs>
       <path d="M 0 0 
L 6 0 
" id="m4cb8974702" style="stroke:#55a868;"/>
      </defs>
      <g>
       <use style="fill:#55a868;stroke:#55a868;" x="472.006" xlink:href="#m4cb8974702" y="277.684866"/>
      </g>
     </g>
     <g id="text_11">
      <!-- 1.00 -->
      <g style="fill:#55a868;" transform="translate(485.006 284.514554)scale(0.2 -0.2)">
       <use xlink:href="#STIXGeneral-Regular-31"/>
       <use x="49.999985" xlink:href="#STIXGeneral-Regular-2e"/>
       <use x="74.999969" xlink:href="#STIXGeneral-Regular-30"/>
       <use x="124.999954" xlink:href="#STIXGeneral-Regular-30"/>
      </g>
     </g>
    </g>
    <g id="ytick_7">
     <g id="line2d_11">
      <g>
       <use style="fill:#55a868;stroke:#55a868;" x="472.006" xlink:href="#m4cb8974702" y="230.270514"/>
      </g>
     </g>
     <g id="text_12">
      <!-- 1.25 -->
      <g style="fill:#55a868;" transform="translate(485.006 237.100201)scale(0.2 -0.2)">
       <use xlink:href="#STIXGeneral-Regular-31"/>
       <use x="49.999985" xlink:href="#STIXGeneral-Regular-2e"/>
       <use x="74.999969" xlink:href="#STIXGeneral-Regular-32"/>
       <use x="124.999954" xlink:href="#STIXGeneral-Regular-35"/>
      </g>
     </g>
    </g>
    <g id="ytick_8">
     <g id="line2d_12">
      <g>
       <use style="fill:#55a868;stroke:#55a868;" x="472.006" xlink:href="#m4cb8974702" y="182.856161"/>
      </g>
     </g>
     <g id="text_13">
      <!-- 1.50 -->
      <g style="fill:#55a868;" transform="translate(485.006 189.685848)scale(0.2 -0.2)">
       <use xlink:href="#STIXGeneral-Regular-31"/>
       <use x="49.999985" xlink:href="#STIXGeneral-Regular-2e"/>
       <use x="74.999969" xlink:href="#STIXGeneral-Regular-35"/>
       <use x="124.999954" xlink:href="#STIXGeneral-Regular-30"/>
      </g>
     </g>
    </g>
    <g id="ytick_9">
     <g id="line2d_13">
      <g>
       <use style="fill:#55a868;stroke:#55a868;" x="472.006" xlink:href="#m4cb8974702" y="135.441808"/>
      </g>
     </g>
     <g id="text_14">
      <!-- 1.75 -->
      <g style="fill:#55a868;" transform="translate(485.006 142.271496)scale(0.2 -0.2)">
       <use xlink:href="#STIXGeneral-Regular-31"/>
       <use x="49.999985" xlink:href="#STIXGeneral-Regular-2e"/>
       <use x="74.999969" xlink:href="#STIXGeneral-Regular-37"/>
       <use x="124.999954" xlink:href="#STIXGeneral-Regular-35"/>
      </g>
     </g>
    </g>
    <g id="ytick_10">
     <g id="line2d_14">
      <g>
       <use style="fill:#55a868;stroke:#55a868;" x="472.006" xlink:href="#m4cb8974702" y="88.027455"/>
      </g>
     </g>
     <g id="text_15">
      <!-- 2.00 -->
      <g style="fill:#55a868;" transform="translate(485.006 94.857143)scale(0.2 -0.2)">
       <use xlink:href="#STIXGeneral-Regular-32"/>
       <use x="49.999985" xlink:href="#STIXGeneral-Regular-2e"/>
       <use x="74.999969" xlink:href="#STIXGeneral-Regular-30"/>
       <use x="124.999954" xlink:href="#STIXGeneral-Regular-30"/>
      </g>
     </g>
    </g>
    <g id="text_16">
     <!-- Intensity ($\mathrm{W/cm^2}$) -->
     <defs>
      <path d="M 31.5 0 
L 1.796875 0 
L 1.796875 1.90625 
Q 8.09375 2.09375 9.796875 3.75 
Q 11.5 5.40625 11.5 11.203125 
L 11.5 55.09375 
Q 11.5 60.90625 9.890625 62.40625 
Q 8.296875 63.90625 1.796875 64.296875 
L 1.796875 66.203125 
L 31.5 66.203125 
L 31.5 64.296875 
Q 25.203125 64 23.453125 62.390625 
Q 21.703125 60.796875 21.703125 55.09375 
L 21.703125 11.203125 
Q 21.703125 5.59375 23.5 3.84375 
Q 25.296875 2.09375 31.5 1.90625 
z
" id="STIXGeneral-Regular-49"/>
      <path d="M 15.59375 30.09375 
L 26 23.796875 
Q 31 20.796875 32.890625 18.1875 
Q 34.796875 15.59375 34.796875 11.5 
Q 34.796875 6.5 30.640625 2.75 
Q 26.5 -1 20.796875 -1 
Q 16.09375 -1 13.5 -0.09375 
Q 10.796875 0.796875 8.90625 0.796875 
Q 7.203125 0.796875 6.5 -0.40625 
L 5.203125 -0.40625 
L 5.203125 15.296875 
L 6.796875 15.296875 
Q 8.40625 8 11.40625 4.59375 
Q 14.40625 1.203125 19.5 1.203125 
Q 23.203125 1.203125 25.5 3.296875 
Q 27.796875 5.40625 27.796875 8.59375 
Q 27.796875 13.203125 22.5 16.09375 
L 17.09375 19.09375 
Q 5.09375 25.796875 5.09375 33.59375 
Q 5.09375 39.40625 8.84375 42.65625 
Q 12.59375 45.90625 18.90625 45.90625 
Q 23.296875 45.90625 25.59375 44.796875 
Q 27.40625 44 28.40625 44 
Q 29.09375 44 30 45 
L 31.09375 45 
L 31.59375 31.40625 
L 30.09375 31.40625 
Q 28.40625 38.203125 25.84375 40.953125 
Q 23.296875 43.703125 18.796875 43.703125 
Q 15.40625 43.703125 13.34375 42 
Q 11.296875 40.296875 11.296875 36.90625 
Q 11.296875 35.203125 12.4375 33.25 
Q 13.59375 31.296875 15.59375 30.09375 
" id="STIXGeneral-Regular-73"/>
      <path d="M 18 63.203125 
Q 18 61 16.5 59.546875 
Q 15 58.09375 12.796875 58.09375 
Q 10.703125 58.09375 9.25 59.546875 
Q 7.796875 61 7.796875 63.203125 
Q 7.796875 65.296875 9.296875 66.796875 
Q 10.796875 68.296875 12.90625 68.296875 
Q 15.09375 68.296875 16.546875 66.796875 
Q 18 65.296875 18 63.203125 
M 25.296875 0 
L 1.59375 0 
L 1.59375 1.5 
Q 6.796875 1.796875 8.140625 3.296875 
Q 9.5 4.796875 9.5 10.40625 
L 9.5 33.09375 
Q 9.5 36.59375 8.796875 38 
Q 8.09375 39.40625 6.203125 39.40625 
Q 3.796875 39.40625 2 38.90625 
L 2 40.5 
L 17.5 46 
L 17.90625 45.59375 
L 17.90625 10.5 
Q 17.90625 4.90625 19.15625 3.40625 
Q 20.40625 1.90625 25.296875 1.5 
z
" id="STIXGeneral-Regular-69"/>
      <path d="M 47.5 45 
L 47.5 43.5 
Q 45.703125 43.296875 44.59375 42.1875 
Q 43.5 41.09375 42.5 38.40625 
L 27.5 -2.5 
Q 23.59375 -13.09375 19.640625 -17.4375 
Q 15.703125 -21.796875 10 -21.796875 
Q 6.796875 -21.796875 4.890625 -20.140625 
Q 3 -18.5 3 -16 
Q 3 -14.09375 4.25 -12.75 
Q 5.5 -11.40625 7.296875 -11.40625 
Q 10.203125 -11.40625 12.5 -12.703125 
Q 13.796875 -13.40625 15.09375 -13.40625 
Q 17.203125 -13.40625 20.09375 -9 
Q 21.5 -7 22.796875 -3.296875 
Q 24.09375 0.40625 24.09375 1.796875 
Q 24.09375 3.09375 19.90625 11.90625 
L 6.703125 40.09375 
Q 5.40625 43 1.40625 43.59375 
L 1.40625 45 
L 21.90625 45 
L 21.90625 43.5 
Q 18.703125 43.40625 17.453125 42.796875 
Q 16.203125 42.203125 16.203125 40.796875 
Q 16.203125 39.703125 17.5 36.703125 
L 28.703125 11.703125 
L 38.40625 39.296875 
Q 38.796875 40.203125 38.796875 41.09375 
Q 38.796875 43.5 34.203125 43.5 
L 34.203125 45 
z
" id="STIXGeneral-Regular-79"/>
     </defs>
     <g style="fill:#55a868;" transform="translate(542.486 258.913125)rotate(-90)scale(0.22 -0.22)">
      <use transform="translate(0 0.684375)" xlink:href="#STIXGeneral-Regular-49"/>
      <use transform="translate(33.299988 0.684375)" xlink:href="#STIXGeneral-Regular-6e"/>
      <use transform="translate(83.299973 0.684375)" xlink:href="#STIXGeneral-Regular-74"/>
      <use transform="translate(111.09996 0.684375)" xlink:href="#STIXGeneral-Regular-65"/>
      <use transform="translate(155.499954 0.684375)" xlink:href="#STIXGeneral-Regular-6e"/>
      <use transform="translate(205.499939 0.684375)" xlink:href="#STIXGeneral-Regular-73"/>
      <use transform="translate(244.399933 0.684375)" xlink:href="#STIXGeneral-Regular-69"/>
      <use transform="translate(272.199921 0.684375)" xlink:href="#STIXGeneral-Regular-74"/>
      <use transform="translate(299.999908 0.684375)" xlink:href="#STIXGeneral-Regular-79"/>
      <use transform="translate(349.999893 0.684375)" xlink:href="#STIXGeneral-Regular-20"/>
      <use transform="translate(374.999878 0.684375)" xlink:href="#STIXGeneral-Regular-28"/>
      <use transform="translate(408.299866 0.684375)" xlink:href="#STIXGeneral-Regular-57"/>
      <use transform="translate(502.69986 0.684375)" xlink:href="#STIXGeneral-Regular-2f"/>
      <use transform="translate(530.499847 0.684375)" xlink:href="#STIXGeneral-Regular-63"/>
      <use transform="translate(574.899841 0.684375)" xlink:href="#STIXGeneral-Regular-6d"/>
      <use transform="translate(654.274829 36.684375)scale(0.7)" xlink:href="#STIXGeneral-Regular-32"/>
      <use transform="translate(693.774818 0.684375)" xlink:href="#STIXGeneral-Regular-29"/>
     </g>
    </g>
    <g id="text_17">
     <!-- 1e11 -->
     <g style="fill:#55a868;" transform="translate(433.12475 39.70125)scale(0.2 -0.2)">
      <use xlink:href="#STIXGeneral-Regular-31"/>
      <use x="49.999985" xlink:href="#STIXGeneral-Regular-65"/>
      <use x="94.399979" xlink:href="#STIXGeneral-Regular-31"/>
      <use x="144.399963" xlink:href="#STIXGeneral-Regular-31"/>
     </g>
    </g>
   </g>
   <g id="line2d_15">
    <path clip-path="url(#p77a17bd29f)" d="M 138.26875 68.103849 
L 139.39586 77.874079 
L 141.65008 103.928026 
L 142.77719 113.698257 
L 143.9043 126.72523 
L 146.15852 146.265691 
L 147.285629 152.779178 
L 148.412739 162.549408 
L 155.175399 201.630329 
L 156.302509 204.887072 
L 157.429619 211.400559 
L 158.556729 214.657303 
L 159.683839 221.170789 
L 160.810949 224.427533 
L 161.938059 230.94102 
L 163.065168 234.197763 
L 164.192278 240.71125 
L 173.209158 266.765197 
L 174.336268 266.765197 
L 176.590488 273.278684 
L 177.717598 273.278684 
L 178.844707 276.535428 
L 179.971817 276.535428 
L 181.098927 279.792171 
L 182.226037 279.792171 
L 183.353147 283.048914 
L 184.480257 283.048914 
L 185.607367 286.305658 
L 187.861587 286.305658 
L 188.988697 289.562401 
L 194.624246 289.562401 
L 195.751356 286.305658 
L 196.878466 286.305658 
L 199.132686 279.792171 
L 200.259796 273.278684 
L 201.386906 230.94102 
L 202.514016 253.738224 
L 203.641126 136.495461 
L 204.768236 116.955 
L 205.895346 103.928026 
L 208.149566 84.387566 
L 211.530895 64.847105 
L 214.912225 55.076875 
L 219.420665 55.076875 
L 220.547775 58.333618 
L 221.674885 58.333618 
L 223.929105 64.847105 
L 226.183324 77.874079 
L 227.310434 81.130822 
L 228.437544 87.644309 
L 229.564654 90.901053 
L 230.691764 100.671283 
L 232.945984 107.18477 
L 235.200204 120.211743 
L 236.327314 123.468487 
L 237.454424 129.981974 
L 238.581534 133.238717 
L 239.708644 139.752204 
L 241.962863 146.265691 
L 243.089973 152.779178 
L 245.344193 159.292664 
L 246.471303 165.806151 
L 249.852633 175.576382 
L 250.979743 182.089868 
L 264.505062 221.170789 
L 265.632172 221.170789 
L 271.267722 237.454507 
L 272.394832 237.454507 
L 275.776161 247.224737 
L 276.903271 247.224737 
L 278.030381 250.48148 
L 279.157491 250.48148 
L 281.411711 256.994967 
L 282.538821 256.994967 
L 283.665931 260.251711 
L 284.793041 260.251711 
L 285.920151 263.508454 
L 287.047261 263.508454 
L 288.174371 266.765197 
L 289.30148 266.765197 
L 290.42859 270.021941 
L 291.5557 270.021941 
L 292.68281 273.278684 
L 294.93703 273.278684 
L 296.06414 276.535428 
L 297.19125 276.535428 
L 298.31836 279.792171 
L 301.69969 279.792171 
L 302.8268 283.048914 
L 307.335239 283.048914 
L 308.462349 286.305658 
L 310.716569 286.305658 
L 311.843679 283.048914 
L 312.970789 286.305658 
L 314.097899 283.048914 
L 317.479229 263.508454 
L 321.987668 250.48148 
L 323.114778 250.48148 
L 324.241888 247.224737 
L 326.496108 247.224737 
L 327.623218 243.967993 
L 343.402757 243.967993 
L 344.529867 247.224737 
L 347.911197 247.224737 
L 349.038307 250.48148 
L 352.419637 250.48148 
L 353.546746 253.738224 
L 355.800966 253.738224 
L 356.928076 256.994967 
L 359.182296 256.994967 
L 360.309406 260.251711 
L 362.563626 260.251711 
L 363.690736 263.508454 
L 364.817846 263.508454 
L 365.944956 266.765197 
L 368.199176 266.765197 
L 369.326285 270.021941 
L 371.580505 270.021941 
L 372.707615 273.278684 
L 374.961835 273.278684 
L 376.088945 276.535428 
L 378.343165 276.535428 
L 379.470275 279.792171 
L 381.724495 279.792171 
L 382.851605 283.048914 
L 385.105824 283.048914 
L 386.232934 286.305658 
L 388.487154 286.305658 
L 389.614264 289.562401 
L 391.868484 289.562401 
L 392.995594 292.819145 
L 396.376924 292.819145 
L 397.504034 296.075888 
L 400.885363 296.075888 
L 402.012473 299.332632 
L 408.775133 299.332632 
L 409.902243 302.589375 
L 412.156463 302.589375 
L 413.283573 296.075888 
L 414.410683 296.075888 
L 415.537793 292.819145 
L 418.919122 292.819145 
L 420.046232 289.562401 
L 425.681782 289.562401 
L 426.808892 286.305658 
L 427.936002 289.562401 
L 429.063112 286.305658 
L 430.190222 286.305658 
L 431.317332 289.562401 
L 443.715541 289.562401 
L 444.842651 292.819145 
L 451.60531 292.819145 
L 452.73242 296.075888 
L 456.11375 296.075888 
L 456.11375 296.075888 
" style="fill:none;stroke:#55a868;stroke-linecap:round;stroke-width:1.75;"/>
    <defs>
     <path d="M 0 3.5 
C 0.928211 3.5 1.81853 3.131218 2.474874 2.474874 
C 3.131218 1.81853 3.5 0.928211 3.5 0 
C 3.5 -0.928211 3.131218 -1.81853 2.474874 -2.474874 
C 1.81853 -3.131218 0.928211 -3.5 0 -3.5 
C -0.928211 -3.5 -1.81853 -3.131218 -2.474874 -2.474874 
C -3.131218 -1.81853 -3.5 -0.928211 -3.5 0 
C -3.5 0.928211 -3.131218 1.81853 -2.474874 2.474874 
C -1.81853 3.131218 -0.928211 3.5 0 3.5 
z
" id="mebbecf96b8"/>
    </defs>
    <g clip-path="url(#p77a17bd29f)">
     <use style="fill:#55a868;" x="138.26875" xlink:href="#mebbecf96b8" y="68.103849"/>
     <use style="fill:#55a868;" x="139.39586" xlink:href="#mebbecf96b8" y="77.874079"/>
     <use style="fill:#55a868;" x="140.52297" xlink:href="#mebbecf96b8" y="90.901053"/>
     <use style="fill:#55a868;" x="141.65008" xlink:href="#mebbecf96b8" y="103.928026"/>
     <use style="fill:#55a868;" x="142.77719" xlink:href="#mebbecf96b8" y="113.698257"/>
     <use style="fill:#55a868;" x="143.9043" xlink:href="#mebbecf96b8" y="126.72523"/>
     <use style="fill:#55a868;" x="145.03141" xlink:href="#mebbecf96b8" y="136.495461"/>
     <use style="fill:#55a868;" x="146.15852" xlink:href="#mebbecf96b8" y="146.265691"/>
     <use style="fill:#55a868;" x="147.285629" xlink:href="#mebbecf96b8" y="152.779178"/>
     <use style="fill:#55a868;" x="148.412739" xlink:href="#mebbecf96b8" y="162.549408"/>
     <use style="fill:#55a868;" x="149.539849" xlink:href="#mebbecf96b8" y="169.062895"/>
     <use style="fill:#55a868;" x="150.666959" xlink:href="#mebbecf96b8" y="175.576382"/>
     <use style="fill:#55a868;" x="151.794069" xlink:href="#mebbecf96b8" y="182.089868"/>
     <use style="fill:#55a868;" x="152.921179" xlink:href="#mebbecf96b8" y="188.603355"/>
     <use style="fill:#55a868;" x="154.048289" xlink:href="#mebbecf96b8" y="195.116842"/>
     <use style="fill:#55a868;" x="155.175399" xlink:href="#mebbecf96b8" y="201.630329"/>
     <use style="fill:#55a868;" x="156.302509" xlink:href="#mebbecf96b8" y="204.887072"/>
     <use style="fill:#55a868;" x="157.429619" xlink:href="#mebbecf96b8" y="211.400559"/>
     <use style="fill:#55a868;" x="158.556729" xlink:href="#mebbecf96b8" y="214.657303"/>
     <use style="fill:#55a868;" x="159.683839" xlink:href="#mebbecf96b8" y="221.170789"/>
     <use style="fill:#55a868;" x="160.810949" xlink:href="#mebbecf96b8" y="224.427533"/>
     <use style="fill:#55a868;" x="161.938059" xlink:href="#mebbecf96b8" y="230.94102"/>
     <use style="fill:#55a868;" x="163.065168" xlink:href="#mebbecf96b8" y="234.197763"/>
     <use style="fill:#55a868;" x="164.192278" xlink:href="#mebbecf96b8" y="240.71125"/>
     <use style="fill:#55a868;" x="165.319388" xlink:href="#mebbecf96b8" y="243.967993"/>
     <use style="fill:#55a868;" x="166.446498" xlink:href="#mebbecf96b8" y="247.224737"/>
     <use style="fill:#55a868;" x="167.573608" xlink:href="#mebbecf96b8" y="250.48148"/>
     <use style="fill:#55a868;" x="168.700718" xlink:href="#mebbecf96b8" y="253.738224"/>
     <use style="fill:#55a868;" x="169.827828" xlink:href="#mebbecf96b8" y="256.994967"/>
     <use style="fill:#55a868;" x="170.954938" xlink:href="#mebbecf96b8" y="260.251711"/>
     <use style="fill:#55a868;" x="172.082048" xlink:href="#mebbecf96b8" y="263.508454"/>
     <use style="fill:#55a868;" x="173.209158" xlink:href="#mebbecf96b8" y="266.765197"/>
     <use style="fill:#55a868;" x="174.336268" xlink:href="#mebbecf96b8" y="266.765197"/>
     <use style="fill:#55a868;" x="175.463378" xlink:href="#mebbecf96b8" y="270.021941"/>
     <use style="fill:#55a868;" x="176.590488" xlink:href="#mebbecf96b8" y="273.278684"/>
     <use style="fill:#55a868;" x="177.717598" xlink:href="#mebbecf96b8" y="273.278684"/>
     <use style="fill:#55a868;" x="178.844707" xlink:href="#mebbecf96b8" y="276.535428"/>
     <use style="fill:#55a868;" x="179.971817" xlink:href="#mebbecf96b8" y="276.535428"/>
     <use style="fill:#55a868;" x="181.098927" xlink:href="#mebbecf96b8" y="279.792171"/>
     <use style="fill:#55a868;" x="182.226037" xlink:href="#mebbecf96b8" y="279.792171"/>
     <use style="fill:#55a868;" x="183.353147" xlink:href="#mebbecf96b8" y="283.048914"/>
     <use style="fill:#55a868;" x="184.480257" xlink:href="#mebbecf96b8" y="283.048914"/>
     <use style="fill:#55a868;" x="185.607367" xlink:href="#mebbecf96b8" y="286.305658"/>
     <use style="fill:#55a868;" x="186.734477" xlink:href="#mebbecf96b8" y="286.305658"/>
     <use style="fill:#55a868;" x="187.861587" xlink:href="#mebbecf96b8" y="286.305658"/>
     <use style="fill:#55a868;" x="188.988697" xlink:href="#mebbecf96b8" y="289.562401"/>
     <use style="fill:#55a868;" x="190.115807" xlink:href="#mebbecf96b8" y="289.562401"/>
     <use style="fill:#55a868;" x="191.242917" xlink:href="#mebbecf96b8" y="289.562401"/>
     <use style="fill:#55a868;" x="192.370027" xlink:href="#mebbecf96b8" y="289.562401"/>
     <use style="fill:#55a868;" x="193.497137" xlink:href="#mebbecf96b8" y="289.562401"/>
     <use style="fill:#55a868;" x="194.624246" xlink:href="#mebbecf96b8" y="289.562401"/>
     <use style="fill:#55a868;" x="195.751356" xlink:href="#mebbecf96b8" y="286.305658"/>
     <use style="fill:#55a868;" x="196.878466" xlink:href="#mebbecf96b8" y="286.305658"/>
     <use style="fill:#55a868;" x="198.005576" xlink:href="#mebbecf96b8" y="283.048914"/>
     <use style="fill:#55a868;" x="199.132686" xlink:href="#mebbecf96b8" y="279.792171"/>
     <use style="fill:#55a868;" x="200.259796" xlink:href="#mebbecf96b8" y="273.278684"/>
     <use style="fill:#55a868;" x="201.386906" xlink:href="#mebbecf96b8" y="230.94102"/>
     <use style="fill:#55a868;" x="202.514016" xlink:href="#mebbecf96b8" y="253.738224"/>
     <use style="fill:#55a868;" x="203.641126" xlink:href="#mebbecf96b8" y="136.495461"/>
     <use style="fill:#55a868;" x="204.768236" xlink:href="#mebbecf96b8" y="116.955"/>
     <use style="fill:#55a868;" x="205.895346" xlink:href="#mebbecf96b8" y="103.928026"/>
     <use style="fill:#55a868;" x="207.022456" xlink:href="#mebbecf96b8" y="94.157796"/>
     <use style="fill:#55a868;" x="208.149566" xlink:href="#mebbecf96b8" y="84.387566"/>
     <use style="fill:#55a868;" x="209.276676" xlink:href="#mebbecf96b8" y="77.874079"/>
     <use style="fill:#55a868;" x="210.403785" xlink:href="#mebbecf96b8" y="71.360592"/>
     <use style="fill:#55a868;" x="211.530895" xlink:href="#mebbecf96b8" y="64.847105"/>
     <use style="fill:#55a868;" x="212.658005" xlink:href="#mebbecf96b8" y="61.590362"/>
     <use style="fill:#55a868;" x="213.785115" xlink:href="#mebbecf96b8" y="58.333618"/>
     <use style="fill:#55a868;" x="214.912225" xlink:href="#mebbecf96b8" y="55.076875"/>
     <use style="fill:#55a868;" x="216.039335" xlink:href="#mebbecf96b8" y="55.076875"/>
     <use style="fill:#55a868;" x="217.166445" xlink:href="#mebbecf96b8" y="55.076875"/>
     <use style="fill:#55a868;" x="218.293555" xlink:href="#mebbecf96b8" y="55.076875"/>
     <use style="fill:#55a868;" x="219.420665" xlink:href="#mebbecf96b8" y="55.076875"/>
     <use style="fill:#55a868;" x="220.547775" xlink:href="#mebbecf96b8" y="58.333618"/>
     <use style="fill:#55a868;" x="221.674885" xlink:href="#mebbecf96b8" y="58.333618"/>
     <use style="fill:#55a868;" x="222.801995" xlink:href="#mebbecf96b8" y="61.590362"/>
     <use style="fill:#55a868;" x="223.929105" xlink:href="#mebbecf96b8" y="64.847105"/>
     <use style="fill:#55a868;" x="225.056215" xlink:href="#mebbecf96b8" y="71.360592"/>
     <use style="fill:#55a868;" x="226.183324" xlink:href="#mebbecf96b8" y="77.874079"/>
     <use style="fill:#55a868;" x="227.310434" xlink:href="#mebbecf96b8" y="81.130822"/>
     <use style="fill:#55a868;" x="228.437544" xlink:href="#mebbecf96b8" y="87.644309"/>
     <use style="fill:#55a868;" x="229.564654" xlink:href="#mebbecf96b8" y="90.901053"/>
     <use style="fill:#55a868;" x="230.691764" xlink:href="#mebbecf96b8" y="100.671283"/>
     <use style="fill:#55a868;" x="231.818874" xlink:href="#mebbecf96b8" y="103.928026"/>
     <use style="fill:#55a868;" x="232.945984" xlink:href="#mebbecf96b8" y="107.18477"/>
     <use style="fill:#55a868;" x="234.073094" xlink:href="#mebbecf96b8" y="113.698257"/>
     <use style="fill:#55a868;" x="235.200204" xlink:href="#mebbecf96b8" y="120.211743"/>
     <use style="fill:#55a868;" x="236.327314" xlink:href="#mebbecf96b8" y="123.468487"/>
     <use style="fill:#55a868;" x="237.454424" xlink:href="#mebbecf96b8" y="129.981974"/>
     <use style="fill:#55a868;" x="238.581534" xlink:href="#mebbecf96b8" y="133.238717"/>
     <use style="fill:#55a868;" x="239.708644" xlink:href="#mebbecf96b8" y="139.752204"/>
     <use style="fill:#55a868;" x="240.835754" xlink:href="#mebbecf96b8" y="143.008947"/>
     <use style="fill:#55a868;" x="241.962863" xlink:href="#mebbecf96b8" y="146.265691"/>
     <use style="fill:#55a868;" x="243.089973" xlink:href="#mebbecf96b8" y="152.779178"/>
     <use style="fill:#55a868;" x="244.217083" xlink:href="#mebbecf96b8" y="156.035921"/>
     <use style="fill:#55a868;" x="245.344193" xlink:href="#mebbecf96b8" y="159.292664"/>
     <use style="fill:#55a868;" x="246.471303" xlink:href="#mebbecf96b8" y="165.806151"/>
     <use style="fill:#55a868;" x="247.598413" xlink:href="#mebbecf96b8" y="169.062895"/>
     <use style="fill:#55a868;" x="248.725523" xlink:href="#mebbecf96b8" y="172.319638"/>
     <use style="fill:#55a868;" x="249.852633" xlink:href="#mebbecf96b8" y="175.576382"/>
     <use style="fill:#55a868;" x="250.979743" xlink:href="#mebbecf96b8" y="182.089868"/>
     <use style="fill:#55a868;" x="252.106853" xlink:href="#mebbecf96b8" y="185.346612"/>
     <use style="fill:#55a868;" x="253.233963" xlink:href="#mebbecf96b8" y="188.603355"/>
     <use style="fill:#55a868;" x="254.361073" xlink:href="#mebbecf96b8" y="191.860099"/>
     <use style="fill:#55a868;" x="255.488183" xlink:href="#mebbecf96b8" y="195.116842"/>
     <use style="fill:#55a868;" x="256.615293" xlink:href="#mebbecf96b8" y="198.373586"/>
     <use style="fill:#55a868;" x="257.742402" xlink:href="#mebbecf96b8" y="201.630329"/>
     <use style="fill:#55a868;" x="258.869512" xlink:href="#mebbecf96b8" y="204.887072"/>
     <use style="fill:#55a868;" x="259.996622" xlink:href="#mebbecf96b8" y="208.143816"/>
     <use style="fill:#55a868;" x="261.123732" xlink:href="#mebbecf96b8" y="211.400559"/>
     <use style="fill:#55a868;" x="262.250842" xlink:href="#mebbecf96b8" y="214.657303"/>
     <use style="fill:#55a868;" x="263.377952" xlink:href="#mebbecf96b8" y="217.914046"/>
     <use style="fill:#55a868;" x="264.505062" xlink:href="#mebbecf96b8" y="221.170789"/>
     <use style="fill:#55a868;" x="265.632172" xlink:href="#mebbecf96b8" y="221.170789"/>
     <use style="fill:#55a868;" x="266.759282" xlink:href="#mebbecf96b8" y="224.427533"/>
     <use style="fill:#55a868;" x="267.886392" xlink:href="#mebbecf96b8" y="227.684276"/>
     <use style="fill:#55a868;" x="269.013502" xlink:href="#mebbecf96b8" y="230.94102"/>
     <use style="fill:#55a868;" x="270.140612" xlink:href="#mebbecf96b8" y="234.197763"/>
     <use style="fill:#55a868;" x="271.267722" xlink:href="#mebbecf96b8" y="237.454507"/>
     <use style="fill:#55a868;" x="272.394832" xlink:href="#mebbecf96b8" y="237.454507"/>
     <use style="fill:#55a868;" x="273.521941" xlink:href="#mebbecf96b8" y="240.71125"/>
     <use style="fill:#55a868;" x="274.649051" xlink:href="#mebbecf96b8" y="243.967993"/>
     <use style="fill:#55a868;" x="275.776161" xlink:href="#mebbecf96b8" y="247.224737"/>
     <use style="fill:#55a868;" x="276.903271" xlink:href="#mebbecf96b8" y="247.224737"/>
     <use style="fill:#55a868;" x="278.030381" xlink:href="#mebbecf96b8" y="250.48148"/>
     <use style="fill:#55a868;" x="279.157491" xlink:href="#mebbecf96b8" y="250.48148"/>
     <use style="fill:#55a868;" x="280.284601" xlink:href="#mebbecf96b8" y="253.738224"/>
     <use style="fill:#55a868;" x="281.411711" xlink:href="#mebbecf96b8" y="256.994967"/>
     <use style="fill:#55a868;" x="282.538821" xlink:href="#mebbecf96b8" y="256.994967"/>
     <use style="fill:#55a868;" x="283.665931" xlink:href="#mebbecf96b8" y="260.251711"/>
     <use style="fill:#55a868;" x="284.793041" xlink:href="#mebbecf96b8" y="260.251711"/>
     <use style="fill:#55a868;" x="285.920151" xlink:href="#mebbecf96b8" y="263.508454"/>
     <use style="fill:#55a868;" x="287.047261" xlink:href="#mebbecf96b8" y="263.508454"/>
     <use style="fill:#55a868;" x="288.174371" xlink:href="#mebbecf96b8" y="266.765197"/>
     <use style="fill:#55a868;" x="289.30148" xlink:href="#mebbecf96b8" y="266.765197"/>
     <use style="fill:#55a868;" x="290.42859" xlink:href="#mebbecf96b8" y="270.021941"/>
     <use style="fill:#55a868;" x="291.5557" xlink:href="#mebbecf96b8" y="270.021941"/>
     <use style="fill:#55a868;" x="292.68281" xlink:href="#mebbecf96b8" y="273.278684"/>
     <use style="fill:#55a868;" x="293.80992" xlink:href="#mebbecf96b8" y="273.278684"/>
     <use style="fill:#55a868;" x="294.93703" xlink:href="#mebbecf96b8" y="273.278684"/>
     <use style="fill:#55a868;" x="296.06414" xlink:href="#mebbecf96b8" y="276.535428"/>
     <use style="fill:#55a868;" x="297.19125" xlink:href="#mebbecf96b8" y="276.535428"/>
     <use style="fill:#55a868;" x="298.31836" xlink:href="#mebbecf96b8" y="279.792171"/>
     <use style="fill:#55a868;" x="299.44547" xlink:href="#mebbecf96b8" y="279.792171"/>
     <use style="fill:#55a868;" x="300.57258" xlink:href="#mebbecf96b8" y="279.792171"/>
     <use style="fill:#55a868;" x="301.69969" xlink:href="#mebbecf96b8" y="279.792171"/>
     <use style="fill:#55a868;" x="302.8268" xlink:href="#mebbecf96b8" y="283.048914"/>
     <use style="fill:#55a868;" x="303.95391" xlink:href="#mebbecf96b8" y="283.048914"/>
     <use style="fill:#55a868;" x="305.08102" xlink:href="#mebbecf96b8" y="283.048914"/>
     <use style="fill:#55a868;" x="306.208129" xlink:href="#mebbecf96b8" y="283.048914"/>
     <use style="fill:#55a868;" x="307.335239" xlink:href="#mebbecf96b8" y="283.048914"/>
     <use style="fill:#55a868;" x="308.462349" xlink:href="#mebbecf96b8" y="286.305658"/>
     <use style="fill:#55a868;" x="309.589459" xlink:href="#mebbecf96b8" y="286.305658"/>
     <use style="fill:#55a868;" x="310.716569" xlink:href="#mebbecf96b8" y="286.305658"/>
     <use style="fill:#55a868;" x="311.843679" xlink:href="#mebbecf96b8" y="283.048914"/>
     <use style="fill:#55a868;" x="312.970789" xlink:href="#mebbecf96b8" y="286.305658"/>
     <use style="fill:#55a868;" x="314.097899" xlink:href="#mebbecf96b8" y="283.048914"/>
     <use style="fill:#55a868;" x="315.225009" xlink:href="#mebbecf96b8" y="276.535428"/>
     <use style="fill:#55a868;" x="316.352119" xlink:href="#mebbecf96b8" y="270.021941"/>
     <use style="fill:#55a868;" x="317.479229" xlink:href="#mebbecf96b8" y="263.508454"/>
     <use style="fill:#55a868;" x="318.606339" xlink:href="#mebbecf96b8" y="260.251711"/>
     <use style="fill:#55a868;" x="319.733449" xlink:href="#mebbecf96b8" y="256.994967"/>
     <use style="fill:#55a868;" x="320.860559" xlink:href="#mebbecf96b8" y="253.738224"/>
     <use style="fill:#55a868;" x="321.987668" xlink:href="#mebbecf96b8" y="250.48148"/>
     <use style="fill:#55a868;" x="323.114778" xlink:href="#mebbecf96b8" y="250.48148"/>
     <use style="fill:#55a868;" x="324.241888" xlink:href="#mebbecf96b8" y="247.224737"/>
     <use style="fill:#55a868;" x="325.368998" xlink:href="#mebbecf96b8" y="247.224737"/>
     <use style="fill:#55a868;" x="326.496108" xlink:href="#mebbecf96b8" y="247.224737"/>
     <use style="fill:#55a868;" x="327.623218" xlink:href="#mebbecf96b8" y="243.967993"/>
     <use style="fill:#55a868;" x="328.750328" xlink:href="#mebbecf96b8" y="243.967993"/>
     <use style="fill:#55a868;" x="329.877438" xlink:href="#mebbecf96b8" y="243.967993"/>
     <use style="fill:#55a868;" x="331.004548" xlink:href="#mebbecf96b8" y="243.967993"/>
     <use style="fill:#55a868;" x="332.131658" xlink:href="#mebbecf96b8" y="243.967993"/>
     <use style="fill:#55a868;" x="333.258768" xlink:href="#mebbecf96b8" y="243.967993"/>
     <use style="fill:#55a868;" x="334.385878" xlink:href="#mebbecf96b8" y="243.967993"/>
     <use style="fill:#55a868;" x="335.512988" xlink:href="#mebbecf96b8" y="243.967993"/>
     <use style="fill:#55a868;" x="336.640098" xlink:href="#mebbecf96b8" y="243.967993"/>
     <use style="fill:#55a868;" x="337.767207" xlink:href="#mebbecf96b8" y="243.967993"/>
     <use style="fill:#55a868;" x="338.894317" xlink:href="#mebbecf96b8" y="243.967993"/>
     <use style="fill:#55a868;" x="340.021427" xlink:href="#mebbecf96b8" y="243.967993"/>
     <use style="fill:#55a868;" x="341.148537" xlink:href="#mebbecf96b8" y="243.967993"/>
     <use style="fill:#55a868;" x="342.275647" xlink:href="#mebbecf96b8" y="243.967993"/>
     <use style="fill:#55a868;" x="343.402757" xlink:href="#mebbecf96b8" y="243.967993"/>
     <use style="fill:#55a868;" x="344.529867" xlink:href="#mebbecf96b8" y="247.224737"/>
     <use style="fill:#55a868;" x="345.656977" xlink:href="#mebbecf96b8" y="247.224737"/>
     <use style="fill:#55a868;" x="346.784087" xlink:href="#mebbecf96b8" y="247.224737"/>
     <use style="fill:#55a868;" x="347.911197" xlink:href="#mebbecf96b8" y="247.224737"/>
     <use style="fill:#55a868;" x="349.038307" xlink:href="#mebbecf96b8" y="250.48148"/>
     <use style="fill:#55a868;" x="350.165417" xlink:href="#mebbecf96b8" y="250.48148"/>
     <use style="fill:#55a868;" x="351.292527" xlink:href="#mebbecf96b8" y="250.48148"/>
     <use style="fill:#55a868;" x="352.419637" xlink:href="#mebbecf96b8" y="250.48148"/>
     <use style="fill:#55a868;" x="353.546746" xlink:href="#mebbecf96b8" y="253.738224"/>
     <use style="fill:#55a868;" x="354.673856" xlink:href="#mebbecf96b8" y="253.738224"/>
     <use style="fill:#55a868;" x="355.800966" xlink:href="#mebbecf96b8" y="253.738224"/>
     <use style="fill:#55a868;" x="356.928076" xlink:href="#mebbecf96b8" y="256.994967"/>
     <use style="fill:#55a868;" x="358.055186" xlink:href="#mebbecf96b8" y="256.994967"/>
     <use style="fill:#55a868;" x="359.182296" xlink:href="#mebbecf96b8" y="256.994967"/>
     <use style="fill:#55a868;" x="360.309406" xlink:href="#mebbecf96b8" y="260.251711"/>
     <use style="fill:#55a868;" x="361.436516" xlink:href="#mebbecf96b8" y="260.251711"/>
     <use style="fill:#55a868;" x="362.563626" xlink:href="#mebbecf96b8" y="260.251711"/>
     <use style="fill:#55a868;" x="363.690736" xlink:href="#mebbecf96b8" y="263.508454"/>
     <use style="fill:#55a868;" x="364.817846" xlink:href="#mebbecf96b8" y="263.508454"/>
     <use style="fill:#55a868;" x="365.944956" xlink:href="#mebbecf96b8" y="266.765197"/>
     <use style="fill:#55a868;" x="367.072066" xlink:href="#mebbecf96b8" y="266.765197"/>
     <use style="fill:#55a868;" x="368.199176" xlink:href="#mebbecf96b8" y="266.765197"/>
     <use style="fill:#55a868;" x="369.326285" xlink:href="#mebbecf96b8" y="270.021941"/>
     <use style="fill:#55a868;" x="370.453395" xlink:href="#mebbecf96b8" y="270.021941"/>
     <use style="fill:#55a868;" x="371.580505" xlink:href="#mebbecf96b8" y="270.021941"/>
     <use style="fill:#55a868;" x="372.707615" xlink:href="#mebbecf96b8" y="273.278684"/>
     <use style="fill:#55a868;" x="373.834725" xlink:href="#mebbecf96b8" y="273.278684"/>
     <use style="fill:#55a868;" x="374.961835" xlink:href="#mebbecf96b8" y="273.278684"/>
     <use style="fill:#55a868;" x="376.088945" xlink:href="#mebbecf96b8" y="276.535428"/>
     <use style="fill:#55a868;" x="377.216055" xlink:href="#mebbecf96b8" y="276.535428"/>
     <use style="fill:#55a868;" x="378.343165" xlink:href="#mebbecf96b8" y="276.535428"/>
     <use style="fill:#55a868;" x="379.470275" xlink:href="#mebbecf96b8" y="279.792171"/>
     <use style="fill:#55a868;" x="380.597385" xlink:href="#mebbecf96b8" y="279.792171"/>
     <use style="fill:#55a868;" x="381.724495" xlink:href="#mebbecf96b8" y="279.792171"/>
     <use style="fill:#55a868;" x="382.851605" xlink:href="#mebbecf96b8" y="283.048914"/>
     <use style="fill:#55a868;" x="383.978715" xlink:href="#mebbecf96b8" y="283.048914"/>
     <use style="fill:#55a868;" x="385.105824" xlink:href="#mebbecf96b8" y="283.048914"/>
     <use style="fill:#55a868;" x="386.232934" xlink:href="#mebbecf96b8" y="286.305658"/>
     <use style="fill:#55a868;" x="387.360044" xlink:href="#mebbecf96b8" y="286.305658"/>
     <use style="fill:#55a868;" x="388.487154" xlink:href="#mebbecf96b8" y="286.305658"/>
     <use style="fill:#55a868;" x="389.614264" xlink:href="#mebbecf96b8" y="289.562401"/>
     <use style="fill:#55a868;" x="390.741374" xlink:href="#mebbecf96b8" y="289.562401"/>
     <use style="fill:#55a868;" x="391.868484" xlink:href="#mebbecf96b8" y="289.562401"/>
     <use style="fill:#55a868;" x="392.995594" xlink:href="#mebbecf96b8" y="292.819145"/>
     <use style="fill:#55a868;" x="394.122704" xlink:href="#mebbecf96b8" y="292.819145"/>
     <use style="fill:#55a868;" x="395.249814" xlink:href="#mebbecf96b8" y="292.819145"/>
     <use style="fill:#55a868;" x="396.376924" xlink:href="#mebbecf96b8" y="292.819145"/>
     <use style="fill:#55a868;" x="397.504034" xlink:href="#mebbecf96b8" y="296.075888"/>
     <use style="fill:#55a868;" x="398.631144" xlink:href="#mebbecf96b8" y="296.075888"/>
     <use style="fill:#55a868;" x="399.758254" xlink:href="#mebbecf96b8" y="296.075888"/>
     <use style="fill:#55a868;" x="400.885363" xlink:href="#mebbecf96b8" y="296.075888"/>
     <use style="fill:#55a868;" x="402.012473" xlink:href="#mebbecf96b8" y="299.332632"/>
     <use style="fill:#55a868;" x="403.139583" xlink:href="#mebbecf96b8" y="299.332632"/>
     <use style="fill:#55a868;" x="404.266693" xlink:href="#mebbecf96b8" y="299.332632"/>
     <use style="fill:#55a868;" x="405.393803" xlink:href="#mebbecf96b8" y="299.332632"/>
     <use style="fill:#55a868;" x="406.520913" xlink:href="#mebbecf96b8" y="299.332632"/>
     <use style="fill:#55a868;" x="407.648023" xlink:href="#mebbecf96b8" y="299.332632"/>
     <use style="fill:#55a868;" x="408.775133" xlink:href="#mebbecf96b8" y="299.332632"/>
     <use style="fill:#55a868;" x="409.902243" xlink:href="#mebbecf96b8" y="302.589375"/>
     <use style="fill:#55a868;" x="411.029353" xlink:href="#mebbecf96b8" y="302.589375"/>
     <use style="fill:#55a868;" x="412.156463" xlink:href="#mebbecf96b8" y="302.589375"/>
     <use style="fill:#55a868;" x="413.283573" xlink:href="#mebbecf96b8" y="296.075888"/>
     <use style="fill:#55a868;" x="414.410683" xlink:href="#mebbecf96b8" y="296.075888"/>
     <use style="fill:#55a868;" x="415.537793" xlink:href="#mebbecf96b8" y="292.819145"/>
     <use style="fill:#55a868;" x="416.664902" xlink:href="#mebbecf96b8" y="292.819145"/>
     <use style="fill:#55a868;" x="417.792012" xlink:href="#mebbecf96b8" y="292.819145"/>
     <use style="fill:#55a868;" x="418.919122" xlink:href="#mebbecf96b8" y="292.819145"/>
     <use style="fill:#55a868;" x="420.046232" xlink:href="#mebbecf96b8" y="289.562401"/>
     <use style="fill:#55a868;" x="421.173342" xlink:href="#mebbecf96b8" y="289.562401"/>
     <use style="fill:#55a868;" x="422.300452" xlink:href="#mebbecf96b8" y="289.562401"/>
     <use style="fill:#55a868;" x="423.427562" xlink:href="#mebbecf96b8" y="289.562401"/>
     <use style="fill:#55a868;" x="424.554672" xlink:href="#mebbecf96b8" y="289.562401"/>
     <use style="fill:#55a868;" x="425.681782" xlink:href="#mebbecf96b8" y="289.562401"/>
     <use style="fill:#55a868;" x="426.808892" xlink:href="#mebbecf96b8" y="286.305658"/>
     <use style="fill:#55a868;" x="427.936002" xlink:href="#mebbecf96b8" y="289.562401"/>
     <use style="fill:#55a868;" x="429.063112" xlink:href="#mebbecf96b8" y="286.305658"/>
     <use style="fill:#55a868;" x="430.190222" xlink:href="#mebbecf96b8" y="286.305658"/>
     <use style="fill:#55a868;" x="431.317332" xlink:href="#mebbecf96b8" y="289.562401"/>
     <use style="fill:#55a868;" x="432.444441" xlink:href="#mebbecf96b8" y="289.562401"/>
     <use style="fill:#55a868;" x="433.571551" xlink:href="#mebbecf96b8" y="289.562401"/>
     <use style="fill:#55a868;" x="434.698661" xlink:href="#mebbecf96b8" y="289.562401"/>
     <use style="fill:#55a868;" x="435.825771" xlink:href="#mebbecf96b8" y="289.562401"/>
     <use style="fill:#55a868;" x="436.952881" xlink:href="#mebbecf96b8" y="289.562401"/>
     <use style="fill:#55a868;" x="438.079991" xlink:href="#mebbecf96b8" y="289.562401"/>
     <use style="fill:#55a868;" x="439.207101" xlink:href="#mebbecf96b8" y="289.562401"/>
     <use style="fill:#55a868;" x="440.334211" xlink:href="#mebbecf96b8" y="289.562401"/>
     <use style="fill:#55a868;" x="441.461321" xlink:href="#mebbecf96b8" y="289.562401"/>
     <use style="fill:#55a868;" x="442.588431" xlink:href="#mebbecf96b8" y="289.562401"/>
     <use style="fill:#55a868;" x="443.715541" xlink:href="#mebbecf96b8" y="289.562401"/>
     <use style="fill:#55a868;" x="444.842651" xlink:href="#mebbecf96b8" y="292.819145"/>
     <use style="fill:#55a868;" x="445.969761" xlink:href="#mebbecf96b8" y="292.819145"/>
     <use style="fill:#55a868;" x="447.096871" xlink:href="#mebbecf96b8" y="292.819145"/>
     <use style="fill:#55a868;" x="448.22398" xlink:href="#mebbecf96b8" y="292.819145"/>
     <use style="fill:#55a868;" x="449.35109" xlink:href="#mebbecf96b8" y="292.819145"/>
     <use style="fill:#55a868;" x="450.4782" xlink:href="#mebbecf96b8" y="292.819145"/>
     <use style="fill:#55a868;" x="451.60531" xlink:href="#mebbecf96b8" y="292.819145"/>
     <use style="fill:#55a868;" x="452.73242" xlink:href="#mebbecf96b8" y="296.075888"/>
     <use style="fill:#55a868;" x="453.85953" xlink:href="#mebbecf96b8" y="296.075888"/>
     <use style="fill:#55a868;" x="454.98664" xlink:href="#mebbecf96b8" y="296.075888"/>
     <use style="fill:#55a868;" x="456.11375" xlink:href="#mebbecf96b8" y="296.075888"/>
    </g>
   </g>
   <g id="patch_7">
    <path d="M 122.3765 314.965 
L 122.3765 42.70125 
" style="fill:none;stroke:#262626;stroke-linecap:square;stroke-linejoin:miter;stroke-width:1.25;"/>
   </g>
   <g id="patch_8">
    <path d="M 472.006 314.965 
L 472.006 42.70125 
" style="fill:none;stroke:#262626;stroke-linecap:square;stroke-linejoin:miter;stroke-width:1.25;"/>
   </g>
   <g id="patch_9">
    <path d="M 122.3765 314.965 
L 472.006 314.965 
" style="fill:none;stroke:#262626;stroke-linecap:square;stroke-linejoin:miter;stroke-width:1.25;"/>
   </g>
   <g id="patch_10">
    <path d="M 122.3765 42.70125 
L 472.006 42.70125 
" style="fill:none;stroke:#262626;stroke-linecap:square;stroke-linejoin:miter;stroke-width:1.25;"/>
   </g>
  </g>
 </g>
 <defs>
  <clipPath id="p77a17bd29f">
   <rect height="272.26375" width="349.6295" x="122.3765" y="42.70125"/>
  </clipPath>
 </defs>
</svg>
