<?xml version="1.0" encoding="utf-8" standalone="no"?>
<!DOCTYPE svg PUBLIC "-//W3C//DTD SVG 1.1//EN"
  "http://www.w3.org/Graphics/SVG/1.1/DTD/svg11.dtd">
<!-- Created with matplotlib (http://matplotlib.org/) -->
<svg height="504pt" version="1.1" viewBox="0 0 576 504" width="576pt" xmlns="http://www.w3.org/2000/svg" xmlns:xlink="http://www.w3.org/1999/xlink">
 <defs>
  <style type="text/css">
*{stroke-linecap:butt;stroke-linejoin:round;}
  </style>
 </defs>
 <g id="figure_1">
  <g id="patch_1">
   <path d="M 0 504 
L 576 504 
L 576 0 
L 0 0 
z
" style="fill:#ffffff;"/>
  </g>
  <g id="axes_1">
   <g id="patch_2">
    <path d="M 106.515859 427.53625 
L 471.966907 427.53625 
L 471.966907 13.32 
L 106.515859 13.32 
z
" style="fill:#ffffff;"/>
   </g>
   <g id="matplotlib.axis_1">
    <g id="xtick_1">
     <g id="line2d_1">
      <defs>
       <path d="M 0 0 
L 0 3.5 
" id="m7c260660c7" style="stroke:#1a1a1a;stroke-width:0.8;"/>
      </defs>
      <g>
       <use style="fill:#1a1a1a;stroke:#1a1a1a;stroke-width:0.8;" x="196.955765" xlink:href="#m7c260660c7" y="427.53625"/>
      </g>
     </g>
     <g id="text_1">
      <!-- −100 -->
      <defs>
       <path d="M 62.09375 22 
L 6.40625 22 
L 6.40625 28.59375 
L 62.09375 28.59375 
z
" id="STIXGeneral-Regular-2212"/>
       <path d="M 39.40625 0 
L 11.796875 0 
L 11.796875 1.5 
Q 17.296875 1.796875 19.296875 3.546875 
Q 21.296875 5.296875 21.296875 9.5 
L 21.296875 54.40625 
Q 21.296875 59.296875 18.296875 59.296875 
Q 16.90625 59.296875 13.796875 58.09375 
L 11.09375 57.09375 
L 11.09375 58.5 
L 29 67.59375 
L 29.90625 67.296875 
L 29.90625 7.59375 
Q 29.90625 4.296875 31.90625 2.890625 
Q 33.90625 1.5 39.40625 1.5 
z
" id="STIXGeneral-Regular-31"/>
       <path d="M 47.59375 33 
Q 47.59375 26.296875 46.296875 20.34375 
Q 45 14.40625 42.453125 9.40625 
Q 39.90625 4.40625 35.40625 1.5 
Q 30.90625 -1.40625 25 -1.40625 
Q 18.90625 -1.40625 14.296875 1.6875 
Q 9.703125 4.796875 7.203125 10 
Q 4.703125 15.203125 3.546875 21.09375 
Q 2.40625 27 2.40625 33.59375 
Q 2.40625 42.90625 4.703125 50.34375 
Q 7 57.796875 12.34375 62.6875 
Q 17.703125 67.59375 25.40625 67.59375 
Q 35.203125 67.59375 41.390625 58 
Q 47.59375 48.40625 47.59375 33 
z
M 38 32.5 
Q 38 48.296875 34.640625 56.640625 
Q 31.296875 65 24.796875 65 
Q 18.59375 65 15.296875 56.59375 
Q 12 48.203125 12 32.90625 
Q 12 17.5 15.296875 9.34375 
Q 18.59375 1.203125 25 1.203125 
Q 31.296875 1.203125 34.640625 9.34375 
Q 38 17.5 38 32.5 
z
" id="STIXGeneral-Regular-30"/>
      </defs>
      <g style="fill:#1a1a1a;" transform="translate(166.365765 453.659375)scale(0.28 -0.28)">
       <use xlink:href="#STIXGeneral-Regular-2212"/>
       <use x="68.499985" xlink:href="#STIXGeneral-Regular-31"/>
       <use x="118.499969" xlink:href="#STIXGeneral-Regular-30"/>
       <use x="168.499954" xlink:href="#STIXGeneral-Regular-30"/>
      </g>
     </g>
    </g>
    <g id="xtick_2">
     <g id="line2d_2">
      <g>
       <use style="fill:#1a1a1a;stroke:#1a1a1a;stroke-width:0.8;" x="289.241383" xlink:href="#m7c260660c7" y="427.53625"/>
      </g>
     </g>
     <g id="text_2">
      <!-- 0 -->
      <g style="fill:#1a1a1a;" transform="translate(282.241383 453.659375)scale(0.28 -0.28)">
       <use xlink:href="#STIXGeneral-Regular-30"/>
      </g>
     </g>
    </g>
    <g id="xtick_3">
     <g id="line2d_3">
      <g>
       <use style="fill:#1a1a1a;stroke:#1a1a1a;stroke-width:0.8;" x="381.527001" xlink:href="#m7c260660c7" y="427.53625"/>
      </g>
     </g>
     <g id="text_3">
      <!-- 100 -->
      <g style="fill:#1a1a1a;" transform="translate(360.527001 453.659375)scale(0.28 -0.28)">
       <use xlink:href="#STIXGeneral-Regular-31"/>
       <use x="49.999985" xlink:href="#STIXGeneral-Regular-30"/>
       <use x="99.999969" xlink:href="#STIXGeneral-Regular-30"/>
      </g>
     </g>
    </g>
    <g id="text_4">
     <!-- Time (fs) -->
     <defs>
      <path d="M 59.296875 49.203125 
L 56.90625 49.203125 
Q 55.296875 57.40625 52.390625 59.703125 
Q 49.5 62 41.5 62 
L 35.59375 62 
L 35.59375 11.09375 
Q 35.59375 5.40625 37.296875 3.796875 
Q 39 2.203125 45.203125 1.90625 
L 45.203125 0 
L 16 0 
L 16 1.90625 
Q 22.296875 2.296875 23.84375 4 
Q 25.40625 5.703125 25.40625 12.296875 
L 25.40625 62 
L 19.40625 62 
Q 11.296875 62 8.4375 59.640625 
Q 5.59375 57.296875 4.09375 49.203125 
L 1.703125 49.203125 
L 2.40625 66.203125 
L 58.59375 66.203125 
z
" id="STIXGeneral-Regular-54"/>
      <path d="M 18 63.203125 
Q 18 61 16.5 59.546875 
Q 15 58.09375 12.796875 58.09375 
Q 10.703125 58.09375 9.25 59.546875 
Q 7.796875 61 7.796875 63.203125 
Q 7.796875 65.296875 9.296875 66.796875 
Q 10.796875 68.296875 12.90625 68.296875 
Q 15.09375 68.296875 16.546875 66.796875 
Q 18 65.296875 18 63.203125 
z
M 25.296875 0 
L 1.59375 0 
L 1.59375 1.5 
Q 6.796875 1.796875 8.140625 3.296875 
Q 9.5 4.796875 9.5 10.40625 
L 9.5 33.09375 
Q 9.5 36.59375 8.796875 38 
Q 8.09375 39.40625 6.203125 39.40625 
Q 3.796875 39.40625 2 38.90625 
L 2 40.5 
L 17.5 46 
L 17.90625 45.59375 
L 17.90625 10.5 
Q 17.90625 4.90625 19.15625 3.40625 
Q 20.40625 1.90625 25.296875 1.5 
z
" id="STIXGeneral-Regular-69"/>
      <path d="M 77.5 0 
L 55.703125 0 
L 55.703125 1.5 
Q 59.90625 1.90625 61.046875 3.25 
Q 62.203125 4.59375 62.203125 9 
L 62.203125 29.59375 
Q 62.203125 35.59375 60.453125 38.1875 
Q 58.703125 40.796875 54.5 40.796875 
Q 51 40.796875 48.546875 39.390625 
Q 46.09375 38 43.796875 34.703125 
L 43.796875 9.5 
Q 43.796875 4.703125 45.25 3.140625 
Q 46.703125 1.59375 51 1.5 
L 51 0 
L 28.59375 0 
L 28.59375 1.5 
Q 33 1.796875 34.203125 2.9375 
Q 35.40625 4.09375 35.40625 8.59375 
L 35.40625 29.703125 
Q 35.40625 40.796875 28.90625 40.796875 
Q 26.09375 40.796875 22.9375 39.546875 
Q 19.796875 38.296875 18.296875 36.5 
Q 17 35 17 34.796875 
L 17 7 
Q 17 3.796875 18.390625 2.75 
Q 19.796875 1.703125 23.796875 1.5 
L 23.796875 0 
L 1.59375 0 
L 1.59375 1.5 
Q 5.796875 1.59375 7.1875 3.046875 
Q 8.59375 4.5 8.59375 8.796875 
L 8.59375 33.59375 
Q 8.59375 37.296875 7.796875 38.75 
Q 7 40.203125 5.09375 40.203125 
Q 3.59375 40.203125 1.90625 39.796875 
L 1.90625 41.5 
Q 8.703125 43.40625 15.796875 46 
L 16.59375 45.703125 
L 16.59375 38.296875 
L 16.796875 38.296875 
Q 21.296875 43 24.75 44.5 
Q 28.203125 46 32.09375 46 
Q 40 46 42.703125 37.59375 
Q 50.5 46 59 46 
Q 70.59375 46 70.59375 28 
L 70.59375 7.703125 
Q 70.59375 4.40625 71.59375 3.15625 
Q 72.59375 1.90625 74.90625 1.703125 
L 77.5 1.5 
z
" id="STIXGeneral-Regular-6d"/>
      <path d="M 40.796875 16.40625 
L 42.40625 15.703125 
Q 36.40625 -1 21.5 -1 
Q 12.703125 -1 7.59375 5.140625 
Q 2.5 11.296875 2.5 21.703125 
Q 2.5 32.40625 8.203125 39.203125 
Q 13.90625 46 23.203125 46 
Q 32.203125 46 37.09375 39.09375 
Q 40 35.09375 40.5 27.703125 
L 9.703125 27.703125 
Q 10.09375 21.40625 10.9375 18.09375 
Q 11.796875 14.796875 14.296875 11.40625 
Q 18.5 5.90625 25.40625 5.90625 
Q 30.296875 5.90625 33.640625 8.296875 
Q 37 10.703125 40.796875 16.40625 
z
M 9.90625 30.90625 
L 30.296875 30.90625 
Q 29.40625 37.203125 27.34375 39.796875 
Q 25.296875 42.40625 20.5 42.40625 
Q 16.296875 42.40625 13.5 39.453125 
Q 10.703125 36.5 9.90625 30.90625 
z
" id="STIXGeneral-Regular-65"/>
      <path id="STIXGeneral-Regular-20"/>
      <path d="M 30.40625 -16.09375 
L 29.203125 -17.703125 
Q 17.59375 -11.09375 11.1875 0.5 
Q 4.796875 12.09375 4.796875 25.203125 
Q 4.796875 52.90625 29.5 67.59375 
L 30.40625 66 
Q 20.203125 57.296875 16.796875 48.84375 
Q 13.40625 40.40625 13.40625 25.5 
Q 13.40625 10.703125 16.90625 1.5 
Q 20.40625 -7.703125 30.40625 -16.09375 
z
" id="STIXGeneral-Regular-28"/>
      <path d="M 2.09375 45 
L 10.296875 45 
Q 10.40625 51 11.09375 54.34375 
Q 11.796875 57.703125 13.796875 61.09375 
Q 18 68.296875 27.90625 68.296875 
Q 32.40625 68.296875 35.34375 66.546875 
Q 38.296875 64.796875 38.296875 62.09375 
Q 38.296875 60.40625 37.09375 59.203125 
Q 35.90625 58 34.09375 58 
Q 31.703125 58 29.59375 61.59375 
Q 27.203125 65.5 24.296875 65.5 
Q 18.703125 65.5 18.703125 56.59375 
L 18.703125 45 
L 30.90625 45 
L 30.90625 41.796875 
L 18.703125 41.796875 
L 18.703125 10.40625 
Q 18.703125 4.796875 20.296875 3.25 
Q 21.90625 1.703125 28 1.5 
L 28 0 
L 2 0 
L 2 1.5 
Q 7.40625 1.796875 8.84375 3.34375 
Q 10.296875 4.90625 10.296875 10.40625 
L 10.296875 41.796875 
L 2.09375 41.796875 
z
" id="STIXGeneral-Regular-66"/>
      <path d="M 15.59375 30.09375 
L 26 23.796875 
Q 31 20.796875 32.890625 18.1875 
Q 34.796875 15.59375 34.796875 11.5 
Q 34.796875 6.5 30.640625 2.75 
Q 26.5 -1 20.796875 -1 
Q 16.09375 -1 13.5 -0.09375 
Q 10.796875 0.796875 8.90625 0.796875 
Q 7.203125 0.796875 6.5 -0.40625 
L 5.203125 -0.40625 
L 5.203125 15.296875 
L 6.796875 15.296875 
Q 8.40625 8 11.40625 4.59375 
Q 14.40625 1.203125 19.5 1.203125 
Q 23.203125 1.203125 25.5 3.296875 
Q 27.796875 5.40625 27.796875 8.59375 
Q 27.796875 13.203125 22.5 16.09375 
L 17.09375 19.09375 
Q 5.09375 25.796875 5.09375 33.59375 
Q 5.09375 39.40625 8.84375 42.65625 
Q 12.59375 45.90625 18.90625 45.90625 
Q 23.296875 45.90625 25.59375 44.796875 
Q 27.40625 44 28.40625 44 
Q 29.09375 44 30 45 
L 31.09375 45 
L 31.59375 31.40625 
L 30.09375 31.40625 
Q 28.40625 38.203125 25.84375 40.953125 
Q 23.296875 43.703125 18.796875 43.703125 
Q 15.40625 43.703125 13.34375 42 
Q 11.296875 40.296875 11.296875 36.90625 
Q 11.296875 35.203125 12.4375 33.25 
Q 13.59375 31.296875 15.59375 30.09375 
z
" id="STIXGeneral-Regular-73"/>
      <path d="M 2.90625 66 
L 4.09375 67.59375 
Q 15.5 60.796875 22 49.1875 
Q 28.5 37.59375 28.5 24.703125 
Q 28.5 -2.59375 3.796875 -17.703125 
L 2.90625 -16.09375 
Q 13.203125 -7.59375 16.546875 0.84375 
Q 19.90625 9.296875 19.90625 24.40625 
Q 19.90625 39.59375 16.546875 48.75 
Q 13.203125 57.90625 2.90625 66 
z
" id="STIXGeneral-Regular-29"/>
     </defs>
     <g style="fill:#1a1a1a;" transform="translate(229.258883 485.59125)scale(0.32 -0.32)">
      <use xlink:href="#STIXGeneral-Regular-54"/>
      <use x="61.099991" xlink:href="#STIXGeneral-Regular-69"/>
      <use x="88.899979" xlink:href="#STIXGeneral-Regular-6d"/>
      <use x="166.699966" xlink:href="#STIXGeneral-Regular-65"/>
      <use x="211.09996" xlink:href="#STIXGeneral-Regular-20"/>
      <use x="236.099945" xlink:href="#STIXGeneral-Regular-28"/>
      <use x="269.399933" xlink:href="#STIXGeneral-Regular-66"/>
      <use x="302.699921" xlink:href="#STIXGeneral-Regular-73"/>
      <use x="341.599915" xlink:href="#STIXGeneral-Regular-29"/>
     </g>
    </g>
   </g>
   <g id="matplotlib.axis_2">
    <g id="ytick_1">
     <g id="line2d_4">
      <defs>
       <path d="M 0 0 
L -3.5 0 
" id="mf07d85a969" style="stroke:#1a1a1a;stroke-width:0.8;"/>
      </defs>
      <g>
       <use style="fill:#1a1a1a;stroke:#1a1a1a;stroke-width:0.8;" x="106.515859" xlink:href="#mf07d85a969" y="362.809536"/>
      </g>
     </g>
     <g id="text_5">
      <!-- $\mathdefault{10^{2}}$ -->
      <defs>
       <path d="M 47.40625 13.703125 
L 42 0 
L 2.90625 0 
L 2.90625 1.203125 
L 20.703125 20.09375 
Q 27.703125 27.40625 30.703125 33.5 
Q 33.703125 39.59375 33.703125 46.09375 
Q 33.703125 52.796875 30 56.5 
Q 26.296875 60.203125 19.796875 60.203125 
Q 14.40625 60.203125 11.25 57.390625 
Q 8.09375 54.59375 5.09375 47.203125 
L 3 47.703125 
Q 4.703125 57 9.84375 62.296875 
Q 15 67.59375 23.796875 67.59375 
Q 32.09375 67.59375 37.1875 62.59375 
Q 42.296875 57.59375 42.296875 50 
Q 42.296875 38.703125 29.5 25.203125 
L 13 7.59375 
L 36.40625 7.59375 
Q 39.703125 7.59375 41.640625 8.890625 
Q 43.59375 10.203125 46 14.296875 
z
" id="STIXGeneral-Regular-32"/>
      </defs>
      <g style="fill:#1a1a1a;" transform="translate(59.755859 372.371098)scale(0.28 -0.28)">
       <use transform="translate(0 0.684375)" xlink:href="#STIXGeneral-Regular-31"/>
       <use transform="translate(49.999985 0.684375)" xlink:href="#STIXGeneral-Regular-30"/>
       <use transform="translate(101.574969 36.684375)scale(0.7)" xlink:href="#STIXGeneral-Regular-32"/>
      </g>
     </g>
    </g>
    <g id="ytick_2">
     <g id="line2d_5">
      <g>
       <use style="fill:#1a1a1a;stroke:#1a1a1a;stroke-width:0.8;" x="106.515859" xlink:href="#mf07d85a969" y="287.160658"/>
      </g>
     </g>
     <g id="text_6">
      <!-- $\mathdefault{10^{5}}$ -->
      <defs>
       <path d="M 43.796875 68.09375 
L 40.203125 59.59375 
Q 39.59375 58.296875 37.5 58.296875 
L 18.09375 58.296875 
L 14.09375 49.796875 
Q 25.09375 47.703125 30 45.25 
Q 34.90625 42.796875 39.09375 37 
Q 42.59375 32.203125 42.59375 24.296875 
Q 42.59375 17.09375 40.25 12.1875 
Q 37.90625 7.296875 32.796875 3.5 
Q 26 -1.40625 15.796875 -1.40625 
Q 10.09375 -1.40625 6.59375 0.296875 
Q 3.09375 2 3.09375 4.796875 
Q 3.09375 8.59375 7.59375 8.59375 
Q 11.203125 8.59375 15 5.5 
Q 18.90625 2.296875 22.09375 2.296875 
Q 27.296875 2.296875 31.4375 7.5 
Q 35.59375 12.703125 35.59375 19.203125 
Q 35.59375 28.796875 28.90625 34.203125 
Q 20.203125 41.203125 7.59375 41.203125 
Q 6.40625 41.203125 6.40625 42 
L 6.5 42.5 
L 17.40625 66.203125 
L 38.09375 66.203125 
Q 39.796875 66.203125 40.75 66.703125 
Q 41.703125 67.203125 42.90625 68.796875 
z
" id="STIXGeneral-Regular-35"/>
      </defs>
      <g style="fill:#1a1a1a;" transform="translate(59.755859 296.722221)scale(0.28 -0.28)">
       <use transform="translate(0 0.842187)" xlink:href="#STIXGeneral-Regular-31"/>
       <use transform="translate(49.999985 0.842187)" xlink:href="#STIXGeneral-Regular-30"/>
       <use transform="translate(101.574969 36.842187)scale(0.7)" xlink:href="#STIXGeneral-Regular-35"/>
      </g>
     </g>
    </g>
    <g id="ytick_3">
     <g id="line2d_6">
      <g>
       <use style="fill:#1a1a1a;stroke:#1a1a1a;stroke-width:0.8;" x="106.515859" xlink:href="#mf07d85a969" y="211.51178"/>
      </g>
     </g>
     <g id="text_7">
      <!-- $\mathdefault{10^{8}}$ -->
      <defs>
       <path d="M 44.5 15.5 
Q 44.5 7.796875 39.140625 3.1875 
Q 33.796875 -1.40625 24.796875 -1.40625 
Q 16.40625 -1.40625 11 3.1875 
Q 5.59375 7.796875 5.59375 14.90625 
Q 5.59375 20.203125 8.1875 23.953125 
Q 10.796875 27.703125 18.59375 33.203125 
Q 11.09375 39.40625 8.640625 43.203125 
Q 6.203125 47 6.203125 52 
Q 6.203125 59.09375 11.640625 63.34375 
Q 17.09375 67.59375 25.59375 67.59375 
Q 32.90625 67.59375 37.65625 63.4375 
Q 42.40625 59.296875 42.40625 53.296875 
Q 42.40625 47.796875 39.546875 44.5 
Q 36.703125 41.203125 29 37.09375 
Q 38 31.09375 41.25 26.390625 
Q 44.5 21.703125 44.5 15.5 
z
M 35.5 53.296875 
Q 35.5 58.5 32.59375 61.640625 
Q 29.703125 64.796875 24.59375 64.796875 
Q 19.5 64.796875 16.546875 62.140625 
Q 13.59375 59.5 13.59375 54.890625 
Q 13.59375 50.296875 16.546875 46.546875 
Q 19.5 42.796875 26.09375 38.90625 
Q 31.203125 41.90625 33.34375 45.25 
Q 35.5 48.59375 35.5 53.296875 
z
M 27.09375 27.203125 
L 21.203125 31.203125 
Q 16.796875 27.59375 15 24.140625 
Q 13.203125 20.703125 13.203125 15.796875 
Q 13.203125 9 16.640625 5.203125 
Q 20.09375 1.40625 25.90625 1.40625 
Q 30.796875 1.40625 33.84375 4.453125 
Q 36.90625 7.5 36.90625 12.40625 
Q 36.90625 16.90625 34.59375 20.296875 
Q 32.296875 23.703125 27.09375 27.203125 
z
" id="STIXGeneral-Regular-38"/>
      </defs>
      <g style="fill:#1a1a1a;" transform="translate(59.755859 221.073343)scale(0.28 -0.28)">
       <use transform="translate(0 0.684375)" xlink:href="#STIXGeneral-Regular-31"/>
       <use transform="translate(49.999985 0.684375)" xlink:href="#STIXGeneral-Regular-30"/>
       <use transform="translate(101.574969 36.684375)scale(0.7)" xlink:href="#STIXGeneral-Regular-38"/>
      </g>
     </g>
    </g>
    <g id="ytick_4">
     <g id="line2d_7">
      <g>
       <use style="fill:#1a1a1a;stroke:#1a1a1a;stroke-width:0.8;" x="106.515859" xlink:href="#mf07d85a969" y="135.862903"/>
      </g>
     </g>
     <g id="text_8">
      <!-- $\mathdefault{10^{11}}$ -->
      <g style="fill:#1a1a1a;" transform="translate(49.955859 145.424465)scale(0.28 -0.28)">
       <use transform="translate(0 0.684375)" xlink:href="#STIXGeneral-Regular-31"/>
       <use transform="translate(49.999985 0.684375)" xlink:href="#STIXGeneral-Regular-30"/>
       <use transform="translate(101.574969 36.684375)scale(0.7)" xlink:href="#STIXGeneral-Regular-31"/>
       <use transform="translate(136.574959 36.684375)scale(0.7)" xlink:href="#STIXGeneral-Regular-31"/>
      </g>
     </g>
    </g>
    <g id="ytick_5">
     <g id="line2d_8">
      <g>
       <use style="fill:#1a1a1a;stroke:#1a1a1a;stroke-width:0.8;" x="106.515859" xlink:href="#mf07d85a969" y="60.214025"/>
      </g>
     </g>
     <g id="text_9">
      <!-- $\mathdefault{10^{14}}$ -->
      <defs>
       <path d="M 47.296875 16.703125 
L 37 16.703125 
L 37 0 
L 29.203125 0 
L 29.203125 16.703125 
L 1.203125 16.703125 
L 1.203125 23.09375 
L 32.59375 67.59375 
L 37 67.59375 
L 37 23.09375 
L 47.296875 23.09375 
z
M 29.203125 23.09375 
L 29.203125 57.40625 
L 5.203125 23.09375 
z
" id="STIXGeneral-Regular-34"/>
      </defs>
      <g style="fill:#1a1a1a;" transform="translate(49.955859 69.775587)scale(0.28 -0.28)">
       <use transform="translate(0 0.684375)" xlink:href="#STIXGeneral-Regular-31"/>
       <use transform="translate(49.999985 0.684375)" xlink:href="#STIXGeneral-Regular-30"/>
       <use transform="translate(101.574969 36.684375)scale(0.7)" xlink:href="#STIXGeneral-Regular-31"/>
       <use transform="translate(136.574959 36.684375)scale(0.7)" xlink:href="#STIXGeneral-Regular-34"/>
      </g>
     </g>
    </g>
    <g id="text_10">
     <!-- $W_{PI} \: (\mathrm{1/(fs \cdot cm^3)})$ -->
     <defs>
      <path d="M 90.59375 65.296875 
L 90.59375 63.703125 
Q 87.703125 62.796875 86.34375 61.5 
Q 85 60.203125 82.90625 56.203125 
L 52.796875 -1.796875 
L 50.796875 -1.796875 
L 45.796875 43.5 
L 45.296875 43.5 
L 23.09375 -1.796875 
L 21.203125 -1.796875 
L 15.09375 49.59375 
Q 14.296875 56.59375 13.796875 58.84375 
Q 13.296875 61.09375 12.203125 62.203125 
Q 11.203125 63.203125 7.09375 63.703125 
L 7.09375 65.296875 
L 30.59375 65.296875 
L 30.59375 63.703125 
Q 26.5 63.296875 24.953125 62.296875 
Q 23.40625 61.296875 23.40625 58.59375 
Q 23.40625 57.296875 23.5 56.59375 
L 27.90625 16.203125 
L 45.09375 51 
L 44.296875 57.5 
Q 43.90625 61.296875 42.546875 62.390625 
Q 41.203125 63.5 36.796875 63.703125 
L 36.796875 65.296875 
L 60.40625 65.296875 
L 60.40625 63.703125 
Q 56.5 63.296875 55.046875 62.296875 
Q 53.59375 61.296875 53.59375 58.90625 
Q 53.59375 58.59375 53.6875 58.046875 
Q 53.796875 57.5 53.796875 57.40625 
L 57.796875 16.203125 
L 76.59375 52.703125 
Q 78.90625 57.09375 78.90625 59.5 
Q 78.90625 63.59375 72.203125 63.703125 
L 72.203125 65.296875 
z
" id="STIXGeneral-Italic-57"/>
      <path d="M 14.59375 65.296875 
L 38.703125 65.296875 
Q 60.5 65.296875 60.5 50.5 
Q 60.5 46.5 58.640625 42.640625 
Q 56.796875 38.796875 53.703125 36.203125 
Q 46.796875 30.5 33.203125 30.5 
Q 27.703125 30.5 24.203125 31.296875 
L 18.90625 12 
Q 17.5 6.59375 17.5 5.703125 
Q 17.5 3.90625 19 2.953125 
Q 20.5 2 24.40625 1.59375 
L 24.40625 0 
L 0 0 
L 0 1.59375 
Q 4.296875 2.203125 5.640625 3.546875 
Q 7 4.90625 8.40625 9.796875 
L 20 51.203125 
Q 21.703125 57.296875 21.703125 59.5 
Q 21.703125 61.5 20.296875 62.34375 
Q 18.90625 63.203125 14.59375 63.703125 
z
M 32 59.203125 
L 25.09375 34.703125 
Q 28 34.203125 30.296875 34.203125 
Q 39 34.203125 43.09375 36.59375 
Q 50.203125 40.59375 50.203125 50 
Q 50.203125 62.296875 37.203125 62.296875 
Q 32.796875 62.296875 32 59.203125 
z
" id="STIXGeneral-Italic-50"/>
      <path d="M 38.40625 65.296875 
L 38.40625 63.703125 
Q 34.203125 63.203125 32.84375 61.890625 
Q 31.5 60.59375 30.203125 56 
L 18.203125 13.09375 
Q 16.703125 7.796875 16.703125 5.5 
Q 16.703125 3.5 17.953125 2.796875 
Q 19.203125 2.09375 23.59375 1.59375 
L 23.59375 0 
L -0.796875 0 
L -0.796875 1.59375 
Q 3.40625 2.40625 4.953125 3.703125 
Q 6.5 5 7.59375 9.09375 
L 19.59375 53.203125 
Q 20.90625 57.796875 20.90625 59.40625 
Q 20.90625 61.40625 19.296875 62.453125 
Q 17.703125 63.5 13.703125 63.703125 
L 13.703125 65.296875 
z
" id="STIXGeneral-Italic-49"/>
      <path d="M 28.703125 67.59375 
L 5.90625 -1.40625 
L -0.90625 -1.40625 
L 22 67.59375 
z
" id="STIXGeneral-Regular-2f"/>
      <path d="M 16.796875 31.296875 
Q 20.296875 27.703125 20.296875 25.296875 
Q 20.296875 22.90625 18.546875 21.09375 
Q 16.796875 19.296875 14.390625 19.296875 
Q 12 19.296875 10.140625 21.140625 
Q 8.296875 23 8.296875 25.296875 
Q 8.296875 27.59375 10.140625 29.4375 
Q 12 31.296875 14.390625 31.296875 
Q 16.796875 31.296875 20.296875 27.703125 
z
" id="STIXGeneral-Regular-22c5"/>
      <path d="M 39.796875 15.59375 
L 41.203125 14.703125 
Q 36.90625 6.296875 33 3.203125 
Q 27.90625 -1 21.5 -1 
Q 13.203125 -1 7.84375 5.25 
Q 2.5 11.5 2.5 21.203125 
Q 2.5 33.90625 10.90625 40.90625 
Q 17.09375 46 24.40625 46 
Q 30.703125 46 35.25 42.953125 
Q 39.796875 39.90625 39.796875 35.703125 
Q 39.796875 34 38.390625 32.75 
Q 37 31.5 35.09375 31.5 
Q 31.59375 31.5 30.296875 36.09375 
L 29.703125 38.296875 
Q 28.90625 41.09375 27.703125 42.09375 
Q 26.5 43.09375 23.796875 43.09375 
Q 17.703125 43.09375 13.953125 38.296875 
Q 10.203125 33.5 10.203125 25.703125 
Q 10.203125 17.09375 14.5 11.640625 
Q 18.796875 6.203125 25.703125 6.203125 
Q 30 6.203125 33.09375 8.25 
Q 36.203125 10.296875 39.796875 15.59375 
z
" id="STIXGeneral-Regular-63"/>
      <path d="M 6.09375 51 
L 4.5 51.40625 
Q 6.796875 58.90625 11.6875 63.25 
Q 16.59375 67.59375 24.09375 67.59375 
Q 31.09375 67.59375 35.390625 63.796875 
Q 39.703125 60 39.703125 53.90625 
Q 39.703125 45.703125 30.40625 40.09375 
Q 35.90625 37.703125 38.703125 34.796875 
Q 43.09375 29.90625 43.09375 21.90625 
Q 43.09375 13.90625 38.5 7.90625 
Q 35.09375 3.296875 28.75 0.9375 
Q 22.40625 -1.40625 15.296875 -1.40625 
Q 4.09375 -1.40625 4.09375 4.296875 
Q 4.09375 5.90625 5.296875 6.90625 
Q 6.5 7.90625 8.203125 7.90625 
Q 10.703125 7.90625 14.296875 5.296875 
Q 18.703125 2.203125 22.90625 2.203125 
Q 28.40625 2.203125 32.15625 6.640625 
Q 35.90625 11.09375 35.90625 17.5 
Q 35.90625 29 25.5 32 
Q 22.40625 33 15.296875 33 
L 15.296875 34.40625 
Q 20.90625 36.296875 23.703125 38 
Q 31.796875 42.59375 31.796875 51.40625 
Q 31.796875 56.40625 28.9375 59 
Q 26.09375 61.59375 21 61.59375 
Q 12 61.59375 6.09375 51 
z
" id="STIXGeneral-Regular-33"/>
     </defs>
     <g style="fill:#1a1a1a;" transform="translate(39.010859 328.748125)rotate(-90)scale(0.32 -0.32)">
      <use transform="translate(0 0.684375)" xlink:href="#STIXGeneral-Italic-57"/>
      <use transform="translate(83.299988 -12.54375)scale(0.7)" xlink:href="#STIXGeneral-Italic-50"/>
      <use transform="translate(126.069981 -12.54375)scale(0.7)" xlink:href="#STIXGeneral-Italic-49"/>
      <use transform="translate(169.833628 0.684375)" xlink:href="#STIXGeneral-Regular-28"/>
      <use transform="translate(203.133616 0.684375)" xlink:href="#STIXGeneral-Regular-31"/>
      <use transform="translate(253.1336 0.684375)" xlink:href="#STIXGeneral-Regular-2f"/>
      <use transform="translate(280.933588 0.684375)" xlink:href="#STIXGeneral-Regular-28"/>
      <use transform="translate(314.233576 0.684375)" xlink:href="#STIXGeneral-Regular-66"/>
      <use transform="translate(347.533564 0.684375)" xlink:href="#STIXGeneral-Regular-73"/>
      <use transform="translate(401.993555 0.684375)" xlink:href="#STIXGeneral-Regular-22c5"/>
      <use transform="translate(446.153544 0.684375)" xlink:href="#STIXGeneral-Regular-63"/>
      <use transform="translate(490.553537 0.684375)" xlink:href="#STIXGeneral-Regular-6d"/>
      <use transform="translate(569.928525 36.684375)scale(0.7)" xlink:href="#STIXGeneral-Regular-33"/>
      <use transform="translate(609.428515 0.684375)" xlink:href="#STIXGeneral-Regular-29"/>
      <use transform="translate(642.728502 0.684375)" xlink:href="#STIXGeneral-Regular-29"/>
     </g>
    </g>
   </g>
   <g id="line2d_9">
    <path clip-path="url(#p8bc5fdaa65)" d="M 123.127271 404.703365 
L 129.439607 377.538054 
L 135.419715 352.773164 
L 141.399823 328.952719 
L 147.379931 306.076735 
L 153.027811 285.33888 
L 158.675691 265.443533 
L 164.323571 246.390762 
L 169.639222 229.228527 
L 174.954874 212.812884 
L 180.270525 197.144017 
L 185.253949 183.132904 
L 190.237372 169.778629 
L 195.220795 157.081532 
L 199.871991 145.824186 
L 204.523186 135.140044 
L 209.174381 125.029521 
L 213.493348 116.155175 
L 217.812315 107.77613 
L 222.131282 99.892683 
L 226.11802 93.055734 
L 230.104759 86.641375 
L 234.091498 80.649615 
L 238.078236 75.080348 
L 241.732747 70.34613 
L 245.387257 65.966426 
L 249.041768 61.940829 
L 252.696278 58.268831 
L 256.018561 55.23698 
L 259.340843 52.496341 
L 262.663125 50.046355 
L 265.985407 47.886438 
L 268.975461 46.190035 
L 271.965515 44.727692 
L 274.955569 43.499015 
L 277.945623 42.503646 
L 280.935677 41.741277 
L 283.925732 41.211661 
L 286.915786 40.91462 
L 289.90584 40.850052 
L 292.895894 41.017934 
L 295.885948 41.418324 
L 298.876002 42.051359 
L 301.866056 42.917249 
L 304.85611 44.01627 
L 307.846164 45.348752 
L 310.836218 46.915071 
L 313.826272 48.715634 
L 317.148554 50.991508 
L 320.470836 53.557687 
L 323.793119 56.414745 
L 327.115401 59.563227 
L 330.437683 63.003628 
L 334.092193 67.125753 
L 337.746704 71.602108 
L 341.401214 76.433067 
L 345.055725 81.618897 
L 349.042464 87.681087 
L 353.029202 94.165881 
L 357.015941 101.073253 
L 361.00268 108.40308 
L 365.321647 116.820237 
L 369.640614 125.732669 
L 373.95958 135.140044 
L 378.610776 145.824186 
L 383.261971 157.081532 
L 387.913166 168.911707 
L 392.896589 182.22218 
L 397.880013 196.189514 
L 402.863436 210.813432 
L 408.179088 227.135739 
L 413.494739 244.204658 
L 418.810391 262.020051 
L 424.458271 281.766715 
L 430.10615 302.355895 
L 435.75403 323.787546 
L 441.40191 346.061637 
L 447.382018 370.564182 
L 453.362126 396.011164 
L 455.355496 404.703365 
L 455.355496 404.703365 
" style="fill:none;stroke:#4c72b0;stroke-linecap:square;stroke-width:1.5;"/>
   </g>
   <g id="line2d_10">
    <path clip-path="url(#p8bc5fdaa65)" d="M 123.127271 395.627364 
L 129.439607 368.46206 
L 135.419715 343.697184 
L 141.399823 319.876768 
L 147.379931 297.00084 
L 153.027811 276.263084 
L 158.675691 256.367911 
L 164.323571 237.315443 
L 169.639222 220.153681 
L 174.954874 203.738789 
L 180.270525 188.071092 
L 185.253949 174.061619 
L 190.237372 160.709715 
L 195.220795 148.015971 
L 199.871991 136.762904 
L 204.523186 126.084444 
L 209.174381 115.981312 
L 213.493348 107.115643 
L 217.812315 98.747283 
L 222.131282 90.87676 
L 226.11802 84.053891 
L 230.104759 77.655767 
L 234.091498 71.68242 
L 238.078236 66.133677 
L 241.732747 61.419984 
L 245.387257 57.062222 
L 249.041768 53.059686 
L 252.36405 49.728522 
L 255.686332 46.689398 
L 259.008615 43.941413 
L 262.330897 41.483585 
L 265.653179 39.314882 
L 268.975461 37.434259 
L 271.965515 35.987158 
L 274.955569 34.771866 
L 277.945623 33.787747 
L 280.935677 33.034248 
L 283.925732 32.510928 
L 286.915786 32.217467 
L 289.90584 32.153681 
L 292.895894 32.319531 
L 295.885948 32.715121 
L 298.876002 33.340696 
L 301.866056 34.196631 
L 304.85611 35.28342 
L 307.846164 36.601655 
L 310.836218 38.152005 
L 313.826272 39.935197 
L 317.148554 42.190527 
L 320.470836 44.735296 
L 323.793119 47.570523 
L 327.115401 50.697168 
L 330.437683 54.116105 
L 334.092193 58.215441 
L 337.746704 62.670213 
L 341.401214 67.481074 
L 345.055725 72.648484 
L 349.042464 78.692621 
L 353.029202 85.161543 
L 357.015941 92.055188 
L 361.00268 99.373335 
L 365.321647 107.779969 
L 369.640614 116.683868 
L 373.95958 126.084444 
L 378.610776 136.762904 
L 383.261971 148.015971 
L 387.913166 159.842982 
L 392.896589 173.151028 
L 397.880013 187.116679 
L 402.863436 201.739457 
L 408.179088 218.060969 
L 413.494739 235.129387 
L 418.810391 252.944472 
L 424.458271 272.690942 
L 430.10615 293.280014 
L 435.75403 314.711604 
L 441.40191 336.985664 
L 447.382018 361.488191 
L 453.362126 386.935165 
L 455.355496 395.627364 
L 455.355496 395.627364 
" style="fill:none;stroke:#55a868;stroke-linecap:square;stroke-width:1.5;"/>
   </g>
   <g id="line2d_11">
    <path clip-path="url(#p8bc5fdaa65)" d="M 123.127271 408.708239 
L 129.439607 381.542941 
L 135.419715 356.77808 
L 141.399823 332.957691 
L 147.379931 310.081819 
L 153.027811 289.344159 
L 158.675691 269.449158 
L 164.323571 250.396987 
L 169.639222 233.235686 
L 174.954874 216.821531 
L 180.270525 201.154976 
L 185.253949 187.147103 
L 190.237372 173.797508 
L 195.220795 161.107016 
L 199.871991 149.858084 
L 204.523186 139.185079 
L 209.174381 129.088993 
L 213.493348 120.231521 
L 217.812315 111.873148 
L 222.131282 104.014549 
L 226.11802 97.20448 
L 230.104759 90.820882 
L 234.091498 84.863718 
L 237.746008 79.777322 
L 241.400519 75.048489 
L 245.055029 70.676486 
L 248.70954 66.660336 
L 252.031822 63.317071 
L 255.354104 60.265833 
L 258.676386 57.505437 
L 261.998669 55.034612 
L 265.320951 52.852031 
L 268.643233 50.956365 
L 271.633287 49.494506 
L 274.623341 48.263115 
L 277.613395 47.26139 
L 280.603449 46.488642 
L 283.593503 45.944312 
L 286.583557 45.627994 
L 289.573611 45.539445 
L 292.563665 45.678597 
L 295.553719 46.045558 
L 298.543773 46.640607 
L 301.533827 47.464185 
L 304.523881 48.516883 
L 307.513935 49.799417 
L 310.50399 51.312608 
L 313.494044 53.057357 
L 316.816326 55.268701 
L 320.138608 57.768425 
L 323.46089 60.557848 
L 326.783173 63.638237 
L 330.105455 67.010767 
L 333.759965 71.05922 
L 337.414476 75.463625 
L 341.068986 80.224937 
L 344.723497 85.343867 
L 348.710235 91.336559 
L 352.696974 97.755698 
L 356.683713 104.601301 
L 360.670451 111.873148 
L 364.989418 120.231521 
L 369.308385 129.088993 
L 373.627352 138.444786 
L 378.278547 149.076616 
L 382.929743 160.284442 
L 387.580938 172.067341 
L 392.564361 185.329107 
L 397.547784 199.249251 
L 402.531208 213.827089 
L 407.846859 230.101109 
L 413.162511 247.122348 
L 418.478163 264.890461 
L 423.793814 283.405209 
L 429.441694 303.895041 
L 435.089574 325.227451 
L 440.737454 347.402365 
L 446.717562 371.799935 
L 452.69767 397.141961 
L 455.355496 408.708239 
L 455.355496 408.708239 
" style="fill:none;stroke:#c44e52;stroke-linecap:square;stroke-width:1.5;"/>
   </g>
   <g id="line2d_12">
    <path clip-path="url(#p8bc5fdaa65)" d="M 123.127271 309.257013 
L 129.439607 291.146801 
L 135.419715 274.636866 
L 141.399823 258.756552 
L 147.379931 243.505863 
L 153.360039 228.884806 
L 159.007919 215.654176 
L 164.655799 202.985189 
L 170.303679 190.877872 
L 175.61933 179.995866 
L 180.934982 169.611473 
L 186.250633 159.724753 
L 191.234057 150.908014 
L 196.21748 142.528836 
L 201.200904 134.587316 
L 206.184327 127.083568 
L 210.835522 120.475145 
L 215.486717 114.248276 
L 220.137912 108.403058 
L 224.456879 103.317161 
L 228.775846 98.560456 
L 233.094813 94.132963 
L 237.41378 90.034665 
L 241.400519 86.543758 
L 245.387257 83.333216 
L 249.373996 80.402923 
L 253.360735 77.752722 
L 257.347474 75.382421 
L 261.001984 73.455345 
L 264.656494 71.763096 
L 268.311005 70.305482 
L 271.965515 69.082313 
L 275.620026 68.093409 
L 279.274536 67.338608 
L 282.929047 66.817778 
L 286.583557 66.530821 
L 290.238068 66.477684 
L 293.892578 66.658355 
L 297.547089 67.072869 
L 301.201599 67.721305 
L 304.85611 68.60378 
L 308.51062 69.720444 
L 312.165131 71.071469 
L 315.819641 72.657042 
L 319.474152 74.477355 
L 323.128662 76.532597 
L 327.115401 79.042822 
L 331.102139 81.833048 
L 335.088878 84.903448 
L 339.075617 88.25416 
L 343.062356 91.885284 
L 347.381322 96.135513 
L 351.700289 100.714951 
L 356.019256 105.623595 
L 360.338223 110.861413 
L 364.989418 116.870207 
L 369.640614 123.260611 
L 374.291809 130.032527 
L 378.943004 137.185854 
L 383.926427 145.273271 
L 388.909851 153.798314 
L 393.893274 162.760888 
L 398.876697 172.160917 
L 404.192349 182.669718 
L 409.508001 193.67612 
L 414.823652 205.18008 
L 420.471532 217.948182 
L 426.119412 231.277924 
L 431.767292 245.169291 
L 437.7474 260.489939 
L 443.727508 276.440211 
L 449.707616 293.020103 
L 455.355496 309.257013 
L 455.355496 309.257013 
" style="fill:none;stroke:#8172b2;stroke-linecap:square;stroke-width:1.5;"/>
   </g>
   <g id="line2d_13">
    <path clip-path="url(#p8bc5fdaa65)" d="M 123.127271 298.984782 
L 129.439607 280.874582 
L 135.419715 264.364673 
L 141.399823 248.484409 
L 147.379931 233.233818 
L 153.360039 218.612947 
L 159.007919 205.382632 
L 164.655799 192.714192 
L 170.303679 180.607793 
L 175.61933 169.727179 
L 180.934982 159.344948 
L 186.250633 149.461502 
L 191.234057 140.649245 
L 196.21748 132.276402 
L 201.200904 124.343651 
L 205.852099 117.337514 
L 210.503294 110.716177 
L 215.154489 104.480434 
L 219.805684 98.631111 
L 224.124651 93.546306 
L 228.443618 88.795972 
L 232.762585 84.380574 
L 237.081552 80.300389 
L 241.068291 76.831601 
L 245.055029 73.648183 
L 249.041768 70.749549 
L 253.028507 68.13474 
L 257.015245 65.802383 
L 260.669756 63.91099 
L 264.324266 62.253759 
L 267.978777 60.828787 
L 271.633287 59.634023 
L 275.287798 58.667383 
L 278.942308 57.926888 
L 282.596819 57.410816 
L 286.251329 57.117847 
L 289.90584 57.047184 
L 293.56035 57.19863 
L 297.214861 57.572606 
L 300.869371 58.170109 
L 304.523881 58.992623 
L 308.178392 60.041979 
L 311.832902 61.320213 
L 315.487413 62.829412 
L 319.141923 64.571583 
L 322.796434 66.548554 
L 326.450944 68.761901 
L 330.437683 71.447555 
L 334.424422 74.41731 
L 338.41116 77.672029 
L 342.397899 81.212212 
L 346.384638 85.038052 
L 350.703605 89.505002 
L 355.022572 94.306827 
L 359.341539 99.443039 
L 363.660506 104.913039 
L 368.311701 111.176351 
L 372.962896 117.825201 
L 377.614091 124.858794 
L 382.265286 132.276402 
L 387.248709 140.649245 
L 392.232133 149.461502 
L 397.215556 158.712614 
L 402.531208 169.063685 
L 407.846859 179.913159 
L 413.162511 191.260734 
L 418.810391 203.863062 
L 424.458271 217.02728 
L 430.10615 230.753274 
L 436.086259 245.898916 
L 442.066367 261.674236 
L 448.046475 278.079206 
L 454.026583 295.11381 
L 455.355496 298.984782 
L 455.355496 298.984782 
" style="fill:none;stroke:#ccb974;stroke-linecap:square;stroke-width:1.5;"/>
   </g>
   <g id="line2d_14">
    <path clip-path="url(#p8bc5fdaa65)" d="M 123.127271 316.88163 
L 129.439607 298.771434 
L 135.419715 282.261531 
L 141.399823 266.381282 
L 147.379931 251.130718 
L 153.360039 236.509899 
L 159.007919 223.279674 
L 164.655799 210.611387 
L 170.303679 198.505246 
L 175.61933 187.625024 
L 180.934982 177.243396 
L 186.250633 167.360859 
L 191.234057 158.549835 
L 196.21748 150.178711 
L 201.200904 142.248299 
L 205.852099 135.245025 
L 210.503294 128.627314 
L 215.154489 122.396045 
L 219.805684 116.552086 
L 224.124651 111.473047 
L 228.443618 106.729158 
L 232.762585 102.320743 
L 237.081552 98.247868 
L 241.068291 94.785882 
L 245.055029 91.609063 
L 249.041768 88.716563 
L 253.028507 86.107179 
L 257.015245 83.779335 
L 260.669756 81.89117 
L 264.324266 80.236266 
L 267.978777 78.812766 
L 271.633287 77.618742 
L 275.287798 76.652288 
L 278.942308 75.911638 
L 282.596819 75.395283 
L 286.251329 75.102083 
L 289.90584 75.031357 
L 293.56035 75.182935 
L 297.214861 75.557178 
L 300.869371 76.154941 
L 304.523881 76.977511 
L 308.178392 78.026504 
L 311.832902 79.30375 
L 315.487413 80.811175 
L 319.141923 82.550694 
L 322.796434 84.524113 
L 326.450944 86.733063 
L 330.437683 89.413093 
L 334.424422 92.376573 
L 338.41116 95.624619 
L 342.397899 99.157988 
L 346.384638 102.977119 
L 350.703605 107.437157 
L 355.022572 112.232634 
L 359.341539 117.363193 
L 363.660506 122.828301 
L 368.311701 129.087203 
L 372.962896 135.732483 
L 377.614091 142.763264 
L 382.265286 150.178711 
L 387.248709 158.549835 
L 392.232133 167.360859 
L 397.215556 176.611109 
L 402.531208 186.96156 
L 407.846859 197.810633 
L 413.162511 209.157953 
L 418.810391 221.760118 
L 424.458271 234.924241 
L 430.10615 248.650181 
L 436.086259 263.795792 
L 442.066367 279.571096 
L 448.046475 295.976058 
L 454.026583 313.010658 
L 455.355496 316.88163 
L 455.355496 316.88163 
" style="fill:none;stroke:#64b5cd;stroke-linecap:square;stroke-width:1.5;"/>
   </g>
   <g id="patch_3">
    <path d="M 106.515859 427.53625 
L 106.515859 13.32 
" style="fill:none;stroke:#1a1a1a;stroke-linecap:square;stroke-linejoin:miter;stroke-width:0.8;"/>
   </g>
   <g id="patch_4">
    <path d="M 471.966907 427.53625 
L 471.966907 13.32 
" style="fill:none;stroke:#1a1a1a;stroke-linecap:square;stroke-linejoin:miter;stroke-width:0.8;"/>
   </g>
   <g id="patch_5">
    <path d="M 106.515859 427.53625 
L 471.966907 427.53625 
" style="fill:none;stroke:#1a1a1a;stroke-linecap:square;stroke-linejoin:miter;stroke-width:0.8;"/>
   </g>
   <g id="patch_6">
    <path d="M 106.515859 13.32 
L 471.966907 13.32 
" style="fill:none;stroke:#1a1a1a;stroke-linecap:square;stroke-linejoin:miter;stroke-width:0.8;"/>
   </g>
   <g id="legend_1">
    <g id="patch_7">
     <path d="M 200.901383 413.53625 
L 377.581383 413.53625 
Q 383.181383 413.53625 383.181383 407.93625 
L 383.181383 172.675 
Q 383.181383 167.075 377.581383 167.075 
L 200.901383 167.075 
Q 195.301383 167.075 195.301383 172.675 
L 195.301383 407.93625 
Q 195.301383 413.53625 200.901383 413.53625 
z
" style="fill:#ffffff;opacity:0.8;stroke:#cccccc;stroke-linejoin:miter;"/>
    </g>
    <g id="line2d_15">
     <path d="M 206.501383 188.075 
L 262.501383 188.075 
" style="fill:none;stroke:#4c72b0;stroke-linecap:square;stroke-width:1.5;"/>
    </g>
    <g id="line2d_16"/>
    <g id="text_11">
     <!-- Direct -->
     <defs>
      <path d="M 1.59375 66.203125 
L 28.59375 66.203125 
Q 48.09375 66.203125 58.59375 57.09375 
Q 68.5 48.59375 68.5 33.40625 
Q 68.5 15.09375 54.90625 6.40625 
Q 45 0 29.703125 0 
L 1.59375 0 
L 1.59375 1.90625 
Q 7.40625 2.296875 8.90625 3.9375 
Q 10.40625 5.59375 10.40625 11.5 
L 10.40625 55 
Q 10.40625 60.796875 8.90625 62.34375 
Q 7.40625 63.90625 1.59375 64.296875 
z
M 20.59375 58.296875 
L 20.59375 8.40625 
Q 20.59375 5.703125 21.546875 4.703125 
Q 22.5 3.703125 25.40625 3.703125 
Q 33.203125 3.703125 38 4.796875 
Q 42.796875 5.90625 47.203125 8.90625 
Q 57.59375 15.90625 57.59375 32.796875 
Q 57.59375 47.296875 48.09375 55.59375 
Q 43.796875 59.40625 38.6875 60.953125 
Q 33.59375 62.5 25.90625 62.5 
Q 23 62.5 21.796875 61.59375 
Q 20.59375 60.703125 20.59375 58.296875 
z
" id="STIXGeneral-Regular-44"/>
      <path d="M 16 45.796875 
L 16 36.59375 
Q 19.796875 42 22.34375 44 
Q 24.90625 46 28 46 
Q 30.59375 46 32.046875 44.59375 
Q 33.5 43.203125 33.5 40.703125 
Q 33.5 38.59375 32.453125 37.390625 
Q 31.40625 36.203125 29.59375 36.203125 
Q 27.703125 36.203125 25.59375 38.203125 
Q 24 39.703125 23 39.703125 
Q 20.90625 39.703125 18.453125 36.796875 
Q 16 33.90625 16 31.5 
L 16 9 
Q 16 4.703125 17.703125 3.203125 
Q 19.40625 1.703125 24.5 1.5 
L 24.5 0 
L 0.5 0 
L 0.5 1.5 
Q 5.296875 2.40625 6.4375 3.5 
Q 7.59375 4.59375 7.59375 8.40625 
L 7.59375 33.40625 
Q 7.59375 36.703125 6.84375 38.046875 
Q 6.09375 39.40625 4.203125 39.40625 
Q 2.59375 39.40625 0.703125 39 
L 0.703125 40.59375 
Q 7 42.59375 15.5 46 
z
" id="STIXGeneral-Regular-72"/>
      <path d="M 26.59375 7.703125 
L 27.90625 6.59375 
Q 23.09375 -1 15.796875 -1 
Q 7 -1 7 11.703125 
L 7 41.796875 
L 1.703125 41.796875 
Q 1.296875 42.09375 1.296875 42.5 
Q 1.296875 43.296875 3 44.40625 
Q 6.796875 46.59375 12.703125 55.09375 
Q 12.90625 55.40625 13.65625 56.34375 
Q 14.40625 57.296875 14.703125 57.90625 
Q 15.40625 57.90625 15.40625 56.59375 
L 15.40625 45 
L 25.5 45 
L 25.5 41.796875 
L 15.40625 41.796875 
L 15.40625 13.203125 
Q 15.40625 8.40625 16.59375 6.296875 
Q 17.796875 4.203125 20.59375 4.203125 
Q 23.59375 4.203125 26.59375 7.703125 
z
" id="STIXGeneral-Regular-74"/>
     </defs>
     <g style="fill:#1a1a1a;" transform="translate(284.901383 197.875)scale(0.28 -0.28)">
      <use xlink:href="#STIXGeneral-Regular-44"/>
      <use x="72.199982" xlink:href="#STIXGeneral-Regular-69"/>
      <use x="99.999969" xlink:href="#STIXGeneral-Regular-72"/>
      <use x="133.299957" xlink:href="#STIXGeneral-Regular-65"/>
      <use x="177.699951" xlink:href="#STIXGeneral-Regular-63"/>
      <use x="222.099945" xlink:href="#STIXGeneral-Regular-74"/>
     </g>
    </g>
    <g id="line2d_17">
     <path d="M 206.501383 227.751875 
L 262.501383 227.751875 
" style="fill:none;stroke:#55a868;stroke-linecap:square;stroke-width:1.5;"/>
    </g>
    <g id="line2d_18"/>
    <g id="text_12">
     <!-- Direct -->
     <g style="fill:#1a1a1a;" transform="translate(284.901383 237.551875)scale(0.28 -0.28)">
      <use xlink:href="#STIXGeneral-Regular-44"/>
      <use x="72.199982" xlink:href="#STIXGeneral-Regular-69"/>
      <use x="99.999969" xlink:href="#STIXGeneral-Regular-72"/>
      <use x="133.299957" xlink:href="#STIXGeneral-Regular-65"/>
      <use x="177.699951" xlink:href="#STIXGeneral-Regular-63"/>
      <use x="222.099945" xlink:href="#STIXGeneral-Regular-74"/>
     </g>
    </g>
    <g id="line2d_19">
     <path d="M 206.501383 267.42875 
L 262.501383 267.42875 
" style="fill:none;stroke:#c44e52;stroke-linecap:square;stroke-width:1.5;"/>
    </g>
    <g id="line2d_20"/>
    <g id="text_13">
     <!-- Direct -->
     <g style="fill:#1a1a1a;" transform="translate(284.901383 277.22875)scale(0.28 -0.28)">
      <use xlink:href="#STIXGeneral-Regular-44"/>
      <use x="72.199982" xlink:href="#STIXGeneral-Regular-69"/>
      <use x="99.999969" xlink:href="#STIXGeneral-Regular-72"/>
      <use x="133.299957" xlink:href="#STIXGeneral-Regular-65"/>
      <use x="177.699951" xlink:href="#STIXGeneral-Regular-63"/>
      <use x="222.099945" xlink:href="#STIXGeneral-Regular-74"/>
     </g>
    </g>
    <g id="line2d_21">
     <path d="M 206.501383 307.105625 
L 262.501383 307.105625 
" style="fill:none;stroke:#8172b2;stroke-linecap:square;stroke-width:1.5;"/>
    </g>
    <g id="line2d_22"/>
    <g id="text_14">
     <!-- Indirect -->
     <defs>
      <path d="M 31.5 0 
L 1.796875 0 
L 1.796875 1.90625 
Q 8.09375 2.09375 9.796875 3.75 
Q 11.5 5.40625 11.5 11.203125 
L 11.5 55.09375 
Q 11.5 60.90625 9.890625 62.40625 
Q 8.296875 63.90625 1.796875 64.296875 
L 1.796875 66.203125 
L 31.5 66.203125 
L 31.5 64.296875 
Q 25.203125 64 23.453125 62.390625 
Q 21.703125 60.796875 21.703125 55.09375 
L 21.703125 11.203125 
Q 21.703125 5.59375 23.5 3.84375 
Q 25.296875 2.09375 31.5 1.90625 
z
" id="STIXGeneral-Regular-49"/>
      <path d="M 48.5 0 
L 27.703125 0 
L 27.796875 1.5 
Q 31.5 1.796875 32.75 3.640625 
Q 34 5.5 34 10.5 
L 34 30.40625 
Q 34 40.5 26.703125 40.5 
Q 24.203125 40.5 22 39.296875 
Q 19.796875 38.09375 16.40625 34.796875 
L 16.40625 7.203125 
Q 16.40625 4.203125 17.75 3 
Q 19.09375 1.796875 22.90625 1.5 
L 22.90625 0 
L 1.796875 0 
L 1.796875 1.5 
Q 5.59375 1.796875 6.796875 3.34375 
Q 8 4.90625 8 9.40625 
L 8 33.703125 
Q 8 37.40625 7.296875 38.796875 
Q 6.59375 40.203125 4.5 40.203125 
Q 2.5 40.203125 1.59375 39.796875 
L 1.59375 41.5 
Q 8.59375 43.5 15.296875 46 
L 16.09375 45.703125 
L 16.09375 37.90625 
L 16.203125 37.90625 
Q 23.296875 46 30.59375 46 
Q 36.296875 46 39.34375 42 
Q 42.40625 38 42.40625 30.59375 
L 42.40625 8.5 
Q 42.40625 4.5 43.59375 3.203125 
Q 44.796875 1.90625 48.5 1.5 
z
" id="STIXGeneral-Regular-6e"/>
      <path d="M 49.09375 4.203125 
L 34.40625 -1 
L 34 -0.703125 
L 34 5.703125 
Q 29.203125 -1 21.203125 -1 
Q 12.90625 -1 7.796875 4.953125 
Q 2.703125 10.90625 2.703125 20.5 
Q 2.703125 31.09375 8.796875 38.546875 
Q 14.90625 46 23.5 46 
Q 28.90625 46 34 41.703125 
L 34 57.296875 
Q 34 60.40625 33.09375 61.40625 
Q 32.203125 62.40625 29.40625 62.40625 
Q 28 62.40625 27.203125 62.296875 
L 27.203125 63.90625 
Q 36.296875 66.296875 41.90625 68.296875 
L 42.40625 68.09375 
L 42.40625 11.40625 
Q 42.40625 7.90625 43.25 6.796875 
Q 44.09375 5.703125 46.796875 5.703125 
Q 47.40625 5.703125 49.09375 5.796875 
z
M 34 10.203125 
L 34 33.203125 
Q 34 37.203125 30.953125 40.203125 
Q 27.90625 43.203125 23.796875 43.203125 
Q 18.09375 43.203125 14.6875 38.09375 
Q 11.296875 33 11.296875 24.5 
Q 11.296875 15.296875 15.046875 9.75 
Q 18.796875 4.203125 25.09375 4.203125 
Q 29.796875 4.203125 32.5 7.40625 
Q 34 9.09375 34 10.203125 
z
" id="STIXGeneral-Regular-64"/>
     </defs>
     <g style="fill:#1a1a1a;" transform="translate(284.901383 316.905625)scale(0.28 -0.28)">
      <use xlink:href="#STIXGeneral-Regular-49"/>
      <use x="33.299988" xlink:href="#STIXGeneral-Regular-6e"/>
      <use x="83.299973" xlink:href="#STIXGeneral-Regular-64"/>
      <use x="133.299957" xlink:href="#STIXGeneral-Regular-69"/>
      <use x="161.099945" xlink:href="#STIXGeneral-Regular-72"/>
      <use x="194.399933" xlink:href="#STIXGeneral-Regular-65"/>
      <use x="238.799927" xlink:href="#STIXGeneral-Regular-63"/>
      <use x="283.199921" xlink:href="#STIXGeneral-Regular-74"/>
     </g>
    </g>
    <g id="line2d_23">
     <path d="M 206.501383 346.7825 
L 262.501383 346.7825 
" style="fill:none;stroke:#ccb974;stroke-linecap:square;stroke-width:1.5;"/>
    </g>
    <g id="line2d_24"/>
    <g id="text_15">
     <!-- Indirect -->
     <g style="fill:#1a1a1a;" transform="translate(284.901383 356.5825)scale(0.28 -0.28)">
      <use xlink:href="#STIXGeneral-Regular-49"/>
      <use x="33.299988" xlink:href="#STIXGeneral-Regular-6e"/>
      <use x="83.299973" xlink:href="#STIXGeneral-Regular-64"/>
      <use x="133.299957" xlink:href="#STIXGeneral-Regular-69"/>
      <use x="161.099945" xlink:href="#STIXGeneral-Regular-72"/>
      <use x="194.399933" xlink:href="#STIXGeneral-Regular-65"/>
      <use x="238.799927" xlink:href="#STIXGeneral-Regular-63"/>
      <use x="283.199921" xlink:href="#STIXGeneral-Regular-74"/>
     </g>
    </g>
    <g id="line2d_25">
     <path d="M 206.501383 386.459375 
L 262.501383 386.459375 
" style="fill:none;stroke:#64b5cd;stroke-linecap:square;stroke-width:1.5;"/>
    </g>
    <g id="line2d_26"/>
    <g id="text_16">
     <!-- Indirect -->
     <g style="fill:#1a1a1a;" transform="translate(284.901383 396.259375)scale(0.28 -0.28)">
      <use xlink:href="#STIXGeneral-Regular-49"/>
      <use x="33.299988" xlink:href="#STIXGeneral-Regular-6e"/>
      <use x="83.299973" xlink:href="#STIXGeneral-Regular-64"/>
      <use x="133.299957" xlink:href="#STIXGeneral-Regular-69"/>
      <use x="161.099945" xlink:href="#STIXGeneral-Regular-72"/>
      <use x="194.399933" xlink:href="#STIXGeneral-Regular-65"/>
      <use x="238.799927" xlink:href="#STIXGeneral-Regular-63"/>
      <use x="283.199921" xlink:href="#STIXGeneral-Regular-74"/>
     </g>
    </g>
   </g>
  </g>
  <g id="axes_2">
   <g id="matplotlib.axis_3">
    <g id="ytick_6">
     <g id="line2d_27">
      <defs>
       <path d="M 0 0 
L 3.5 0 
" id="m5d696afafb" style="stroke:#1a1a1a;stroke-width:0.8;"/>
      </defs>
      <g>
       <use style="fill:#1a1a1a;stroke:#1a1a1a;stroke-width:0.8;" x="471.966907" xlink:href="#m5d696afafb" y="421.314523"/>
      </g>
     </g>
     <g id="text_17">
      <!-- $\mathdefault{10^{-4}}$ -->
      <g style="fill:#1a1a1a;" transform="translate(478.966907 430.876086)scale(0.28 -0.28)">
       <use transform="translate(0 0.684375)" xlink:href="#STIXGeneral-Regular-31"/>
       <use transform="translate(49.999985 0.684375)" xlink:href="#STIXGeneral-Regular-30"/>
       <use transform="translate(101.574969 36.684375)scale(0.7)" xlink:href="#STIXGeneral-Regular-2212"/>
       <use transform="translate(149.524959 36.684375)scale(0.7)" xlink:href="#STIXGeneral-Regular-34"/>
      </g>
     </g>
    </g>
    <g id="ytick_7">
     <g id="line2d_28">
      <g>
       <use style="fill:#1a1a1a;stroke:#1a1a1a;stroke-width:0.8;" x="471.966907" xlink:href="#m5d696afafb" y="346.032788"/>
      </g>
     </g>
     <g id="text_18">
      <!-- $\mathdefault{10^{-3}}$ -->
      <g style="fill:#1a1a1a;" transform="translate(478.966907 355.59435)scale(0.28 -0.28)">
       <use transform="translate(0 0.684375)" xlink:href="#STIXGeneral-Regular-31"/>
       <use transform="translate(49.999985 0.684375)" xlink:href="#STIXGeneral-Regular-30"/>
       <use transform="translate(101.574969 36.684375)scale(0.7)" xlink:href="#STIXGeneral-Regular-2212"/>
       <use transform="translate(149.524959 36.684375)scale(0.7)" xlink:href="#STIXGeneral-Regular-33"/>
      </g>
     </g>
    </g>
    <g id="ytick_8">
     <g id="line2d_29">
      <g>
       <use style="fill:#1a1a1a;stroke:#1a1a1a;stroke-width:0.8;" x="471.966907" xlink:href="#m5d696afafb" y="270.751053"/>
      </g>
     </g>
     <g id="text_19">
      <!-- $\mathdefault{10^{-2}}$ -->
      <g style="fill:#1a1a1a;" transform="translate(478.966907 280.312615)scale(0.28 -0.28)">
       <use transform="translate(0 0.684375)" xlink:href="#STIXGeneral-Regular-31"/>
       <use transform="translate(49.999985 0.684375)" xlink:href="#STIXGeneral-Regular-30"/>
       <use transform="translate(101.574969 36.684375)scale(0.7)" xlink:href="#STIXGeneral-Regular-2212"/>
       <use transform="translate(149.524959 36.684375)scale(0.7)" xlink:href="#STIXGeneral-Regular-32"/>
      </g>
     </g>
    </g>
    <g id="ytick_9">
     <g id="line2d_30">
      <g>
       <use style="fill:#1a1a1a;stroke:#1a1a1a;stroke-width:0.8;" x="471.966907" xlink:href="#m5d696afafb" y="195.469317"/>
      </g>
     </g>
     <g id="text_20">
      <!-- $\mathdefault{10^{-1}}$ -->
      <g style="fill:#1a1a1a;" transform="translate(478.966907 205.03088)scale(0.28 -0.28)">
       <use transform="translate(0 0.684375)" xlink:href="#STIXGeneral-Regular-31"/>
       <use transform="translate(49.999985 0.684375)" xlink:href="#STIXGeneral-Regular-30"/>
       <use transform="translate(101.574969 36.684375)scale(0.7)" xlink:href="#STIXGeneral-Regular-2212"/>
       <use transform="translate(149.524959 36.684375)scale(0.7)" xlink:href="#STIXGeneral-Regular-31"/>
      </g>
     </g>
    </g>
    <g id="ytick_10">
     <g id="line2d_31">
      <g>
       <use style="fill:#1a1a1a;stroke:#1a1a1a;stroke-width:0.8;" x="471.966907" xlink:href="#m5d696afafb" y="120.187582"/>
      </g>
     </g>
     <g id="text_21">
      <!-- $\mathdefault{10^{0}}$ -->
      <g style="fill:#1a1a1a;" transform="translate(478.966907 129.749144)scale(0.28 -0.28)">
       <use transform="translate(0 0.684375)" xlink:href="#STIXGeneral-Regular-31"/>
       <use transform="translate(49.999985 0.684375)" xlink:href="#STIXGeneral-Regular-30"/>
       <use transform="translate(101.574969 36.684375)scale(0.7)" xlink:href="#STIXGeneral-Regular-30"/>
      </g>
     </g>
    </g>
    <g id="ytick_11">
     <g id="line2d_32">
      <g>
       <use style="fill:#1a1a1a;stroke:#1a1a1a;stroke-width:0.8;" x="471.966907" xlink:href="#m5d696afafb" y="44.905847"/>
      </g>
     </g>
     <g id="text_22">
      <!-- $\mathdefault{10^{1}}$ -->
      <g style="fill:#1a1a1a;" transform="translate(478.966907 54.467409)scale(0.28 -0.28)">
       <use transform="translate(0 0.684375)" xlink:href="#STIXGeneral-Regular-31"/>
       <use transform="translate(49.999985 0.684375)" xlink:href="#STIXGeneral-Regular-30"/>
       <use transform="translate(101.574969 36.684375)scale(0.7)" xlink:href="#STIXGeneral-Regular-31"/>
      </g>
     </g>
    </g>
    <g id="ytick_12">
     <g id="line2d_33">
      <defs>
       <path d="M 0 0 
L 2 0 
" id="m0abf8f82ec" style="stroke:#1a1a1a;stroke-width:0.6;"/>
      </defs>
      <g>
       <use style="fill:#1a1a1a;stroke:#1a1a1a;stroke-width:0.6;" x="471.966907" xlink:href="#m0abf8f82ec" y="424.759227"/>
      </g>
     </g>
    </g>
    <g id="ytick_13">
     <g id="line2d_34">
      <g>
       <use style="fill:#1a1a1a;stroke:#1a1a1a;stroke-width:0.6;" x="471.966907" xlink:href="#m0abf8f82ec" y="398.652463"/>
      </g>
     </g>
    </g>
    <g id="ytick_14">
     <g id="line2d_35">
      <g>
       <use style="fill:#1a1a1a;stroke:#1a1a1a;stroke-width:0.6;" x="471.966907" xlink:href="#m0abf8f82ec" y="385.396007"/>
      </g>
     </g>
    </g>
    <g id="ytick_15">
     <g id="line2d_36">
      <g>
       <use style="fill:#1a1a1a;stroke:#1a1a1a;stroke-width:0.6;" x="471.966907" xlink:href="#m0abf8f82ec" y="375.990402"/>
      </g>
     </g>
    </g>
    <g id="ytick_16">
     <g id="line2d_37">
      <g>
       <use style="fill:#1a1a1a;stroke:#1a1a1a;stroke-width:0.6;" x="471.966907" xlink:href="#m0abf8f82ec" y="368.694848"/>
      </g>
     </g>
    </g>
    <g id="ytick_17">
     <g id="line2d_38">
      <g>
       <use style="fill:#1a1a1a;stroke:#1a1a1a;stroke-width:0.6;" x="471.966907" xlink:href="#m0abf8f82ec" y="362.733947"/>
      </g>
     </g>
    </g>
    <g id="ytick_18">
     <g id="line2d_39">
      <g>
       <use style="fill:#1a1a1a;stroke:#1a1a1a;stroke-width:0.6;" x="471.966907" xlink:href="#m0abf8f82ec" y="357.694076"/>
      </g>
     </g>
    </g>
    <g id="ytick_19">
     <g id="line2d_40">
      <g>
       <use style="fill:#1a1a1a;stroke:#1a1a1a;stroke-width:0.6;" x="471.966907" xlink:href="#m0abf8f82ec" y="353.328342"/>
      </g>
     </g>
    </g>
    <g id="ytick_20">
     <g id="line2d_41">
      <g>
       <use style="fill:#1a1a1a;stroke:#1a1a1a;stroke-width:0.6;" x="471.966907" xlink:href="#m0abf8f82ec" y="349.477491"/>
      </g>
     </g>
    </g>
    <g id="ytick_21">
     <g id="line2d_42">
      <g>
       <use style="fill:#1a1a1a;stroke:#1a1a1a;stroke-width:0.6;" x="471.966907" xlink:href="#m0abf8f82ec" y="323.370727"/>
      </g>
     </g>
    </g>
    <g id="ytick_22">
     <g id="line2d_43">
      <g>
       <use style="fill:#1a1a1a;stroke:#1a1a1a;stroke-width:0.6;" x="471.966907" xlink:href="#m0abf8f82ec" y="310.114272"/>
      </g>
     </g>
    </g>
    <g id="ytick_23">
     <g id="line2d_44">
      <g>
       <use style="fill:#1a1a1a;stroke:#1a1a1a;stroke-width:0.6;" x="471.966907" xlink:href="#m0abf8f82ec" y="300.708667"/>
      </g>
     </g>
    </g>
    <g id="ytick_24">
     <g id="line2d_45">
      <g>
       <use style="fill:#1a1a1a;stroke:#1a1a1a;stroke-width:0.6;" x="471.966907" xlink:href="#m0abf8f82ec" y="293.413113"/>
      </g>
     </g>
    </g>
    <g id="ytick_25">
     <g id="line2d_46">
      <g>
       <use style="fill:#1a1a1a;stroke:#1a1a1a;stroke-width:0.6;" x="471.966907" xlink:href="#m0abf8f82ec" y="287.452211"/>
      </g>
     </g>
    </g>
    <g id="ytick_26">
     <g id="line2d_47">
      <g>
       <use style="fill:#1a1a1a;stroke:#1a1a1a;stroke-width:0.6;" x="471.966907" xlink:href="#m0abf8f82ec" y="282.412341"/>
      </g>
     </g>
    </g>
    <g id="ytick_27">
     <g id="line2d_48">
      <g>
       <use style="fill:#1a1a1a;stroke:#1a1a1a;stroke-width:0.6;" x="471.966907" xlink:href="#m0abf8f82ec" y="278.046607"/>
      </g>
     </g>
    </g>
    <g id="ytick_28">
     <g id="line2d_49">
      <g>
       <use style="fill:#1a1a1a;stroke:#1a1a1a;stroke-width:0.6;" x="471.966907" xlink:href="#m0abf8f82ec" y="274.195756"/>
      </g>
     </g>
    </g>
    <g id="ytick_29">
     <g id="line2d_50">
      <g>
       <use style="fill:#1a1a1a;stroke:#1a1a1a;stroke-width:0.6;" x="471.966907" xlink:href="#m0abf8f82ec" y="248.088992"/>
      </g>
     </g>
    </g>
    <g id="ytick_30">
     <g id="line2d_51">
      <g>
       <use style="fill:#1a1a1a;stroke:#1a1a1a;stroke-width:0.6;" x="471.966907" xlink:href="#m0abf8f82ec" y="234.832537"/>
      </g>
     </g>
    </g>
    <g id="ytick_31">
     <g id="line2d_52">
      <g>
       <use style="fill:#1a1a1a;stroke:#1a1a1a;stroke-width:0.6;" x="471.966907" xlink:href="#m0abf8f82ec" y="225.426932"/>
      </g>
     </g>
    </g>
    <g id="ytick_32">
     <g id="line2d_53">
      <g>
       <use style="fill:#1a1a1a;stroke:#1a1a1a;stroke-width:0.6;" x="471.966907" xlink:href="#m0abf8f82ec" y="218.131378"/>
      </g>
     </g>
    </g>
    <g id="ytick_33">
     <g id="line2d_54">
      <g>
       <use style="fill:#1a1a1a;stroke:#1a1a1a;stroke-width:0.6;" x="471.966907" xlink:href="#m0abf8f82ec" y="212.170476"/>
      </g>
     </g>
    </g>
    <g id="ytick_34">
     <g id="line2d_55">
      <g>
       <use style="fill:#1a1a1a;stroke:#1a1a1a;stroke-width:0.6;" x="471.966907" xlink:href="#m0abf8f82ec" y="207.130606"/>
      </g>
     </g>
    </g>
    <g id="ytick_35">
     <g id="line2d_56">
      <g>
       <use style="fill:#1a1a1a;stroke:#1a1a1a;stroke-width:0.6;" x="471.966907" xlink:href="#m0abf8f82ec" y="202.764871"/>
      </g>
     </g>
    </g>
    <g id="ytick_36">
     <g id="line2d_57">
      <g>
       <use style="fill:#1a1a1a;stroke:#1a1a1a;stroke-width:0.6;" x="471.966907" xlink:href="#m0abf8f82ec" y="198.914021"/>
      </g>
     </g>
    </g>
    <g id="ytick_37">
     <g id="line2d_58">
      <g>
       <use style="fill:#1a1a1a;stroke:#1a1a1a;stroke-width:0.6;" x="471.966907" xlink:href="#m0abf8f82ec" y="172.807257"/>
      </g>
     </g>
    </g>
    <g id="ytick_38">
     <g id="line2d_59">
      <g>
       <use style="fill:#1a1a1a;stroke:#1a1a1a;stroke-width:0.6;" x="471.966907" xlink:href="#m0abf8f82ec" y="159.550801"/>
      </g>
     </g>
    </g>
    <g id="ytick_39">
     <g id="line2d_60">
      <g>
       <use style="fill:#1a1a1a;stroke:#1a1a1a;stroke-width:0.6;" x="471.966907" xlink:href="#m0abf8f82ec" y="150.145196"/>
      </g>
     </g>
    </g>
    <g id="ytick_40">
     <g id="line2d_61">
      <g>
       <use style="fill:#1a1a1a;stroke:#1a1a1a;stroke-width:0.6;" x="471.966907" xlink:href="#m0abf8f82ec" y="142.849642"/>
      </g>
     </g>
    </g>
    <g id="ytick_41">
     <g id="line2d_62">
      <g>
       <use style="fill:#1a1a1a;stroke:#1a1a1a;stroke-width:0.6;" x="471.966907" xlink:href="#m0abf8f82ec" y="136.888741"/>
      </g>
     </g>
    </g>
    <g id="ytick_42">
     <g id="line2d_63">
      <g>
       <use style="fill:#1a1a1a;stroke:#1a1a1a;stroke-width:0.6;" x="471.966907" xlink:href="#m0abf8f82ec" y="131.84887"/>
      </g>
     </g>
    </g>
    <g id="ytick_43">
     <g id="line2d_64">
      <g>
       <use style="fill:#1a1a1a;stroke:#1a1a1a;stroke-width:0.6;" x="471.966907" xlink:href="#m0abf8f82ec" y="127.483136"/>
      </g>
     </g>
    </g>
    <g id="ytick_44">
     <g id="line2d_65">
      <g>
       <use style="fill:#1a1a1a;stroke:#1a1a1a;stroke-width:0.6;" x="471.966907" xlink:href="#m0abf8f82ec" y="123.632285"/>
      </g>
     </g>
    </g>
    <g id="ytick_45">
     <g id="line2d_66">
      <g>
       <use style="fill:#1a1a1a;stroke:#1a1a1a;stroke-width:0.6;" x="471.966907" xlink:href="#m0abf8f82ec" y="97.525521"/>
      </g>
     </g>
    </g>
    <g id="ytick_46">
     <g id="line2d_67">
      <g>
       <use style="fill:#1a1a1a;stroke:#1a1a1a;stroke-width:0.6;" x="471.966907" xlink:href="#m0abf8f82ec" y="84.269066"/>
      </g>
     </g>
    </g>
    <g id="ytick_47">
     <g id="line2d_68">
      <g>
       <use style="fill:#1a1a1a;stroke:#1a1a1a;stroke-width:0.6;" x="471.966907" xlink:href="#m0abf8f82ec" y="74.863461"/>
      </g>
     </g>
    </g>
    <g id="ytick_48">
     <g id="line2d_69">
      <g>
       <use style="fill:#1a1a1a;stroke:#1a1a1a;stroke-width:0.6;" x="471.966907" xlink:href="#m0abf8f82ec" y="67.567907"/>
      </g>
     </g>
    </g>
    <g id="ytick_49">
     <g id="line2d_70">
      <g>
       <use style="fill:#1a1a1a;stroke:#1a1a1a;stroke-width:0.6;" x="471.966907" xlink:href="#m0abf8f82ec" y="61.607005"/>
      </g>
     </g>
    </g>
    <g id="ytick_50">
     <g id="line2d_71">
      <g>
       <use style="fill:#1a1a1a;stroke:#1a1a1a;stroke-width:0.6;" x="471.966907" xlink:href="#m0abf8f82ec" y="56.567135"/>
      </g>
     </g>
    </g>
    <g id="ytick_51">
     <g id="line2d_72">
      <g>
       <use style="fill:#1a1a1a;stroke:#1a1a1a;stroke-width:0.6;" x="471.966907" xlink:href="#m0abf8f82ec" y="52.201401"/>
      </g>
     </g>
    </g>
    <g id="ytick_52">
     <g id="line2d_73">
      <g>
       <use style="fill:#1a1a1a;stroke:#1a1a1a;stroke-width:0.6;" x="471.966907" xlink:href="#m0abf8f82ec" y="48.35055"/>
      </g>
     </g>
    </g>
    <g id="ytick_53">
     <g id="line2d_74">
      <g>
       <use style="fill:#1a1a1a;stroke:#1a1a1a;stroke-width:0.6;" x="471.966907" xlink:href="#m0abf8f82ec" y="22.243786"/>
      </g>
     </g>
    </g>
    <g id="text_23">
     <!-- Direct/Indirect -->
     <g style="fill:#c44e52;" transform="translate(558.021907 314.620625)rotate(-90)scale(0.32 -0.32)">
      <use xlink:href="#STIXGeneral-Regular-44"/>
      <use x="72.199982" xlink:href="#STIXGeneral-Regular-69"/>
      <use x="99.999969" xlink:href="#STIXGeneral-Regular-72"/>
      <use x="133.299957" xlink:href="#STIXGeneral-Regular-65"/>
      <use x="177.699951" xlink:href="#STIXGeneral-Regular-63"/>
      <use x="222.099945" xlink:href="#STIXGeneral-Regular-74"/>
      <use x="249.899933" xlink:href="#STIXGeneral-Regular-2f"/>
      <use x="277.699921" xlink:href="#STIXGeneral-Regular-49"/>
      <use x="310.999908" xlink:href="#STIXGeneral-Regular-6e"/>
      <use x="360.999893" xlink:href="#STIXGeneral-Regular-64"/>
      <use x="410.999878" xlink:href="#STIXGeneral-Regular-69"/>
      <use x="438.799866" xlink:href="#STIXGeneral-Regular-72"/>
      <use x="472.099854" xlink:href="#STIXGeneral-Regular-65"/>
      <use x="516.499847" xlink:href="#STIXGeneral-Regular-63"/>
      <use x="560.899841" xlink:href="#STIXGeneral-Regular-74"/>
     </g>
    </g>
   </g>
   <g id="line2d_75">
    <path clip-path="url(#p8bc5fdaa65)" d="M 123.127271 405.136966 
L 129.439607 378.103507 
L 135.419715 353.458833 
L 141.399823 329.754044 
L 147.379931 306.989181 
L 153.027811 286.352145 
L 158.675691 266.553662 
L 164.323571 247.59389 
L 169.639222 230.515776 
L 174.954874 214.181121 
L 180.270525 198.59035 
L 185.253949 184.650111 
L 190.237372 171.364804 
L 195.220795 158.7352 
L 199.871991 147.539977 
L 204.523186 136.917616 
L 209.174381 126.869059 
L 213.493348 118.052897 
L 217.812315 109.733091 
L 222.131282 101.910313 
L 226.11802 95.130886 
L 230.104759 88.775641 
L 234.091498 82.844591 
L 237.746008 77.780226 
L 241.400519 73.071666 
L 245.055029 68.718249 
L 248.70954 64.719066 
L 252.36405 61.072967 
L 255.686332 58.063579 
L 259.008615 55.343705 
L 262.330897 52.912086 
L 265.653179 50.767408 
L 268.975461 48.908344 
L 271.965515 47.478315 
L 274.955569 46.277701 
L 277.945623 45.305701 
L 280.935677 44.561628 
L 283.925732 44.04493 
L 286.915786 43.75521 
L 289.90584 43.69224 
L 292.895894 43.855971 
L 295.885948 44.246532 
L 298.876002 44.864227 
L 301.866056 45.709524 
L 304.85611 46.783038 
L 307.846164 48.08551 
L 310.836218 49.61778 
L 313.826272 51.380762 
L 317.148554 53.611382 
L 320.470836 56.129341 
L 323.793119 58.935941 
L 327.115401 62.032415 
L 330.437683 65.419891 
L 334.092193 69.483402 
L 337.746704 73.90133 
L 341.401214 78.674539 
L 345.055725 83.803648 
L 349.042464 89.805388 
L 353.029202 96.231338 
L 357.015941 103.081443 
L 361.00268 110.355438 
L 365.321647 118.713451 
L 369.640614 127.567763 
L 373.95958 136.917616 
L 378.610776 147.539977 
L 383.261971 158.7352 
L 387.913166 170.502421 
L 392.896589 183.744041 
L 397.880013 197.640638 
L 402.863436 212.191583 
L 408.179088 228.433279 
L 413.494739 245.418479 
L 418.810391 263.14687 
L 424.458271 282.797359 
L 430.10615 303.286423 
L 435.75403 324.613955 
L 441.40191 346.779889 
L 447.382018 371.163487 
L 453.362126 396.486954 
L 455.355496 405.136966 
L 455.355496 405.136966 
" style="fill:none;stroke:#c44e52;stroke-linecap:square;stroke-width:1.5;"/>
   </g>
   <g id="line2d_76">
    <path clip-path="url(#p8bc5fdaa65)" d="M 123.127271 408.708239 
L 129.439607 381.674764 
L 135.419715 357.030057 
L 141.399823 333.325205 
L 147.379931 310.560217 
L 153.027811 289.922961 
L 158.675691 270.124088 
L 164.323571 251.16364 
L 169.639222 234.084471 
L 174.954874 217.748132 
L 180.270525 202.154735 
L 185.253949 188.210798 
L 190.237372 174.920112 
L 195.220795 162.28284 
L 199.871991 151.077716 
L 204.523186 140.442026 
L 209.174381 130.3758 
L 213.493348 121.538417 
L 217.812315 113.191768 
L 222.131282 105.335463 
L 226.11802 98.51818 
L 230.104759 92.117523 
L 234.091498 86.132655 
L 238.078236 80.562603 
L 241.732747 75.820234 
L 245.387257 71.424769 
L 249.041768 67.375552 
L 252.696278 63.672156 
L 256.018561 60.605451 
L 259.340843 57.82474 
L 262.663125 55.330642 
L 265.985407 53.124146 
L 269.30769 51.206593 
L 272.297744 49.729185 
L 275.287798 48.488449 
L 278.277852 47.485724 
L 281.267906 46.722274 
L 284.25796 46.199185 
L 287.248014 45.917265 
L 290.238068 45.876976 
L 293.228122 46.078385 
L 296.218176 46.521158 
L 299.20823 47.204596 
L 302.198284 48.127696 
L 305.188338 49.289243 
L 308.178392 50.687909 
L 311.168446 52.322366 
L 314.1585 54.191367 
L 317.480782 56.541812 
L 320.803064 59.179316 
L 324.125347 62.103078 
L 327.447629 65.312662 
L 331.102139 69.173216 
L 334.75665 73.379749 
L 338.41116 77.932806 
L 342.065671 82.833113 
L 346.05241 88.57588 
L 350.039148 94.733882 
L 354.025887 101.308041 
L 358.012626 108.299124 
L 362.331593 116.343963 
L 366.65056 124.879321 
L 370.969526 133.905511 
L 375.288493 143.422686 
L 379.939689 154.221078 
L 384.590884 165.588881 
L 389.242079 177.525982 
L 394.225502 190.947331 
L 399.208926 205.0219 
L 404.192349 219.749547 
L 409.508001 236.178745 
L 414.823652 253.350762 
L 420.139304 271.265519 
L 425.787184 291.11371 
L 431.435063 311.800281 
L 437.082943 333.325205 
L 443.063051 357.030057 
L 449.043159 381.674764 
L 455.023267 407.259317 
L 455.355496 408.708239 
L 455.355496 408.708239 
" style="fill:none;stroke:#c44e52;stroke-linecap:square;stroke-width:1.5;"/>
   </g>
   <g id="line2d_77">
    <path clip-path="url(#p8bc5fdaa65)" d="M 123.127271 394.330438 
L 129.439607 367.296973 
L 135.419715 342.652287 
L 141.399823 318.947477 
L 147.379931 296.18257 
L 153.027811 275.545458 
L 158.675691 255.746839 
L 164.323571 236.786832 
L 169.639222 219.708349 
L 174.954874 203.373105 
L 180.270525 187.781411 
L 185.253949 173.839863 
L 190.237372 160.552636 
L 195.220795 147.92026 
L 199.871991 136.721402 
L 204.523186 126.094049 
L 209.174381 116.03871 
L 213.493348 107.214173 
L 217.812315 98.883442 
L 222.131282 91.046546 
L 226.11802 84.250615 
L 230.104759 77.874877 
L 234.091498 71.918686 
L 238.078236 66.381166 
L 241.732747 61.671981 
L 245.387257 57.312771 
L 249.041768 53.302595 
L 252.696278 49.640575 
L 256.018561 46.612973 
L 259.340843 43.872131 
L 262.663125 41.417888 
L 265.985407 39.25032 
L 269.30769 37.369736 
L 272.297744 35.92301 
L 275.287798 34.70965 
L 278.277852 33.730199 
L 281.267906 32.985198 
L 284.25796 32.475128 
L 287.248014 32.200358 
L 290.238068 32.161098 
L 293.228122 32.35738 
L 296.218176 32.78905 
L 299.20823 33.455789 
L 302.198284 34.357149 
L 305.188338 35.492601 
L 308.178392 36.861596 
L 311.168446 38.463623 
L 314.1585 40.298256 
L 317.480782 42.609186 
L 320.803064 45.206722 
L 324.125347 48.09091 
L 327.447629 51.262021 
L 330.769911 54.720515 
L 334.424422 58.857505 
L 338.078932 63.343869 
L 341.733443 68.18055 
L 345.387953 73.368446 
L 349.374692 79.429449 
L 353.361431 85.910185 
L 357.348169 92.811236 
L 361.334908 100.132948 
L 365.653875 108.539657 
L 369.972842 117.440148 
L 374.291809 126.834181 
L 378.943004 137.502374 
L 383.594199 148.742034 
L 388.245394 160.552636 
L 393.228818 173.839863 
L 398.212241 187.781411 
L 403.195664 202.376836 
L 408.511316 218.665619 
L 413.826967 235.697657 
L 419.142619 253.47272 
L 424.790499 273.172687 
L 430.438379 293.711157 
L 436.086259 315.088053 
L 441.734138 337.303327 
L 447.714246 361.739153 
L 453.694354 387.114841 
L 455.355496 394.330438 
L 455.355496 394.330438 
" style="fill:none;stroke:#c44e52;stroke-linecap:square;stroke-width:1.5;"/>
   </g>
   <g id="patch_8">
    <path d="M 106.515859 427.53625 
L 106.515859 13.32 
" style="fill:none;stroke:#1a1a1a;stroke-linecap:square;stroke-linejoin:miter;stroke-width:0.8;"/>
   </g>
   <g id="patch_9">
    <path d="M 471.966907 427.53625 
L 471.966907 13.32 
" style="fill:none;stroke:#1a1a1a;stroke-linecap:square;stroke-linejoin:miter;stroke-width:0.8;"/>
   </g>
   <g id="patch_10">
    <path d="M 106.515859 427.53625 
L 471.966907 427.53625 
" style="fill:none;stroke:#1a1a1a;stroke-linecap:square;stroke-linejoin:miter;stroke-width:0.8;"/>
   </g>
   <g id="patch_11">
    <path d="M 106.515859 13.32 
L 471.966907 13.32 
" style="fill:none;stroke:#1a1a1a;stroke-linecap:square;stroke-linejoin:miter;stroke-width:0.8;"/>
   </g>
  </g>
 </g>
 <defs>
  <clipPath id="p8bc5fdaa65">
   <rect height="414.21625" width="365.451047" x="106.515859" y="13.32"/>
  </clipPath>
 </defs>
</svg>
