<?xml version="1.0" encoding="utf-8" standalone="no"?>
<!DOCTYPE svg PUBLIC "-//W3C//DTD SVG 1.1//EN"
  "http://www.w3.org/Graphics/SVG/1.1/DTD/svg11.dtd">
<!-- Created with matplotlib (http://matplotlib.org/) -->
<svg height="396pt" version="1.1" viewBox="0 0 576 396" width="576pt" xmlns="http://www.w3.org/2000/svg" xmlns:xlink="http://www.w3.org/1999/xlink">
 <defs>
  <style type="text/css">
*{stroke-linecap:butt;stroke-linejoin:round;}
  </style>
 </defs>
 <g id="figure_1">
  <g id="patch_1">
   <path d="M 0 396 
L 576 396 
L 576 0 
L 0 0 
z
" style="fill:#ffffff;"/>
  </g>
  <g id="axes_1">
   <g id="patch_2">
    <path d="M 112.3865 314.965 
L 481.996 314.965 
L 481.996 42.70125 
L 112.3865 42.70125 
z
" style="fill:#ffffff;"/>
   </g>
   <g id="matplotlib.axis_1">
    <g id="xtick_1">
     <g id="line2d_1">
      <defs>
       <path d="M 0 0 
L 0 6 
" id="m55d43ecb9a" style="stroke:#262626;"/>
      </defs>
      <g>
       <use style="fill:#262626;stroke:#262626;" x="155.400372" xlink:href="#m55d43ecb9a" y="314.965"/>
      </g>
     </g>
     <g id="text_1">
      <!-- 1 -->
      <defs>
       <path d="M 39.40625 0 
L 11.796875 0 
L 11.796875 1.5 
Q 17.296875 1.796875 19.296875 3.546875 
Q 21.296875 5.296875 21.296875 9.5 
L 21.296875 54.40625 
Q 21.296875 59.296875 18.296875 59.296875 
Q 16.90625 59.296875 13.796875 58.09375 
L 11.09375 57.09375 
L 11.09375 58.5 
L 29 67.59375 
L 29.90625 67.296875 
L 29.90625 7.59375 
Q 29.90625 4.296875 31.90625 2.890625 
Q 33.90625 1.5 39.40625 1.5 
z
" id="STIXGeneral-Regular-31"/>
      </defs>
      <g style="fill:#262626;" transform="translate(150.400372 341.624375)scale(0.2 -0.2)">
       <use xlink:href="#STIXGeneral-Regular-31"/>
      </g>
     </g>
    </g>
    <g id="xtick_2">
     <g id="line2d_2">
      <g>
       <use style="fill:#262626;stroke:#262626;" x="274.55237" xlink:href="#m55d43ecb9a" y="314.965"/>
      </g>
     </g>
     <g id="text_2">
      <!-- 2 -->
      <defs>
       <path d="M 47.40625 13.703125 
L 42 0 
L 2.90625 0 
L 2.90625 1.203125 
L 20.703125 20.09375 
Q 27.703125 27.40625 30.703125 33.5 
Q 33.703125 39.59375 33.703125 46.09375 
Q 33.703125 52.796875 30 56.5 
Q 26.296875 60.203125 19.796875 60.203125 
Q 14.40625 60.203125 11.25 57.390625 
Q 8.09375 54.59375 5.09375 47.203125 
L 3 47.703125 
Q 4.703125 57 9.84375 62.296875 
Q 15 67.59375 23.796875 67.59375 
Q 32.09375 67.59375 37.1875 62.59375 
Q 42.296875 57.59375 42.296875 50 
Q 42.296875 38.703125 29.5 25.203125 
L 13 7.59375 
L 36.40625 7.59375 
Q 39.703125 7.59375 41.640625 8.890625 
Q 43.59375 10.203125 46 14.296875 
z
" id="STIXGeneral-Regular-32"/>
      </defs>
      <g style="fill:#262626;" transform="translate(269.55237 341.624375)scale(0.2 -0.2)">
       <use xlink:href="#STIXGeneral-Regular-32"/>
      </g>
     </g>
    </g>
    <g id="xtick_3">
     <g id="line2d_3">
      <g>
       <use style="fill:#262626;stroke:#262626;" x="393.704369" xlink:href="#m55d43ecb9a" y="314.965"/>
      </g>
     </g>
     <g id="text_3">
      <!-- 3 -->
      <defs>
       <path d="M 6.09375 51 
L 4.5 51.40625 
Q 6.796875 58.90625 11.6875 63.25 
Q 16.59375 67.59375 24.09375 67.59375 
Q 31.09375 67.59375 35.390625 63.796875 
Q 39.703125 60 39.703125 53.90625 
Q 39.703125 45.703125 30.40625 40.09375 
Q 35.90625 37.703125 38.703125 34.796875 
Q 43.09375 29.90625 43.09375 21.90625 
Q 43.09375 13.90625 38.5 7.90625 
Q 35.09375 3.296875 28.75 0.9375 
Q 22.40625 -1.40625 15.296875 -1.40625 
Q 4.09375 -1.40625 4.09375 4.296875 
Q 4.09375 5.90625 5.296875 6.90625 
Q 6.5 7.90625 8.203125 7.90625 
Q 10.703125 7.90625 14.296875 5.296875 
Q 18.703125 2.203125 22.90625 2.203125 
Q 28.40625 2.203125 32.15625 6.640625 
Q 35.90625 11.09375 35.90625 17.5 
Q 35.90625 29 25.5 32 
Q 22.40625 33 15.296875 33 
L 15.296875 34.40625 
Q 20.90625 36.296875 23.703125 38 
Q 31.796875 42.59375 31.796875 51.40625 
Q 31.796875 56.40625 28.9375 59 
Q 26.09375 61.59375 21 61.59375 
Q 12 61.59375 6.09375 51 
" id="STIXGeneral-Regular-33"/>
      </defs>
      <g style="fill:#262626;" transform="translate(388.704369 341.624375)scale(0.2 -0.2)">
       <use xlink:href="#STIXGeneral-Regular-33"/>
      </g>
     </g>
    </g>
    <g id="text_4">
     <!-- Wavelength (μm) -->
     <defs>
      <path d="M 93.203125 66.203125 
L 93.203125 64.296875 
Q 89.203125 63.5 87.75 62.34375 
Q 86.296875 61.203125 84.90625 57.296875 
Q 73.5 26.703125 64.5 -1.09375 
L 63 -1.09375 
Q 56.90625 15.796875 47 41.203125 
L 31.59375 -1.09375 
L 30.09375 -1.09375 
Q 26.703125 9 19.953125 27.390625 
Q 13.203125 45.796875 10.90625 52.296875 
Q 8.40625 59.5 6.34375 61.84375 
Q 4.296875 64.203125 0.5 64.296875 
L 0.5 66.203125 
L 24.90625 66.203125 
L 24.90625 64.296875 
Q 21.203125 64.203125 19.84375 63.5 
Q 18.5 62.796875 18.5 61.203125 
Q 18.5 59.5 19.59375 56.5 
L 34 18.90625 
L 44.40625 47.203125 
L 41.59375 54.703125 
Q 39.203125 61.203125 37.5 62.703125 
Q 35.796875 64.203125 31.40625 64.296875 
L 31.40625 66.203125 
L 57.90625 66.203125 
L 57.90625 64.296875 
Q 50.203125 64.09375 50.203125 60.796875 
Q 50.203125 59.5 51.90625 55 
L 66.203125 18.59375 
L 78.796875 52.5 
Q 80.5 57.296875 80.5 60.203125 
Q 80.5 64.203125 73.5 64.296875 
L 73.5 66.203125 
z
" id="STIXGeneral-Regular-57"/>
      <path d="M 44.203125 6.59375 
L 44.203125 3.796875 
Q 40.40625 -1 35.203125 -1 
Q 29.5 -1 28.796875 6.296875 
L 28.703125 6.296875 
Q 22.296875 -1 14.203125 -1 
Q 9.5 -1 6.59375 1.75 
Q 3.703125 4.5 3.703125 9.40625 
Q 3.703125 16.40625 10.703125 21.09375 
Q 15.5 24.296875 28.703125 29.203125 
L 28.703125 34.59375 
Q 28.703125 39.09375 26.546875 41.34375 
Q 24.40625 43.59375 20.90625 43.59375 
Q 17.90625 43.59375 15.90625 42.140625 
Q 13.90625 40.703125 13.90625 38.703125 
Q 13.90625 37.796875 14.203125 36.6875 
Q 14.5 35.59375 14.5 34.5 
Q 14.5 33 13.140625 31.703125 
Q 11.796875 30.40625 9.90625 30.40625 
Q 8.203125 30.40625 6.890625 31.703125 
Q 5.59375 33 5.59375 35 
Q 5.59375 39.796875 10.703125 43 
Q 15.40625 46 22.203125 46 
Q 30.296875 46 34 41.5 
Q 35.796875 39.40625 36.296875 37.25 
Q 36.796875 35.09375 36.796875 30.40625 
L 36.796875 11.296875 
Q 36.796875 4.703125 39.90625 4.703125 
Q 41.90625 4.703125 44.203125 6.59375 
M 28.703125 12.703125 
L 28.703125 26.796875 
Q 19.5 23.59375 15.90625 20.203125 
Q 12.5 17.09375 12.5 12.5 
Q 12.5 8.703125 14.390625 6.75 
Q 16.296875 4.796875 19.40625 4.796875 
Q 22.703125 4.796875 25.203125 6.40625 
Q 27.296875 7.90625 28 9.203125 
Q 28.703125 10.5 28.703125 12.703125 
" id="STIXGeneral-Regular-61"/>
      <path d="M 47.703125 45 
L 47.703125 43.5 
Q 45.40625 43.296875 44.296875 42 
Q 43.203125 40.703125 41.203125 35.703125 
L 28.40625 3.59375 
Q 26.40625 -1.40625 25.59375 -1.40625 
Q 24.796875 -1.40625 23.796875 1.203125 
Q 23.59375 1.5 23.390625 2.203125 
Q 23.203125 2.90625 23 3.296875 
L 11 32 
Q 7.796875 39.59375 6.296875 41.4375 
Q 4.796875 43.296875 1.90625 43.5 
L 1.90625 45 
L 21.5 45 
L 21.5 43.5 
Q 18.90625 43.296875 17.90625 42.6875 
Q 16.90625 42.09375 16.90625 40.796875 
Q 16.90625 39.203125 17.796875 37 
L 28 11.40625 
L 37.90625 37.296875 
Q 38.5 38.796875 38.5 40.296875 
Q 38.5 43.09375 33.796875 43.5 
L 33.796875 45 
z
" id="STIXGeneral-Regular-76"/>
      <path d="M 40.796875 16.40625 
L 42.40625 15.703125 
Q 36.40625 -1 21.5 -1 
Q 12.703125 -1 7.59375 5.140625 
Q 2.5 11.296875 2.5 21.703125 
Q 2.5 32.40625 8.203125 39.203125 
Q 13.90625 46 23.203125 46 
Q 32.203125 46 37.09375 39.09375 
Q 40 35.09375 40.5 27.703125 
L 9.703125 27.703125 
Q 10.09375 21.40625 10.9375 18.09375 
Q 11.796875 14.796875 14.296875 11.40625 
Q 18.5 5.90625 25.40625 5.90625 
Q 30.296875 5.90625 33.640625 8.296875 
Q 37 10.703125 40.796875 16.40625 
M 9.90625 30.90625 
L 30.296875 30.90625 
Q 29.40625 37.203125 27.34375 39.796875 
Q 25.296875 42.40625 20.5 42.40625 
Q 16.296875 42.40625 13.5 39.453125 
Q 10.703125 36.5 9.90625 30.90625 
" id="STIXGeneral-Regular-65"/>
      <path d="M 25.703125 0 
L 2.09375 0 
L 2.09375 1.5 
Q 6.796875 1.90625 8.296875 3.453125 
Q 9.796875 5 9.796875 9.203125 
L 9.796875 56.09375 
Q 9.796875 59.703125 8.890625 61.09375 
Q 8 62.5 5.59375 62.5 
Q 3.5 62.5 1.90625 62.296875 
L 1.90625 63.90625 
Q 11.40625 66.203125 17.703125 68.296875 
L 18.203125 67.90625 
L 18.203125 8.703125 
Q 18.203125 4.5 19.59375 3.140625 
Q 21 1.796875 25.703125 1.5 
z
" id="STIXGeneral-Regular-6c"/>
      <path d="M 48.5 0 
L 27.703125 0 
L 27.796875 1.5 
Q 31.5 1.796875 32.75 3.640625 
Q 34 5.5 34 10.5 
L 34 30.40625 
Q 34 40.5 26.703125 40.5 
Q 24.203125 40.5 22 39.296875 
Q 19.796875 38.09375 16.40625 34.796875 
L 16.40625 7.203125 
Q 16.40625 4.203125 17.75 3 
Q 19.09375 1.796875 22.90625 1.5 
L 22.90625 0 
L 1.796875 0 
L 1.796875 1.5 
Q 5.59375 1.796875 6.796875 3.34375 
Q 8 4.90625 8 9.40625 
L 8 33.703125 
Q 8 37.40625 7.296875 38.796875 
Q 6.59375 40.203125 4.5 40.203125 
Q 2.5 40.203125 1.59375 39.796875 
L 1.59375 41.5 
Q 8.59375 43.5 15.296875 46 
L 16.09375 45.703125 
L 16.09375 37.90625 
L 16.203125 37.90625 
Q 23.296875 46 30.59375 46 
Q 36.296875 46 39.34375 42 
Q 42.40625 38 42.40625 30.59375 
L 42.40625 8.5 
Q 42.40625 4.5 43.59375 3.203125 
Q 44.796875 1.90625 48.5 1.5 
z
" id="STIXGeneral-Regular-6e"/>
      <path d="M 47 38.796875 
L 38.703125 38.796875 
Q 40.59375 34.5 40.59375 30.40625 
Q 40.59375 22.703125 35.390625 18.796875 
Q 30.203125 14.90625 25 14.90625 
Q 23.90625 14.90625 21.203125 15.203125 
L 19.296875 15.40625 
Q 17.296875 14.796875 15.296875 12.6875 
Q 13.296875 10.59375 13.296875 9.09375 
Q 13.296875 6.796875 21.09375 6.40625 
L 34 5.796875 
Q 39.5 5.59375 42.796875 2.6875 
Q 46.09375 -0.203125 46.09375 -4.90625 
Q 46.09375 -10.703125 40.09375 -15.40625 
Q 31.796875 -21.796875 20.09375 -21.796875 
Q 12.90625 -21.796875 7.84375 -18.9375 
Q 2.796875 -16.09375 2.796875 -12.09375 
Q 2.796875 -9.296875 5 -6.546875 
Q 7.203125 -3.796875 12.59375 0.09375 
Q 9.40625 1.59375 8.34375 2.6875 
Q 7.296875 3.796875 7.296875 5.40625 
Q 7.296875 8.296875 11.90625 12.296875 
Q 14.203125 14.296875 16.203125 16.296875 
Q 11.203125 18.796875 9.046875 21.890625 
Q 6.90625 25 6.90625 29.703125 
Q 6.90625 36.5 11.75 41.25 
Q 16.59375 46 23.59375 46 
Q 27.59375 46 31.59375 44.5 
L 33.796875 43.703125 
Q 36.703125 42.703125 39.296875 42.703125 
L 47 42.703125 
z
M 15.203125 33.796875 
L 15.203125 33.5 
Q 15.203125 26.296875 18.046875 21.84375 
Q 20.90625 17.40625 25.5 17.40625 
Q 28.90625 17.40625 30.90625 19.84375 
Q 32.90625 22.296875 32.90625 26.40625 
Q 32.90625 33 29.90625 38.5 
Q 27.40625 43.203125 22.59375 43.203125 
Q 19.09375 43.203125 17.140625 40.703125 
Q 15.203125 38.203125 15.203125 33.796875 
M 43.296875 -6.40625 
Q 43.296875 -3.59375 40.546875 -2.546875 
Q 37.796875 -1.5 30.90625 -1.5 
Q 21 -1.5 14.703125 -0.203125 
Q 11.703125 -3.796875 10.75 -5.4375 
Q 9.796875 -7.09375 9.796875 -8.796875 
Q 9.796875 -12.09375 13.75 -14.09375 
Q 17.703125 -16.09375 24.296875 -16.09375 
Q 32.796875 -16.09375 38.046875 -13.4375 
Q 43.296875 -10.796875 43.296875 -6.40625 
" id="STIXGeneral-Regular-67"/>
      <path d="M 26.59375 7.703125 
L 27.90625 6.59375 
Q 23.09375 -1 15.796875 -1 
Q 7 -1 7 11.703125 
L 7 41.796875 
L 1.703125 41.796875 
Q 1.296875 42.09375 1.296875 42.5 
Q 1.296875 43.296875 3 44.40625 
Q 6.796875 46.59375 12.703125 55.09375 
Q 12.90625 55.40625 13.65625 56.34375 
Q 14.40625 57.296875 14.703125 57.90625 
Q 15.40625 57.90625 15.40625 56.59375 
L 15.40625 45 
L 25.5 45 
L 25.5 41.796875 
L 15.40625 41.796875 
L 15.40625 13.203125 
Q 15.40625 8.40625 16.59375 6.296875 
Q 17.796875 4.203125 20.59375 4.203125 
Q 23.59375 4.203125 26.59375 7.703125 
" id="STIXGeneral-Regular-74"/>
      <path d="M 48.703125 0 
L 27.5 0 
L 27.5 1.5 
Q 31.90625 2 33.09375 3.5 
Q 34.296875 5 34.296875 10.203125 
L 34.296875 30 
Q 34.296875 40.59375 26.90625 40.59375 
Q 23.90625 40.59375 21.40625 39.1875 
Q 18.90625 37.796875 15.703125 34.296875 
L 15.703125 10.203125 
Q 15.703125 5 16.890625 3.5 
Q 18.09375 2 22.5 1.5 
L 22.5 0 
L 0.90625 0 
L 0.90625 1.5 
Q 5.203125 2.09375 6.25 3.5 
Q 7.296875 4.90625 7.296875 10.203125 
L 7.296875 57.296875 
Q 7.296875 60.5 6.34375 61.453125 
Q 5.40625 62.40625 2.203125 62.40625 
Q 1.296875 62.40625 1 62.296875 
L 1 63.90625 
L 3.703125 64.703125 
Q 11.40625 67 15.203125 68.296875 
L 15.703125 68 
L 15.703125 37.59375 
Q 19.203125 42.09375 22.59375 44.046875 
Q 26 46 30.40625 46 
Q 42.703125 46 42.703125 30.09375 
L 42.703125 10.203125 
Q 42.703125 5 43.640625 3.640625 
Q 44.59375 2.296875 48.703125 1.5 
z
" id="STIXGeneral-Regular-68"/>
      <path id="STIXGeneral-Regular-20"/>
      <path d="M 30.40625 -16.09375 
L 29.203125 -17.703125 
Q 17.59375 -11.09375 11.1875 0.5 
Q 4.796875 12.09375 4.796875 25.203125 
Q 4.796875 52.90625 29.5 67.59375 
L 30.40625 66 
Q 20.203125 57.296875 16.796875 48.84375 
Q 13.40625 40.40625 13.40625 25.5 
Q 13.40625 10.703125 16.90625 1.5 
Q 20.40625 -7.703125 30.40625 -16.09375 
" id="STIXGeneral-Regular-28"/>
      <path d="M 50.09375 10.59375 
L 51.59375 9.90625 
Q 46.296875 -1 40.59375 -1 
Q 34.5 -1 34.5 7.09375 
L 34.296875 7.09375 
Q 28.703125 -1 21.796875 -1 
Q 16.90625 -1 15.5 1.796875 
L 15.296875 1.796875 
L 15.296875 -13.09375 
Q 15.296875 -18.296875 13.703125 -21.703125 
L 5.5 -21.703125 
Q 7.09375 -18 7.09375 -13.203125 
L 7.09375 45 
L 15.5 45 
L 15.5 13.796875 
Q 15.5 9.703125 18.140625 7.25 
Q 20.796875 4.796875 24.09375 4.796875 
Q 28.796875 4.796875 32.203125 7.90625 
Q 33.59375 9.09375 34.046875 10.140625 
Q 34.5 11.203125 34.5 13.59375 
L 34.5 45 
L 42.90625 45 
L 42.90625 11.296875 
Q 42.90625 5.59375 44.90625 5.59375 
Q 46.40625 5.59375 47.453125 6.59375 
Q 48.5 7.59375 50.09375 10.59375 
" id="STIXGeneral-Regular-3bc"/>
      <path d="M 77.5 0 
L 55.703125 0 
L 55.703125 1.5 
Q 59.90625 1.90625 61.046875 3.25 
Q 62.203125 4.59375 62.203125 9 
L 62.203125 29.59375 
Q 62.203125 35.59375 60.453125 38.1875 
Q 58.703125 40.796875 54.5 40.796875 
Q 51 40.796875 48.546875 39.390625 
Q 46.09375 38 43.796875 34.703125 
L 43.796875 9.5 
Q 43.796875 4.703125 45.25 3.140625 
Q 46.703125 1.59375 51 1.5 
L 51 0 
L 28.59375 0 
L 28.59375 1.5 
Q 33 1.796875 34.203125 2.9375 
Q 35.40625 4.09375 35.40625 8.59375 
L 35.40625 29.703125 
Q 35.40625 40.796875 28.90625 40.796875 
Q 26.09375 40.796875 22.9375 39.546875 
Q 19.796875 38.296875 18.296875 36.5 
Q 17 35 17 34.796875 
L 17 7 
Q 17 3.796875 18.390625 2.75 
Q 19.796875 1.703125 23.796875 1.5 
L 23.796875 0 
L 1.59375 0 
L 1.59375 1.5 
Q 5.796875 1.59375 7.1875 3.046875 
Q 8.59375 4.5 8.59375 8.796875 
L 8.59375 33.59375 
Q 8.59375 37.296875 7.796875 38.75 
Q 7 40.203125 5.09375 40.203125 
Q 3.59375 40.203125 1.90625 39.796875 
L 1.90625 41.5 
Q 8.703125 43.40625 15.796875 46 
L 16.59375 45.703125 
L 16.59375 38.296875 
L 16.796875 38.296875 
Q 21.296875 43 24.75 44.5 
Q 28.203125 46 32.09375 46 
Q 40 46 42.703125 37.59375 
Q 50.5 46 59 46 
Q 70.59375 46 70.59375 28 
L 70.59375 7.703125 
Q 70.59375 4.40625 71.59375 3.15625 
Q 72.59375 1.90625 74.90625 1.703125 
L 77.5 1.5 
z
" id="STIXGeneral-Regular-6d"/>
      <path d="M 2.90625 66 
L 4.09375 67.59375 
Q 15.5 60.796875 22 49.1875 
Q 28.5 37.59375 28.5 24.703125 
Q 28.5 -2.59375 3.796875 -17.703125 
L 2.90625 -16.09375 
Q 13.203125 -7.59375 16.546875 0.84375 
Q 19.90625 9.296875 19.90625 24.40625 
Q 19.90625 39.59375 16.546875 48.75 
Q 13.203125 57.90625 2.90625 66 
" id="STIXGeneral-Regular-29"/>
     </defs>
     <g style="fill:#262626;" transform="translate(219.596562 364.990313)scale(0.22 -0.22)">
      <use xlink:href="#STIXGeneral-Regular-57"/>
      <use x="94.399994" xlink:href="#STIXGeneral-Regular-61"/>
      <use x="138.799988" xlink:href="#STIXGeneral-Regular-76"/>
      <use x="188.799973" xlink:href="#STIXGeneral-Regular-65"/>
      <use x="233.199966" xlink:href="#STIXGeneral-Regular-6c"/>
      <use x="260.999954" xlink:href="#STIXGeneral-Regular-65"/>
      <use x="305.399948" xlink:href="#STIXGeneral-Regular-6e"/>
      <use x="355.399933" xlink:href="#STIXGeneral-Regular-67"/>
      <use x="405.399918" xlink:href="#STIXGeneral-Regular-74"/>
      <use x="433.199905" xlink:href="#STIXGeneral-Regular-68"/>
      <use x="483.19989" xlink:href="#STIXGeneral-Regular-20"/>
      <use x="508.199875" xlink:href="#STIXGeneral-Regular-28"/>
      <use x="541.499863" xlink:href="#STIXGeneral-Regular-3bc"/>
      <use x="594.29985" xlink:href="#STIXGeneral-Regular-6d"/>
      <use x="672.099838" xlink:href="#STIXGeneral-Regular-29"/>
     </g>
    </g>
   </g>
   <g id="matplotlib.axis_2">
    <g id="ytick_1">
     <g id="line2d_4">
      <defs>
       <path d="M 0 0 
L -6 0 
" id="ma1f0c10b35" style="stroke:#4c72b0;"/>
      </defs>
      <g>
       <use style="fill:#4c72b0;stroke:#4c72b0;" x="112.3865" xlink:href="#ma1f0c10b35" y="264.664073"/>
      </g>
     </g>
     <g id="text_5">
      <!-- 0.015 -->
      <defs>
       <path d="M 47.59375 33 
Q 47.59375 26.296875 46.296875 20.34375 
Q 45 14.40625 42.453125 9.40625 
Q 39.90625 4.40625 35.40625 1.5 
Q 30.90625 -1.40625 25 -1.40625 
Q 18.90625 -1.40625 14.296875 1.6875 
Q 9.703125 4.796875 7.203125 10 
Q 4.703125 15.203125 3.546875 21.09375 
Q 2.40625 27 2.40625 33.59375 
Q 2.40625 42.90625 4.703125 50.34375 
Q 7 57.796875 12.34375 62.6875 
Q 17.703125 67.59375 25.40625 67.59375 
Q 35.203125 67.59375 41.390625 58 
Q 47.59375 48.40625 47.59375 33 
M 38 32.5 
Q 38 48.296875 34.640625 56.640625 
Q 31.296875 65 24.796875 65 
Q 18.59375 65 15.296875 56.59375 
Q 12 48.203125 12 32.90625 
Q 12 17.5 15.296875 9.34375 
Q 18.59375 1.203125 25 1.203125 
Q 31.296875 1.203125 34.640625 9.34375 
Q 38 17.5 38 32.5 
" id="STIXGeneral-Regular-30"/>
       <path d="M 18.09375 4.296875 
Q 18.09375 2.09375 16.4375 0.5 
Q 14.796875 -1.09375 12.5 -1.09375 
Q 10.203125 -1.09375 8.59375 0.5 
Q 7 2.09375 7 4.390625 
Q 7 6.703125 8.640625 8.34375 
Q 10.296875 10 12.59375 10 
Q 14.796875 10 16.4375 8.296875 
Q 18.09375 6.59375 18.09375 4.296875 
" id="STIXGeneral-Regular-2e"/>
       <path d="M 43.796875 68.09375 
L 40.203125 59.59375 
Q 39.59375 58.296875 37.5 58.296875 
L 18.09375 58.296875 
L 14.09375 49.796875 
Q 25.09375 47.703125 30 45.25 
Q 34.90625 42.796875 39.09375 37 
Q 42.59375 32.203125 42.59375 24.296875 
Q 42.59375 17.09375 40.25 12.1875 
Q 37.90625 7.296875 32.796875 3.5 
Q 26 -1.40625 15.796875 -1.40625 
Q 10.09375 -1.40625 6.59375 0.296875 
Q 3.09375 2 3.09375 4.796875 
Q 3.09375 8.59375 7.59375 8.59375 
Q 11.203125 8.59375 15 5.5 
Q 18.90625 2.296875 22.09375 2.296875 
Q 27.296875 2.296875 31.4375 7.5 
Q 35.59375 12.703125 35.59375 19.203125 
Q 35.59375 28.796875 28.90625 34.203125 
Q 20.203125 41.203125 7.59375 41.203125 
Q 6.40625 41.203125 6.40625 42 
L 6.5 42.5 
L 17.40625 66.203125 
L 38.09375 66.203125 
Q 39.796875 66.203125 40.75 66.703125 
Q 41.703125 67.203125 42.90625 68.796875 
z
" id="STIXGeneral-Regular-35"/>
      </defs>
      <g style="fill:#4c72b0;" transform="translate(54.3865 271.49376)scale(0.2 -0.2)">
       <use xlink:href="#STIXGeneral-Regular-30"/>
       <use x="49.999985" xlink:href="#STIXGeneral-Regular-2e"/>
       <use x="74.999969" xlink:href="#STIXGeneral-Regular-30"/>
       <use x="124.999954" xlink:href="#STIXGeneral-Regular-31"/>
       <use x="174.999939" xlink:href="#STIXGeneral-Regular-35"/>
      </g>
     </g>
    </g>
    <g id="ytick_2">
     <g id="line2d_5">
      <g>
       <use style="fill:#4c72b0;stroke:#4c72b0;" x="112.3865" xlink:href="#ma1f0c10b35" y="198.79381"/>
      </g>
     </g>
     <g id="text_6">
      <!-- 0.020 -->
      <g style="fill:#4c72b0;" transform="translate(54.3865 205.623498)scale(0.2 -0.2)">
       <use xlink:href="#STIXGeneral-Regular-30"/>
       <use x="49.999985" xlink:href="#STIXGeneral-Regular-2e"/>
       <use x="74.999969" xlink:href="#STIXGeneral-Regular-30"/>
       <use x="124.999954" xlink:href="#STIXGeneral-Regular-32"/>
       <use x="174.999939" xlink:href="#STIXGeneral-Regular-30"/>
      </g>
     </g>
    </g>
    <g id="ytick_3">
     <g id="line2d_6">
      <g>
       <use style="fill:#4c72b0;stroke:#4c72b0;" x="112.3865" xlink:href="#ma1f0c10b35" y="132.923548"/>
      </g>
     </g>
     <g id="text_7">
      <!-- 0.025 -->
      <g style="fill:#4c72b0;" transform="translate(54.3865 139.753236)scale(0.2 -0.2)">
       <use xlink:href="#STIXGeneral-Regular-30"/>
       <use x="49.999985" xlink:href="#STIXGeneral-Regular-2e"/>
       <use x="74.999969" xlink:href="#STIXGeneral-Regular-30"/>
       <use x="124.999954" xlink:href="#STIXGeneral-Regular-32"/>
       <use x="174.999939" xlink:href="#STIXGeneral-Regular-35"/>
      </g>
     </g>
    </g>
    <g id="ytick_4">
     <g id="line2d_7">
      <g>
       <use style="fill:#4c72b0;stroke:#4c72b0;" x="112.3865" xlink:href="#ma1f0c10b35" y="67.053286"/>
      </g>
     </g>
     <g id="text_8">
      <!-- 0.030 -->
      <g style="fill:#4c72b0;" transform="translate(54.3865 73.882974)scale(0.2 -0.2)">
       <use xlink:href="#STIXGeneral-Regular-30"/>
       <use x="49.999985" xlink:href="#STIXGeneral-Regular-2e"/>
       <use x="74.999969" xlink:href="#STIXGeneral-Regular-30"/>
       <use x="124.999954" xlink:href="#STIXGeneral-Regular-33"/>
       <use x="174.999939" xlink:href="#STIXGeneral-Regular-30"/>
      </g>
     </g>
    </g>
    <g id="text_9">
     <!-- Fluence ($\mathrm{J/cm^2}$) -->
     <defs>
      <path d="M 54.59375 51.90625 
L 52.09375 51.90625 
Q 51 58.703125 48.34375 60.546875 
Q 45.703125 62.40625 36.703125 62.40625 
L 23.5 62.40625 
Q 21.40625 62.40625 20.75 61.65625 
Q 20.09375 60.90625 20.09375 58.5 
L 20.09375 36.796875 
L 34.296875 36.796875 
Q 40.59375 36.796875 42.75 38.59375 
Q 44.90625 40.40625 45.59375 46.296875 
L 47.90625 46.296875 
L 47.90625 23 
L 45.59375 23 
Q 45 29.09375 42.890625 30.890625 
Q 40.796875 32.703125 34.296875 32.703125 
L 20.09375 32.703125 
L 20.09375 11.203125 
Q 20.09375 5.5 21.75 3.84375 
Q 23.40625 2.203125 29.203125 1.90625 
L 29.203125 0 
L 1.09375 0 
L 1.09375 1.90625 
Q 6.796875 2.296875 8.34375 4.046875 
Q 9.90625 5.796875 9.90625 12.296875 
L 9.90625 55.09375 
Q 9.90625 60.59375 8.40625 62.25 
Q 6.90625 63.90625 1.203125 64.296875 
L 1.203125 66.203125 
L 54.09375 66.203125 
z
" id="STIXGeneral-Regular-46"/>
      <path d="M 48 5 
L 48 3.59375 
Q 40.203125 1.5 34.296875 -0.90625 
L 33.796875 -0.59375 
L 33.796875 7.59375 
L 33.59375 7.59375 
Q 27.296875 -1 19.296875 -1 
Q 13.59375 -1 10.34375 2.5 
Q 7.09375 6 7.09375 11.796875 
L 7.09375 36.90625 
Q 7.09375 40.59375 5.796875 42 
Q 4.5 43.40625 0.90625 43.59375 
L 0.90625 45 
L 15.5 45 
L 15.5 12.703125 
Q 15.5 9.296875 17.546875 7.046875 
Q 19.59375 4.796875 22.59375 4.796875 
Q 27.5 4.796875 31 7.90625 
Q 32.296875 9.09375 32.796875 10.140625 
Q 33.296875 11.203125 33.296875 13.703125 
L 33.296875 36.796875 
Q 33.296875 40.703125 31.890625 41.84375 
Q 30.5 43 25.90625 43.296875 
L 25.90625 45 
L 41.703125 45 
L 41.703125 10.703125 
Q 41.703125 7.203125 42.84375 6.09375 
Q 44 5 47.40625 5 
z
" id="STIXGeneral-Regular-75"/>
      <path d="M 39.796875 15.59375 
L 41.203125 14.703125 
Q 36.90625 6.296875 33 3.203125 
Q 27.90625 -1 21.5 -1 
Q 13.203125 -1 7.84375 5.25 
Q 2.5 11.5 2.5 21.203125 
Q 2.5 33.90625 10.90625 40.90625 
Q 17.09375 46 24.40625 46 
Q 30.703125 46 35.25 42.953125 
Q 39.796875 39.90625 39.796875 35.703125 
Q 39.796875 34 38.390625 32.75 
Q 37 31.5 35.09375 31.5 
Q 31.59375 31.5 30.296875 36.09375 
L 29.703125 38.296875 
Q 28.90625 41.09375 27.703125 42.09375 
Q 26.5 43.09375 23.796875 43.09375 
Q 17.703125 43.09375 13.953125 38.296875 
Q 10.203125 33.5 10.203125 25.703125 
Q 10.203125 17.09375 14.5 11.640625 
Q 18.796875 6.203125 25.703125 6.203125 
Q 30 6.203125 33.09375 8.25 
Q 36.203125 10.296875 39.796875 15.59375 
" id="STIXGeneral-Regular-63"/>
      <path d="M 35.40625 66.203125 
L 35.40625 64.296875 
Q 29.296875 63.796875 27.75 62.25 
Q 26.203125 60.703125 26.203125 54.90625 
L 26.203125 18.5 
Q 26.203125 -1.40625 9.5 -1.40625 
Q 4.90625 -1.40625 2.15625 0.5 
Q -0.59375 2.40625 -0.59375 5.796875 
Q -0.59375 7.796875 0.84375 9.390625 
Q 2.296875 11 4.296875 11 
Q 7.59375 11 9.203125 6.796875 
Q 9.40625 6.296875 9.703125 5.4375 
Q 10 4.59375 10.140625 4.140625 
Q 10.296875 3.703125 10.59375 3.25 
Q 10.90625 2.796875 11.296875 2.59375 
Q 11.703125 2.40625 12.296875 2.40625 
Q 14.5 2.40625 15.25 3.953125 
Q 16 5.5 16 9.40625 
L 16 55 
Q 16 60.90625 14.5 62.34375 
Q 13 63.796875 6.703125 64.296875 
L 6.703125 66.203125 
z
" id="STIXGeneral-Regular-4a"/>
      <path d="M 28.703125 67.59375 
L 5.90625 -1.40625 
L -0.90625 -1.40625 
L 22 67.59375 
z
" id="STIXGeneral-Regular-2f"/>
     </defs>
     <g style="fill:#4c72b0;" transform="translate(45.611813 248.903125)rotate(-90)scale(0.22 -0.22)">
      <use transform="translate(0 0.684375)" xlink:href="#STIXGeneral-Regular-46"/>
      <use transform="translate(55.599991 0.684375)" xlink:href="#STIXGeneral-Regular-6c"/>
      <use transform="translate(83.399979 0.684375)" xlink:href="#STIXGeneral-Regular-75"/>
      <use transform="translate(133.399963 0.684375)" xlink:href="#STIXGeneral-Regular-65"/>
      <use transform="translate(177.799957 0.684375)" xlink:href="#STIXGeneral-Regular-6e"/>
      <use transform="translate(227.799942 0.684375)" xlink:href="#STIXGeneral-Regular-63"/>
      <use transform="translate(272.199936 0.684375)" xlink:href="#STIXGeneral-Regular-65"/>
      <use transform="translate(316.59993 0.684375)" xlink:href="#STIXGeneral-Regular-20"/>
      <use transform="translate(341.599915 0.684375)" xlink:href="#STIXGeneral-Regular-28"/>
      <use transform="translate(374.899902 0.684375)" xlink:href="#STIXGeneral-Regular-4a"/>
      <use transform="translate(412.19989 0.684375)" xlink:href="#STIXGeneral-Regular-2f"/>
      <use transform="translate(439.999878 0.684375)" xlink:href="#STIXGeneral-Regular-63"/>
      <use transform="translate(484.399872 0.684375)" xlink:href="#STIXGeneral-Regular-6d"/>
      <use transform="translate(563.77486 36.684375)scale(0.7)" xlink:href="#STIXGeneral-Regular-32"/>
      <use transform="translate(603.274849 0.684375)" xlink:href="#STIXGeneral-Regular-29"/>
     </g>
    </g>
   </g>
   <g id="line2d_8">
    <path clip-path="url(#p219c14aaa7)" d="M 129.186932 63.061149 
L 130.378452 75.03756 
L 131.569972 87.013972 
L 132.761492 102.98252 
L 133.953012 114.958931 
L 135.144532 122.943206 
L 136.336052 134.919617 
L 137.527572 142.903891 
L 138.719092 154.880302 
L 141.102132 170.848851 
L 142.293652 174.840988 
L 144.676692 190.809536 
L 147.059732 198.79381 
L 148.251252 206.778085 
L 149.442772 210.770222 
L 150.634292 218.754496 
L 155.400372 234.723044 
L 156.591892 242.707319 
L 160.166451 254.68373 
L 161.357971 254.68373 
L 163.741011 262.668004 
L 164.932531 262.668004 
L 166.124051 266.660141 
L 167.315571 266.660141 
L 169.698611 274.644415 
L 170.890131 274.644415 
L 172.081651 278.636552 
L 173.273171 278.636552 
L 174.464691 282.62869 
L 176.847731 282.62869 
L 178.039251 286.620827 
L 180.422291 286.620827 
L 181.613811 290.612964 
L 187.571411 290.612964 
L 188.762931 286.620827 
L 189.954451 286.620827 
L 191.145971 282.62869 
L 192.337491 282.62869 
L 194.720531 274.644415 
L 195.912051 266.660141 
L 197.103571 174.840988 
L 198.295091 150.888165 
L 199.486611 130.92748 
L 203.061171 94.998246 
L 206.635731 71.045423 
L 210.210291 59.069012 
L 212.593331 59.069012 
L 213.784851 55.076875 
L 214.976371 55.076875 
L 216.167891 59.069012 
L 217.359411 59.069012 
L 222.125491 75.03756 
L 223.317011 83.021835 
L 224.508531 87.013972 
L 225.700051 94.998246 
L 226.891571 98.990383 
L 228.083091 106.974657 
L 230.466131 114.958931 
L 231.657651 122.943206 
L 237.615251 142.903891 
L 238.806771 150.888165 
L 251.91349 194.801673 
L 253.10501 194.801673 
L 257.87109 210.770222 
L 259.06261 210.770222 
L 262.63717 222.746633 
L 263.82869 222.746633 
L 266.21173 230.730907 
L 267.40325 230.730907 
L 269.78629 238.715181 
L 270.97781 238.715181 
L 272.16933 242.707319 
L 273.36085 242.707319 
L 274.55237 246.699456 
L 275.74389 246.699456 
L 276.93541 250.691593 
L 278.12693 250.691593 
L 279.31845 254.68373 
L 280.50997 254.68373 
L 281.70149 258.675867 
L 284.08453 258.675867 
L 285.27605 262.668004 
L 286.46757 262.668004 
L 287.65909 266.660141 
L 288.85061 266.660141 
L 290.04213 270.652278 
L 292.42517 270.652278 
L 293.61669 274.644415 
L 295.99973 274.644415 
L 297.19125 278.636552 
L 299.57429 278.636552 
L 300.76581 282.62869 
L 303.14885 282.62869 
L 304.34037 286.620827 
L 306.72341 286.620827 
L 307.91493 290.612964 
L 317.44709 290.612964 
L 318.63861 286.620827 
L 319.83013 274.644415 
L 321.02165 266.660141 
L 322.21317 262.668004 
L 323.40469 262.668004 
L 325.78773 254.68373 
L 328.17077 254.68373 
L 329.36229 250.691593 
L 331.74533 250.691593 
L 332.93685 246.699456 
L 349.618129 246.699456 
L 350.809649 250.691593 
L 355.575729 250.691593 
L 356.767249 254.68373 
L 361.533329 254.68373 
L 362.724849 258.675867 
L 366.299409 258.675867 
L 367.490929 262.668004 
L 369.873969 262.668004 
L 371.065489 266.660141 
L 373.448529 266.660141 
L 374.640049 270.652278 
L 378.214609 270.652278 
L 379.406129 274.644415 
L 381.789169 274.644415 
L 382.980689 278.636552 
L 386.555249 278.636552 
L 387.746769 282.62869 
L 390.129809 282.62869 
L 391.321329 286.620827 
L 393.704369 286.620827 
L 394.895889 290.612964 
L 398.470449 290.612964 
L 399.661969 294.605101 
L 403.236529 294.605101 
L 404.428049 298.597238 
L 409.194129 298.597238 
L 410.385649 302.589375 
L 422.300849 302.589375 
L 424.683889 294.605101 
L 427.066929 294.605101 
L 428.258449 290.612964 
L 436.599088 290.612964 
L 437.790608 286.620827 
L 438.982128 290.612964 
L 440.173648 290.612964 
L 441.365168 286.620827 
L 442.556688 290.612964 
L 443.748208 290.612964 
L 444.939728 286.620827 
L 446.131248 290.612964 
L 459.237968 290.612964 
L 460.429488 294.605101 
L 465.195568 294.605101 
L 465.195568 294.605101 
" style="fill:none;stroke:#4c72b0;stroke-linecap:round;stroke-width:1.75;"/>
    <defs>
     <path d="M 0 3.5 
C 0.928211 3.5 1.81853 3.131218 2.474874 2.474874 
C 3.131218 1.81853 3.5 0.928211 3.5 0 
C 3.5 -0.928211 3.131218 -1.81853 2.474874 -2.474874 
C 1.81853 -3.131218 0.928211 -3.5 0 -3.5 
C -0.928211 -3.5 -1.81853 -3.131218 -2.474874 -2.474874 
C -3.131218 -1.81853 -3.5 -0.928211 -3.5 0 
C -3.5 0.928211 -3.131218 1.81853 -2.474874 2.474874 
C -1.81853 3.131218 -0.928211 3.5 0 3.5 
z
" id="mf908c80d69"/>
    </defs>
    <g clip-path="url(#p219c14aaa7)">
     <use style="fill:#4c72b0;" x="129.186932" xlink:href="#mf908c80d69" y="63.061149"/>
     <use style="fill:#4c72b0;" x="130.378452" xlink:href="#mf908c80d69" y="75.03756"/>
     <use style="fill:#4c72b0;" x="131.569972" xlink:href="#mf908c80d69" y="87.013972"/>
     <use style="fill:#4c72b0;" x="132.761492" xlink:href="#mf908c80d69" y="102.98252"/>
     <use style="fill:#4c72b0;" x="133.953012" xlink:href="#mf908c80d69" y="114.958931"/>
     <use style="fill:#4c72b0;" x="135.144532" xlink:href="#mf908c80d69" y="122.943206"/>
     <use style="fill:#4c72b0;" x="136.336052" xlink:href="#mf908c80d69" y="134.919617"/>
     <use style="fill:#4c72b0;" x="137.527572" xlink:href="#mf908c80d69" y="142.903891"/>
     <use style="fill:#4c72b0;" x="138.719092" xlink:href="#mf908c80d69" y="154.880302"/>
     <use style="fill:#4c72b0;" x="139.910612" xlink:href="#mf908c80d69" y="162.864577"/>
     <use style="fill:#4c72b0;" x="141.102132" xlink:href="#mf908c80d69" y="170.848851"/>
     <use style="fill:#4c72b0;" x="142.293652" xlink:href="#mf908c80d69" y="174.840988"/>
     <use style="fill:#4c72b0;" x="143.485172" xlink:href="#mf908c80d69" y="182.825262"/>
     <use style="fill:#4c72b0;" x="144.676692" xlink:href="#mf908c80d69" y="190.809536"/>
     <use style="fill:#4c72b0;" x="145.868212" xlink:href="#mf908c80d69" y="194.801673"/>
     <use style="fill:#4c72b0;" x="147.059732" xlink:href="#mf908c80d69" y="198.79381"/>
     <use style="fill:#4c72b0;" x="148.251252" xlink:href="#mf908c80d69" y="206.778085"/>
     <use style="fill:#4c72b0;" x="149.442772" xlink:href="#mf908c80d69" y="210.770222"/>
     <use style="fill:#4c72b0;" x="150.634292" xlink:href="#mf908c80d69" y="218.754496"/>
     <use style="fill:#4c72b0;" x="151.825812" xlink:href="#mf908c80d69" y="222.746633"/>
     <use style="fill:#4c72b0;" x="153.017332" xlink:href="#mf908c80d69" y="226.73877"/>
     <use style="fill:#4c72b0;" x="154.208852" xlink:href="#mf908c80d69" y="230.730907"/>
     <use style="fill:#4c72b0;" x="155.400372" xlink:href="#mf908c80d69" y="234.723044"/>
     <use style="fill:#4c72b0;" x="156.591892" xlink:href="#mf908c80d69" y="242.707319"/>
     <use style="fill:#4c72b0;" x="157.783412" xlink:href="#mf908c80d69" y="246.699456"/>
     <use style="fill:#4c72b0;" x="158.974931" xlink:href="#mf908c80d69" y="250.691593"/>
     <use style="fill:#4c72b0;" x="160.166451" xlink:href="#mf908c80d69" y="254.68373"/>
     <use style="fill:#4c72b0;" x="161.357971" xlink:href="#mf908c80d69" y="254.68373"/>
     <use style="fill:#4c72b0;" x="162.549491" xlink:href="#mf908c80d69" y="258.675867"/>
     <use style="fill:#4c72b0;" x="163.741011" xlink:href="#mf908c80d69" y="262.668004"/>
     <use style="fill:#4c72b0;" x="164.932531" xlink:href="#mf908c80d69" y="262.668004"/>
     <use style="fill:#4c72b0;" x="166.124051" xlink:href="#mf908c80d69" y="266.660141"/>
     <use style="fill:#4c72b0;" x="167.315571" xlink:href="#mf908c80d69" y="266.660141"/>
     <use style="fill:#4c72b0;" x="168.507091" xlink:href="#mf908c80d69" y="270.652278"/>
     <use style="fill:#4c72b0;" x="169.698611" xlink:href="#mf908c80d69" y="274.644415"/>
     <use style="fill:#4c72b0;" x="170.890131" xlink:href="#mf908c80d69" y="274.644415"/>
     <use style="fill:#4c72b0;" x="172.081651" xlink:href="#mf908c80d69" y="278.636552"/>
     <use style="fill:#4c72b0;" x="173.273171" xlink:href="#mf908c80d69" y="278.636552"/>
     <use style="fill:#4c72b0;" x="174.464691" xlink:href="#mf908c80d69" y="282.62869"/>
     <use style="fill:#4c72b0;" x="175.656211" xlink:href="#mf908c80d69" y="282.62869"/>
     <use style="fill:#4c72b0;" x="176.847731" xlink:href="#mf908c80d69" y="282.62869"/>
     <use style="fill:#4c72b0;" x="178.039251" xlink:href="#mf908c80d69" y="286.620827"/>
     <use style="fill:#4c72b0;" x="179.230771" xlink:href="#mf908c80d69" y="286.620827"/>
     <use style="fill:#4c72b0;" x="180.422291" xlink:href="#mf908c80d69" y="286.620827"/>
     <use style="fill:#4c72b0;" x="181.613811" xlink:href="#mf908c80d69" y="290.612964"/>
     <use style="fill:#4c72b0;" x="182.805331" xlink:href="#mf908c80d69" y="290.612964"/>
     <use style="fill:#4c72b0;" x="183.996851" xlink:href="#mf908c80d69" y="290.612964"/>
     <use style="fill:#4c72b0;" x="185.188371" xlink:href="#mf908c80d69" y="290.612964"/>
     <use style="fill:#4c72b0;" x="186.379891" xlink:href="#mf908c80d69" y="290.612964"/>
     <use style="fill:#4c72b0;" x="187.571411" xlink:href="#mf908c80d69" y="290.612964"/>
     <use style="fill:#4c72b0;" x="188.762931" xlink:href="#mf908c80d69" y="286.620827"/>
     <use style="fill:#4c72b0;" x="189.954451" xlink:href="#mf908c80d69" y="286.620827"/>
     <use style="fill:#4c72b0;" x="191.145971" xlink:href="#mf908c80d69" y="282.62869"/>
     <use style="fill:#4c72b0;" x="192.337491" xlink:href="#mf908c80d69" y="282.62869"/>
     <use style="fill:#4c72b0;" x="193.529011" xlink:href="#mf908c80d69" y="278.636552"/>
     <use style="fill:#4c72b0;" x="194.720531" xlink:href="#mf908c80d69" y="274.644415"/>
     <use style="fill:#4c72b0;" x="195.912051" xlink:href="#mf908c80d69" y="266.660141"/>
     <use style="fill:#4c72b0;" x="197.103571" xlink:href="#mf908c80d69" y="174.840988"/>
     <use style="fill:#4c72b0;" x="198.295091" xlink:href="#mf908c80d69" y="150.888165"/>
     <use style="fill:#4c72b0;" x="199.486611" xlink:href="#mf908c80d69" y="130.92748"/>
     <use style="fill:#4c72b0;" x="200.678131" xlink:href="#mf908c80d69" y="118.951069"/>
     <use style="fill:#4c72b0;" x="201.869651" xlink:href="#mf908c80d69" y="106.974657"/>
     <use style="fill:#4c72b0;" x="203.061171" xlink:href="#mf908c80d69" y="94.998246"/>
     <use style="fill:#4c72b0;" x="204.252691" xlink:href="#mf908c80d69" y="87.013972"/>
     <use style="fill:#4c72b0;" x="205.444211" xlink:href="#mf908c80d69" y="79.029698"/>
     <use style="fill:#4c72b0;" x="206.635731" xlink:href="#mf908c80d69" y="71.045423"/>
     <use style="fill:#4c72b0;" x="207.827251" xlink:href="#mf908c80d69" y="67.053286"/>
     <use style="fill:#4c72b0;" x="209.018771" xlink:href="#mf908c80d69" y="63.061149"/>
     <use style="fill:#4c72b0;" x="210.210291" xlink:href="#mf908c80d69" y="59.069012"/>
     <use style="fill:#4c72b0;" x="211.401811" xlink:href="#mf908c80d69" y="59.069012"/>
     <use style="fill:#4c72b0;" x="212.593331" xlink:href="#mf908c80d69" y="59.069012"/>
     <use style="fill:#4c72b0;" x="213.784851" xlink:href="#mf908c80d69" y="55.076875"/>
     <use style="fill:#4c72b0;" x="214.976371" xlink:href="#mf908c80d69" y="55.076875"/>
     <use style="fill:#4c72b0;" x="216.167891" xlink:href="#mf908c80d69" y="59.069012"/>
     <use style="fill:#4c72b0;" x="217.359411" xlink:href="#mf908c80d69" y="59.069012"/>
     <use style="fill:#4c72b0;" x="218.550931" xlink:href="#mf908c80d69" y="63.061149"/>
     <use style="fill:#4c72b0;" x="219.742451" xlink:href="#mf908c80d69" y="67.053286"/>
     <use style="fill:#4c72b0;" x="220.933971" xlink:href="#mf908c80d69" y="71.045423"/>
     <use style="fill:#4c72b0;" x="222.125491" xlink:href="#mf908c80d69" y="75.03756"/>
     <use style="fill:#4c72b0;" x="223.317011" xlink:href="#mf908c80d69" y="83.021835"/>
     <use style="fill:#4c72b0;" x="224.508531" xlink:href="#mf908c80d69" y="87.013972"/>
     <use style="fill:#4c72b0;" x="225.700051" xlink:href="#mf908c80d69" y="94.998246"/>
     <use style="fill:#4c72b0;" x="226.891571" xlink:href="#mf908c80d69" y="98.990383"/>
     <use style="fill:#4c72b0;" x="228.083091" xlink:href="#mf908c80d69" y="106.974657"/>
     <use style="fill:#4c72b0;" x="229.274611" xlink:href="#mf908c80d69" y="110.966794"/>
     <use style="fill:#4c72b0;" x="230.466131" xlink:href="#mf908c80d69" y="114.958931"/>
     <use style="fill:#4c72b0;" x="231.657651" xlink:href="#mf908c80d69" y="122.943206"/>
     <use style="fill:#4c72b0;" x="232.849171" xlink:href="#mf908c80d69" y="126.935343"/>
     <use style="fill:#4c72b0;" x="234.040691" xlink:href="#mf908c80d69" y="130.92748"/>
     <use style="fill:#4c72b0;" x="235.232211" xlink:href="#mf908c80d69" y="134.919617"/>
     <use style="fill:#4c72b0;" x="236.423731" xlink:href="#mf908c80d69" y="138.911754"/>
     <use style="fill:#4c72b0;" x="237.615251" xlink:href="#mf908c80d69" y="142.903891"/>
     <use style="fill:#4c72b0;" x="238.806771" xlink:href="#mf908c80d69" y="150.888165"/>
     <use style="fill:#4c72b0;" x="239.998291" xlink:href="#mf908c80d69" y="154.880302"/>
     <use style="fill:#4c72b0;" x="241.189811" xlink:href="#mf908c80d69" y="158.87244"/>
     <use style="fill:#4c72b0;" x="242.381331" xlink:href="#mf908c80d69" y="162.864577"/>
     <use style="fill:#4c72b0;" x="243.572851" xlink:href="#mf908c80d69" y="166.856714"/>
     <use style="fill:#4c72b0;" x="244.764371" xlink:href="#mf908c80d69" y="170.848851"/>
     <use style="fill:#4c72b0;" x="245.955891" xlink:href="#mf908c80d69" y="174.840988"/>
     <use style="fill:#4c72b0;" x="247.147411" xlink:href="#mf908c80d69" y="178.833125"/>
     <use style="fill:#4c72b0;" x="248.338931" xlink:href="#mf908c80d69" y="182.825262"/>
     <use style="fill:#4c72b0;" x="249.530451" xlink:href="#mf908c80d69" y="186.817399"/>
     <use style="fill:#4c72b0;" x="250.721971" xlink:href="#mf908c80d69" y="190.809536"/>
     <use style="fill:#4c72b0;" x="251.91349" xlink:href="#mf908c80d69" y="194.801673"/>
     <use style="fill:#4c72b0;" x="253.10501" xlink:href="#mf908c80d69" y="194.801673"/>
     <use style="fill:#4c72b0;" x="254.29653" xlink:href="#mf908c80d69" y="198.79381"/>
     <use style="fill:#4c72b0;" x="255.48805" xlink:href="#mf908c80d69" y="202.785948"/>
     <use style="fill:#4c72b0;" x="256.67957" xlink:href="#mf908c80d69" y="206.778085"/>
     <use style="fill:#4c72b0;" x="257.87109" xlink:href="#mf908c80d69" y="210.770222"/>
     <use style="fill:#4c72b0;" x="259.06261" xlink:href="#mf908c80d69" y="210.770222"/>
     <use style="fill:#4c72b0;" x="260.25413" xlink:href="#mf908c80d69" y="214.762359"/>
     <use style="fill:#4c72b0;" x="261.44565" xlink:href="#mf908c80d69" y="218.754496"/>
     <use style="fill:#4c72b0;" x="262.63717" xlink:href="#mf908c80d69" y="222.746633"/>
     <use style="fill:#4c72b0;" x="263.82869" xlink:href="#mf908c80d69" y="222.746633"/>
     <use style="fill:#4c72b0;" x="265.02021" xlink:href="#mf908c80d69" y="226.73877"/>
     <use style="fill:#4c72b0;" x="266.21173" xlink:href="#mf908c80d69" y="230.730907"/>
     <use style="fill:#4c72b0;" x="267.40325" xlink:href="#mf908c80d69" y="230.730907"/>
     <use style="fill:#4c72b0;" x="268.59477" xlink:href="#mf908c80d69" y="234.723044"/>
     <use style="fill:#4c72b0;" x="269.78629" xlink:href="#mf908c80d69" y="238.715181"/>
     <use style="fill:#4c72b0;" x="270.97781" xlink:href="#mf908c80d69" y="238.715181"/>
     <use style="fill:#4c72b0;" x="272.16933" xlink:href="#mf908c80d69" y="242.707319"/>
     <use style="fill:#4c72b0;" x="273.36085" xlink:href="#mf908c80d69" y="242.707319"/>
     <use style="fill:#4c72b0;" x="274.55237" xlink:href="#mf908c80d69" y="246.699456"/>
     <use style="fill:#4c72b0;" x="275.74389" xlink:href="#mf908c80d69" y="246.699456"/>
     <use style="fill:#4c72b0;" x="276.93541" xlink:href="#mf908c80d69" y="250.691593"/>
     <use style="fill:#4c72b0;" x="278.12693" xlink:href="#mf908c80d69" y="250.691593"/>
     <use style="fill:#4c72b0;" x="279.31845" xlink:href="#mf908c80d69" y="254.68373"/>
     <use style="fill:#4c72b0;" x="280.50997" xlink:href="#mf908c80d69" y="254.68373"/>
     <use style="fill:#4c72b0;" x="281.70149" xlink:href="#mf908c80d69" y="258.675867"/>
     <use style="fill:#4c72b0;" x="282.89301" xlink:href="#mf908c80d69" y="258.675867"/>
     <use style="fill:#4c72b0;" x="284.08453" xlink:href="#mf908c80d69" y="258.675867"/>
     <use style="fill:#4c72b0;" x="285.27605" xlink:href="#mf908c80d69" y="262.668004"/>
     <use style="fill:#4c72b0;" x="286.46757" xlink:href="#mf908c80d69" y="262.668004"/>
     <use style="fill:#4c72b0;" x="287.65909" xlink:href="#mf908c80d69" y="266.660141"/>
     <use style="fill:#4c72b0;" x="288.85061" xlink:href="#mf908c80d69" y="266.660141"/>
     <use style="fill:#4c72b0;" x="290.04213" xlink:href="#mf908c80d69" y="270.652278"/>
     <use style="fill:#4c72b0;" x="291.23365" xlink:href="#mf908c80d69" y="270.652278"/>
     <use style="fill:#4c72b0;" x="292.42517" xlink:href="#mf908c80d69" y="270.652278"/>
     <use style="fill:#4c72b0;" x="293.61669" xlink:href="#mf908c80d69" y="274.644415"/>
     <use style="fill:#4c72b0;" x="294.80821" xlink:href="#mf908c80d69" y="274.644415"/>
     <use style="fill:#4c72b0;" x="295.99973" xlink:href="#mf908c80d69" y="274.644415"/>
     <use style="fill:#4c72b0;" x="297.19125" xlink:href="#mf908c80d69" y="278.636552"/>
     <use style="fill:#4c72b0;" x="298.38277" xlink:href="#mf908c80d69" y="278.636552"/>
     <use style="fill:#4c72b0;" x="299.57429" xlink:href="#mf908c80d69" y="278.636552"/>
     <use style="fill:#4c72b0;" x="300.76581" xlink:href="#mf908c80d69" y="282.62869"/>
     <use style="fill:#4c72b0;" x="301.95733" xlink:href="#mf908c80d69" y="282.62869"/>
     <use style="fill:#4c72b0;" x="303.14885" xlink:href="#mf908c80d69" y="282.62869"/>
     <use style="fill:#4c72b0;" x="304.34037" xlink:href="#mf908c80d69" y="286.620827"/>
     <use style="fill:#4c72b0;" x="305.53189" xlink:href="#mf908c80d69" y="286.620827"/>
     <use style="fill:#4c72b0;" x="306.72341" xlink:href="#mf908c80d69" y="286.620827"/>
     <use style="fill:#4c72b0;" x="307.91493" xlink:href="#mf908c80d69" y="290.612964"/>
     <use style="fill:#4c72b0;" x="309.10645" xlink:href="#mf908c80d69" y="290.612964"/>
     <use style="fill:#4c72b0;" x="310.29797" xlink:href="#mf908c80d69" y="290.612964"/>
     <use style="fill:#4c72b0;" x="311.48949" xlink:href="#mf908c80d69" y="290.612964"/>
     <use style="fill:#4c72b0;" x="312.68101" xlink:href="#mf908c80d69" y="290.612964"/>
     <use style="fill:#4c72b0;" x="313.87253" xlink:href="#mf908c80d69" y="290.612964"/>
     <use style="fill:#4c72b0;" x="315.06405" xlink:href="#mf908c80d69" y="290.612964"/>
     <use style="fill:#4c72b0;" x="316.25557" xlink:href="#mf908c80d69" y="290.612964"/>
     <use style="fill:#4c72b0;" x="317.44709" xlink:href="#mf908c80d69" y="290.612964"/>
     <use style="fill:#4c72b0;" x="318.63861" xlink:href="#mf908c80d69" y="286.620827"/>
     <use style="fill:#4c72b0;" x="319.83013" xlink:href="#mf908c80d69" y="274.644415"/>
     <use style="fill:#4c72b0;" x="321.02165" xlink:href="#mf908c80d69" y="266.660141"/>
     <use style="fill:#4c72b0;" x="322.21317" xlink:href="#mf908c80d69" y="262.668004"/>
     <use style="fill:#4c72b0;" x="323.40469" xlink:href="#mf908c80d69" y="262.668004"/>
     <use style="fill:#4c72b0;" x="324.59621" xlink:href="#mf908c80d69" y="258.675867"/>
     <use style="fill:#4c72b0;" x="325.78773" xlink:href="#mf908c80d69" y="254.68373"/>
     <use style="fill:#4c72b0;" x="326.97925" xlink:href="#mf908c80d69" y="254.68373"/>
     <use style="fill:#4c72b0;" x="328.17077" xlink:href="#mf908c80d69" y="254.68373"/>
     <use style="fill:#4c72b0;" x="329.36229" xlink:href="#mf908c80d69" y="250.691593"/>
     <use style="fill:#4c72b0;" x="330.55381" xlink:href="#mf908c80d69" y="250.691593"/>
     <use style="fill:#4c72b0;" x="331.74533" xlink:href="#mf908c80d69" y="250.691593"/>
     <use style="fill:#4c72b0;" x="332.93685" xlink:href="#mf908c80d69" y="246.699456"/>
     <use style="fill:#4c72b0;" x="334.12837" xlink:href="#mf908c80d69" y="246.699456"/>
     <use style="fill:#4c72b0;" x="335.31989" xlink:href="#mf908c80d69" y="246.699456"/>
     <use style="fill:#4c72b0;" x="336.51141" xlink:href="#mf908c80d69" y="246.699456"/>
     <use style="fill:#4c72b0;" x="337.70293" xlink:href="#mf908c80d69" y="246.699456"/>
     <use style="fill:#4c72b0;" x="338.89445" xlink:href="#mf908c80d69" y="246.699456"/>
     <use style="fill:#4c72b0;" x="340.08597" xlink:href="#mf908c80d69" y="246.699456"/>
     <use style="fill:#4c72b0;" x="341.27749" xlink:href="#mf908c80d69" y="246.699456"/>
     <use style="fill:#4c72b0;" x="342.46901" xlink:href="#mf908c80d69" y="246.699456"/>
     <use style="fill:#4c72b0;" x="343.660529" xlink:href="#mf908c80d69" y="246.699456"/>
     <use style="fill:#4c72b0;" x="344.852049" xlink:href="#mf908c80d69" y="246.699456"/>
     <use style="fill:#4c72b0;" x="346.043569" xlink:href="#mf908c80d69" y="246.699456"/>
     <use style="fill:#4c72b0;" x="347.235089" xlink:href="#mf908c80d69" y="246.699456"/>
     <use style="fill:#4c72b0;" x="348.426609" xlink:href="#mf908c80d69" y="246.699456"/>
     <use style="fill:#4c72b0;" x="349.618129" xlink:href="#mf908c80d69" y="246.699456"/>
     <use style="fill:#4c72b0;" x="350.809649" xlink:href="#mf908c80d69" y="250.691593"/>
     <use style="fill:#4c72b0;" x="352.001169" xlink:href="#mf908c80d69" y="250.691593"/>
     <use style="fill:#4c72b0;" x="353.192689" xlink:href="#mf908c80d69" y="250.691593"/>
     <use style="fill:#4c72b0;" x="354.384209" xlink:href="#mf908c80d69" y="250.691593"/>
     <use style="fill:#4c72b0;" x="355.575729" xlink:href="#mf908c80d69" y="250.691593"/>
     <use style="fill:#4c72b0;" x="356.767249" xlink:href="#mf908c80d69" y="254.68373"/>
     <use style="fill:#4c72b0;" x="357.958769" xlink:href="#mf908c80d69" y="254.68373"/>
     <use style="fill:#4c72b0;" x="359.150289" xlink:href="#mf908c80d69" y="254.68373"/>
     <use style="fill:#4c72b0;" x="360.341809" xlink:href="#mf908c80d69" y="254.68373"/>
     <use style="fill:#4c72b0;" x="361.533329" xlink:href="#mf908c80d69" y="254.68373"/>
     <use style="fill:#4c72b0;" x="362.724849" xlink:href="#mf908c80d69" y="258.675867"/>
     <use style="fill:#4c72b0;" x="363.916369" xlink:href="#mf908c80d69" y="258.675867"/>
     <use style="fill:#4c72b0;" x="365.107889" xlink:href="#mf908c80d69" y="258.675867"/>
     <use style="fill:#4c72b0;" x="366.299409" xlink:href="#mf908c80d69" y="258.675867"/>
     <use style="fill:#4c72b0;" x="367.490929" xlink:href="#mf908c80d69" y="262.668004"/>
     <use style="fill:#4c72b0;" x="368.682449" xlink:href="#mf908c80d69" y="262.668004"/>
     <use style="fill:#4c72b0;" x="369.873969" xlink:href="#mf908c80d69" y="262.668004"/>
     <use style="fill:#4c72b0;" x="371.065489" xlink:href="#mf908c80d69" y="266.660141"/>
     <use style="fill:#4c72b0;" x="372.257009" xlink:href="#mf908c80d69" y="266.660141"/>
     <use style="fill:#4c72b0;" x="373.448529" xlink:href="#mf908c80d69" y="266.660141"/>
     <use style="fill:#4c72b0;" x="374.640049" xlink:href="#mf908c80d69" y="270.652278"/>
     <use style="fill:#4c72b0;" x="375.831569" xlink:href="#mf908c80d69" y="270.652278"/>
     <use style="fill:#4c72b0;" x="377.023089" xlink:href="#mf908c80d69" y="270.652278"/>
     <use style="fill:#4c72b0;" x="378.214609" xlink:href="#mf908c80d69" y="270.652278"/>
     <use style="fill:#4c72b0;" x="379.406129" xlink:href="#mf908c80d69" y="274.644415"/>
     <use style="fill:#4c72b0;" x="380.597649" xlink:href="#mf908c80d69" y="274.644415"/>
     <use style="fill:#4c72b0;" x="381.789169" xlink:href="#mf908c80d69" y="274.644415"/>
     <use style="fill:#4c72b0;" x="382.980689" xlink:href="#mf908c80d69" y="278.636552"/>
     <use style="fill:#4c72b0;" x="384.172209" xlink:href="#mf908c80d69" y="278.636552"/>
     <use style="fill:#4c72b0;" x="385.363729" xlink:href="#mf908c80d69" y="278.636552"/>
     <use style="fill:#4c72b0;" x="386.555249" xlink:href="#mf908c80d69" y="278.636552"/>
     <use style="fill:#4c72b0;" x="387.746769" xlink:href="#mf908c80d69" y="282.62869"/>
     <use style="fill:#4c72b0;" x="388.938289" xlink:href="#mf908c80d69" y="282.62869"/>
     <use style="fill:#4c72b0;" x="390.129809" xlink:href="#mf908c80d69" y="282.62869"/>
     <use style="fill:#4c72b0;" x="391.321329" xlink:href="#mf908c80d69" y="286.620827"/>
     <use style="fill:#4c72b0;" x="392.512849" xlink:href="#mf908c80d69" y="286.620827"/>
     <use style="fill:#4c72b0;" x="393.704369" xlink:href="#mf908c80d69" y="286.620827"/>
     <use style="fill:#4c72b0;" x="394.895889" xlink:href="#mf908c80d69" y="290.612964"/>
     <use style="fill:#4c72b0;" x="396.087409" xlink:href="#mf908c80d69" y="290.612964"/>
     <use style="fill:#4c72b0;" x="397.278929" xlink:href="#mf908c80d69" y="290.612964"/>
     <use style="fill:#4c72b0;" x="398.470449" xlink:href="#mf908c80d69" y="290.612964"/>
     <use style="fill:#4c72b0;" x="399.661969" xlink:href="#mf908c80d69" y="294.605101"/>
     <use style="fill:#4c72b0;" x="400.853489" xlink:href="#mf908c80d69" y="294.605101"/>
     <use style="fill:#4c72b0;" x="402.045009" xlink:href="#mf908c80d69" y="294.605101"/>
     <use style="fill:#4c72b0;" x="403.236529" xlink:href="#mf908c80d69" y="294.605101"/>
     <use style="fill:#4c72b0;" x="404.428049" xlink:href="#mf908c80d69" y="298.597238"/>
     <use style="fill:#4c72b0;" x="405.619569" xlink:href="#mf908c80d69" y="298.597238"/>
     <use style="fill:#4c72b0;" x="406.811089" xlink:href="#mf908c80d69" y="298.597238"/>
     <use style="fill:#4c72b0;" x="408.002609" xlink:href="#mf908c80d69" y="298.597238"/>
     <use style="fill:#4c72b0;" x="409.194129" xlink:href="#mf908c80d69" y="298.597238"/>
     <use style="fill:#4c72b0;" x="410.385649" xlink:href="#mf908c80d69" y="302.589375"/>
     <use style="fill:#4c72b0;" x="411.577169" xlink:href="#mf908c80d69" y="302.589375"/>
     <use style="fill:#4c72b0;" x="412.768689" xlink:href="#mf908c80d69" y="302.589375"/>
     <use style="fill:#4c72b0;" x="413.960209" xlink:href="#mf908c80d69" y="302.589375"/>
     <use style="fill:#4c72b0;" x="415.151729" xlink:href="#mf908c80d69" y="302.589375"/>
     <use style="fill:#4c72b0;" x="416.343249" xlink:href="#mf908c80d69" y="302.589375"/>
     <use style="fill:#4c72b0;" x="417.534769" xlink:href="#mf908c80d69" y="302.589375"/>
     <use style="fill:#4c72b0;" x="418.726289" xlink:href="#mf908c80d69" y="302.589375"/>
     <use style="fill:#4c72b0;" x="419.917809" xlink:href="#mf908c80d69" y="302.589375"/>
     <use style="fill:#4c72b0;" x="421.109329" xlink:href="#mf908c80d69" y="302.589375"/>
     <use style="fill:#4c72b0;" x="422.300849" xlink:href="#mf908c80d69" y="302.589375"/>
     <use style="fill:#4c72b0;" x="423.492369" xlink:href="#mf908c80d69" y="298.597238"/>
     <use style="fill:#4c72b0;" x="424.683889" xlink:href="#mf908c80d69" y="294.605101"/>
     <use style="fill:#4c72b0;" x="425.875409" xlink:href="#mf908c80d69" y="294.605101"/>
     <use style="fill:#4c72b0;" x="427.066929" xlink:href="#mf908c80d69" y="294.605101"/>
     <use style="fill:#4c72b0;" x="428.258449" xlink:href="#mf908c80d69" y="290.612964"/>
     <use style="fill:#4c72b0;" x="429.449969" xlink:href="#mf908c80d69" y="290.612964"/>
     <use style="fill:#4c72b0;" x="430.641489" xlink:href="#mf908c80d69" y="290.612964"/>
     <use style="fill:#4c72b0;" x="431.833009" xlink:href="#mf908c80d69" y="290.612964"/>
     <use style="fill:#4c72b0;" x="433.024529" xlink:href="#mf908c80d69" y="290.612964"/>
     <use style="fill:#4c72b0;" x="434.216049" xlink:href="#mf908c80d69" y="290.612964"/>
     <use style="fill:#4c72b0;" x="435.407569" xlink:href="#mf908c80d69" y="290.612964"/>
     <use style="fill:#4c72b0;" x="436.599088" xlink:href="#mf908c80d69" y="290.612964"/>
     <use style="fill:#4c72b0;" x="437.790608" xlink:href="#mf908c80d69" y="286.620827"/>
     <use style="fill:#4c72b0;" x="438.982128" xlink:href="#mf908c80d69" y="290.612964"/>
     <use style="fill:#4c72b0;" x="440.173648" xlink:href="#mf908c80d69" y="290.612964"/>
     <use style="fill:#4c72b0;" x="441.365168" xlink:href="#mf908c80d69" y="286.620827"/>
     <use style="fill:#4c72b0;" x="442.556688" xlink:href="#mf908c80d69" y="290.612964"/>
     <use style="fill:#4c72b0;" x="443.748208" xlink:href="#mf908c80d69" y="290.612964"/>
     <use style="fill:#4c72b0;" x="444.939728" xlink:href="#mf908c80d69" y="286.620827"/>
     <use style="fill:#4c72b0;" x="446.131248" xlink:href="#mf908c80d69" y="290.612964"/>
     <use style="fill:#4c72b0;" x="447.322768" xlink:href="#mf908c80d69" y="290.612964"/>
     <use style="fill:#4c72b0;" x="448.514288" xlink:href="#mf908c80d69" y="290.612964"/>
     <use style="fill:#4c72b0;" x="449.705808" xlink:href="#mf908c80d69" y="290.612964"/>
     <use style="fill:#4c72b0;" x="450.897328" xlink:href="#mf908c80d69" y="290.612964"/>
     <use style="fill:#4c72b0;" x="452.088848" xlink:href="#mf908c80d69" y="290.612964"/>
     <use style="fill:#4c72b0;" x="453.280368" xlink:href="#mf908c80d69" y="290.612964"/>
     <use style="fill:#4c72b0;" x="454.471888" xlink:href="#mf908c80d69" y="290.612964"/>
     <use style="fill:#4c72b0;" x="455.663408" xlink:href="#mf908c80d69" y="290.612964"/>
     <use style="fill:#4c72b0;" x="456.854928" xlink:href="#mf908c80d69" y="290.612964"/>
     <use style="fill:#4c72b0;" x="458.046448" xlink:href="#mf908c80d69" y="290.612964"/>
     <use style="fill:#4c72b0;" x="459.237968" xlink:href="#mf908c80d69" y="290.612964"/>
     <use style="fill:#4c72b0;" x="460.429488" xlink:href="#mf908c80d69" y="294.605101"/>
     <use style="fill:#4c72b0;" x="461.621008" xlink:href="#mf908c80d69" y="294.605101"/>
     <use style="fill:#4c72b0;" x="462.812528" xlink:href="#mf908c80d69" y="294.605101"/>
     <use style="fill:#4c72b0;" x="464.004048" xlink:href="#mf908c80d69" y="294.605101"/>
     <use style="fill:#4c72b0;" x="465.195568" xlink:href="#mf908c80d69" y="294.605101"/>
    </g>
   </g>
   <g id="patch_3">
    <path d="M 112.3865 314.965 
L 112.3865 42.70125 
" style="fill:none;stroke:#262626;stroke-linecap:square;stroke-linejoin:miter;stroke-width:1.25;"/>
   </g>
   <g id="patch_4">
    <path d="M 481.996 314.965 
L 481.996 42.70125 
" style="fill:none;stroke:#262626;stroke-linecap:square;stroke-linejoin:miter;stroke-width:1.25;"/>
   </g>
   <g id="patch_5">
    <path d="M 112.3865 314.965 
L 481.996 314.965 
" style="fill:none;stroke:#262626;stroke-linecap:square;stroke-linejoin:miter;stroke-width:1.25;"/>
   </g>
   <g id="patch_6">
    <path d="M 112.3865 42.70125 
L 481.996 42.70125 
" style="fill:none;stroke:#262626;stroke-linecap:square;stroke-linejoin:miter;stroke-width:1.25;"/>
   </g>
  </g>
  <g id="axes_2">
   <g id="matplotlib.axis_3">
    <g id="ytick_5">
     <g id="line2d_9">
      <defs>
       <path d="M 0 0 
L 6 0 
" id="m5df579e7a3" style="stroke:#55a868;"/>
      </defs>
      <g>
       <use style="fill:#55a868;stroke:#55a868;" x="481.996" xlink:href="#m5df579e7a3" y="264.664073"/>
      </g>
     </g>
     <g id="text_10">
      <!-- 1.5 -->
      <g style="fill:#55a868;" transform="translate(494.996 271.49376)scale(0.2 -0.2)">
       <use xlink:href="#STIXGeneral-Regular-31"/>
       <use x="49.999985" xlink:href="#STIXGeneral-Regular-2e"/>
       <use x="74.999969" xlink:href="#STIXGeneral-Regular-35"/>
      </g>
     </g>
    </g>
    <g id="ytick_6">
     <g id="line2d_10">
      <g>
       <use style="fill:#55a868;stroke:#55a868;" x="481.996" xlink:href="#m5df579e7a3" y="198.79381"/>
      </g>
     </g>
     <g id="text_11">
      <!-- 2.0 -->
      <g style="fill:#55a868;" transform="translate(494.996 205.623498)scale(0.2 -0.2)">
       <use xlink:href="#STIXGeneral-Regular-32"/>
       <use x="49.999985" xlink:href="#STIXGeneral-Regular-2e"/>
       <use x="74.999969" xlink:href="#STIXGeneral-Regular-30"/>
      </g>
     </g>
    </g>
    <g id="ytick_7">
     <g id="line2d_11">
      <g>
       <use style="fill:#55a868;stroke:#55a868;" x="481.996" xlink:href="#m5df579e7a3" y="132.923548"/>
      </g>
     </g>
     <g id="text_12">
      <!-- 2.5 -->
      <g style="fill:#55a868;" transform="translate(494.996 139.753236)scale(0.2 -0.2)">
       <use xlink:href="#STIXGeneral-Regular-32"/>
       <use x="49.999985" xlink:href="#STIXGeneral-Regular-2e"/>
       <use x="74.999969" xlink:href="#STIXGeneral-Regular-35"/>
      </g>
     </g>
    </g>
    <g id="ytick_8">
     <g id="line2d_12">
      <g>
       <use style="fill:#55a868;stroke:#55a868;" x="481.996" xlink:href="#m5df579e7a3" y="67.053286"/>
      </g>
     </g>
     <g id="text_13">
      <!-- 3.0 -->
      <g style="fill:#55a868;" transform="translate(494.996 73.882974)scale(0.2 -0.2)">
       <use xlink:href="#STIXGeneral-Regular-33"/>
       <use x="49.999985" xlink:href="#STIXGeneral-Regular-2e"/>
       <use x="74.999969" xlink:href="#STIXGeneral-Regular-30"/>
      </g>
     </g>
    </g>
    <g id="text_14">
     <!-- Intensity ($\mathrm{W/cm^2}$) -->
     <defs>
      <path d="M 31.5 0 
L 1.796875 0 
L 1.796875 1.90625 
Q 8.09375 2.09375 9.796875 3.75 
Q 11.5 5.40625 11.5 11.203125 
L 11.5 55.09375 
Q 11.5 60.90625 9.890625 62.40625 
Q 8.296875 63.90625 1.796875 64.296875 
L 1.796875 66.203125 
L 31.5 66.203125 
L 31.5 64.296875 
Q 25.203125 64 23.453125 62.390625 
Q 21.703125 60.796875 21.703125 55.09375 
L 21.703125 11.203125 
Q 21.703125 5.59375 23.5 3.84375 
Q 25.296875 2.09375 31.5 1.90625 
z
" id="STIXGeneral-Regular-49"/>
      <path d="M 15.59375 30.09375 
L 26 23.796875 
Q 31 20.796875 32.890625 18.1875 
Q 34.796875 15.59375 34.796875 11.5 
Q 34.796875 6.5 30.640625 2.75 
Q 26.5 -1 20.796875 -1 
Q 16.09375 -1 13.5 -0.09375 
Q 10.796875 0.796875 8.90625 0.796875 
Q 7.203125 0.796875 6.5 -0.40625 
L 5.203125 -0.40625 
L 5.203125 15.296875 
L 6.796875 15.296875 
Q 8.40625 8 11.40625 4.59375 
Q 14.40625 1.203125 19.5 1.203125 
Q 23.203125 1.203125 25.5 3.296875 
Q 27.796875 5.40625 27.796875 8.59375 
Q 27.796875 13.203125 22.5 16.09375 
L 17.09375 19.09375 
Q 5.09375 25.796875 5.09375 33.59375 
Q 5.09375 39.40625 8.84375 42.65625 
Q 12.59375 45.90625 18.90625 45.90625 
Q 23.296875 45.90625 25.59375 44.796875 
Q 27.40625 44 28.40625 44 
Q 29.09375 44 30 45 
L 31.09375 45 
L 31.59375 31.40625 
L 30.09375 31.40625 
Q 28.40625 38.203125 25.84375 40.953125 
Q 23.296875 43.703125 18.796875 43.703125 
Q 15.40625 43.703125 13.34375 42 
Q 11.296875 40.296875 11.296875 36.90625 
Q 11.296875 35.203125 12.4375 33.25 
Q 13.59375 31.296875 15.59375 30.09375 
" id="STIXGeneral-Regular-73"/>
      <path d="M 18 63.203125 
Q 18 61 16.5 59.546875 
Q 15 58.09375 12.796875 58.09375 
Q 10.703125 58.09375 9.25 59.546875 
Q 7.796875 61 7.796875 63.203125 
Q 7.796875 65.296875 9.296875 66.796875 
Q 10.796875 68.296875 12.90625 68.296875 
Q 15.09375 68.296875 16.546875 66.796875 
Q 18 65.296875 18 63.203125 
M 25.296875 0 
L 1.59375 0 
L 1.59375 1.5 
Q 6.796875 1.796875 8.140625 3.296875 
Q 9.5 4.796875 9.5 10.40625 
L 9.5 33.09375 
Q 9.5 36.59375 8.796875 38 
Q 8.09375 39.40625 6.203125 39.40625 
Q 3.796875 39.40625 2 38.90625 
L 2 40.5 
L 17.5 46 
L 17.90625 45.59375 
L 17.90625 10.5 
Q 17.90625 4.90625 19.15625 3.40625 
Q 20.40625 1.90625 25.296875 1.5 
z
" id="STIXGeneral-Regular-69"/>
      <path d="M 47.5 45 
L 47.5 43.5 
Q 45.703125 43.296875 44.59375 42.1875 
Q 43.5 41.09375 42.5 38.40625 
L 27.5 -2.5 
Q 23.59375 -13.09375 19.640625 -17.4375 
Q 15.703125 -21.796875 10 -21.796875 
Q 6.796875 -21.796875 4.890625 -20.140625 
Q 3 -18.5 3 -16 
Q 3 -14.09375 4.25 -12.75 
Q 5.5 -11.40625 7.296875 -11.40625 
Q 10.203125 -11.40625 12.5 -12.703125 
Q 13.796875 -13.40625 15.09375 -13.40625 
Q 17.203125 -13.40625 20.09375 -9 
Q 21.5 -7 22.796875 -3.296875 
Q 24.09375 0.40625 24.09375 1.796875 
Q 24.09375 3.09375 19.90625 11.90625 
L 6.703125 40.09375 
Q 5.40625 43 1.40625 43.59375 
L 1.40625 45 
L 21.90625 45 
L 21.90625 43.5 
Q 18.703125 43.40625 17.453125 42.796875 
Q 16.203125 42.203125 16.203125 40.796875 
Q 16.203125 39.703125 17.5 36.703125 
L 28.703125 11.703125 
L 38.40625 39.296875 
Q 38.796875 40.203125 38.796875 41.09375 
Q 38.796875 43.5 34.203125 43.5 
L 34.203125 45 
z
" id="STIXGeneral-Regular-79"/>
     </defs>
     <g style="fill:#55a868;" transform="translate(542.476 258.913125)rotate(-90)scale(0.22 -0.22)">
      <use transform="translate(0 0.684375)" xlink:href="#STIXGeneral-Regular-49"/>
      <use transform="translate(33.299988 0.684375)" xlink:href="#STIXGeneral-Regular-6e"/>
      <use transform="translate(83.299973 0.684375)" xlink:href="#STIXGeneral-Regular-74"/>
      <use transform="translate(111.09996 0.684375)" xlink:href="#STIXGeneral-Regular-65"/>
      <use transform="translate(155.499954 0.684375)" xlink:href="#STIXGeneral-Regular-6e"/>
      <use transform="translate(205.499939 0.684375)" xlink:href="#STIXGeneral-Regular-73"/>
      <use transform="translate(244.399933 0.684375)" xlink:href="#STIXGeneral-Regular-69"/>
      <use transform="translate(272.199921 0.684375)" xlink:href="#STIXGeneral-Regular-74"/>
      <use transform="translate(299.999908 0.684375)" xlink:href="#STIXGeneral-Regular-79"/>
      <use transform="translate(349.999893 0.684375)" xlink:href="#STIXGeneral-Regular-20"/>
      <use transform="translate(374.999878 0.684375)" xlink:href="#STIXGeneral-Regular-28"/>
      <use transform="translate(408.299866 0.684375)" xlink:href="#STIXGeneral-Regular-57"/>
      <use transform="translate(502.69986 0.684375)" xlink:href="#STIXGeneral-Regular-2f"/>
      <use transform="translate(530.499847 0.684375)" xlink:href="#STIXGeneral-Regular-63"/>
      <use transform="translate(574.899841 0.684375)" xlink:href="#STIXGeneral-Regular-6d"/>
      <use transform="translate(654.274829 36.684375)scale(0.7)" xlink:href="#STIXGeneral-Regular-32"/>
      <use transform="translate(693.774818 0.684375)" xlink:href="#STIXGeneral-Regular-29"/>
     </g>
    </g>
    <g id="text_15">
     <!-- 1e11 -->
     <g style="fill:#55a868;" transform="translate(443.11475 39.70125)scale(0.2 -0.2)">
      <use xlink:href="#STIXGeneral-Regular-31"/>
      <use x="49.999985" xlink:href="#STIXGeneral-Regular-65"/>
      <use x="94.399979" xlink:href="#STIXGeneral-Regular-31"/>
      <use x="144.399963" xlink:href="#STIXGeneral-Regular-31"/>
     </g>
    </g>
   </g>
   <g id="line2d_13">
    <path clip-path="url(#p219c14aaa7)" d="M 129.186932 63.061149 
L 131.569972 87.013972 
L 132.761492 102.98252 
L 133.953012 114.958931 
L 135.144532 122.943206 
L 136.336052 134.919617 
L 137.527572 142.903891 
L 138.719092 154.880302 
L 141.102132 170.848851 
L 142.293652 174.840988 
L 144.676692 190.809536 
L 147.059732 198.79381 
L 148.251252 206.778085 
L 149.442772 210.770222 
L 150.634292 218.754496 
L 155.400372 234.723044 
L 156.591892 242.707319 
L 160.166451 254.68373 
L 161.357971 254.68373 
L 163.741011 262.668004 
L 164.932531 262.668004 
L 166.124051 266.660141 
L 167.315571 266.660141 
L 169.698611 274.644415 
L 170.890131 274.644415 
L 172.081651 278.636552 
L 173.273171 278.636552 
L 174.464691 282.62869 
L 176.847731 282.62869 
L 178.039251 286.620827 
L 180.422291 286.620827 
L 181.613811 290.612964 
L 187.571411 290.612964 
L 188.762931 286.620827 
L 189.954451 286.620827 
L 191.145971 282.62869 
L 192.337491 282.62869 
L 194.720531 274.644415 
L 195.912051 266.660141 
L 197.103571 174.840988 
L 198.295091 150.888165 
L 199.486611 130.92748 
L 203.061171 94.998246 
L 206.635731 71.045423 
L 210.210291 59.069012 
L 212.593331 59.069012 
L 213.784851 55.076875 
L 214.976371 55.076875 
L 216.167891 59.069012 
L 217.359411 59.069012 
L 222.125491 75.03756 
L 223.317011 83.021835 
L 224.508531 87.013972 
L 225.700051 94.998246 
L 226.891571 98.990383 
L 228.083091 106.974657 
L 230.466131 114.958931 
L 231.657651 122.943206 
L 237.615251 142.903891 
L 238.806771 150.888165 
L 251.91349 194.801673 
L 253.10501 194.801673 
L 257.87109 210.770222 
L 259.06261 210.770222 
L 262.63717 222.746633 
L 263.82869 222.746633 
L 266.21173 230.730907 
L 267.40325 230.730907 
L 269.78629 238.715181 
L 270.97781 238.715181 
L 272.16933 242.707319 
L 273.36085 242.707319 
L 274.55237 246.699456 
L 275.74389 246.699456 
L 276.93541 250.691593 
L 278.12693 250.691593 
L 279.31845 254.68373 
L 280.50997 254.68373 
L 281.70149 258.675867 
L 284.08453 258.675867 
L 285.27605 262.668004 
L 286.46757 262.668004 
L 287.65909 266.660141 
L 288.85061 266.660141 
L 290.04213 270.652278 
L 292.42517 270.652278 
L 293.61669 274.644415 
L 295.99973 274.644415 
L 297.19125 278.636552 
L 299.57429 278.636552 
L 300.76581 282.62869 
L 303.14885 282.62869 
L 304.34037 286.620827 
L 306.72341 286.620827 
L 307.91493 290.612964 
L 317.44709 290.612964 
L 318.63861 286.620827 
L 319.83013 274.644415 
L 321.02165 266.660141 
L 322.21317 262.668004 
L 323.40469 262.668004 
L 325.78773 254.68373 
L 328.17077 254.68373 
L 329.36229 250.691593 
L 331.74533 250.691593 
L 332.93685 246.699456 
L 349.618129 246.699456 
L 350.809649 250.691593 
L 355.575729 250.691593 
L 356.767249 254.68373 
L 361.533329 254.68373 
L 362.724849 258.675867 
L 366.299409 258.675867 
L 367.490929 262.668004 
L 369.873969 262.668004 
L 371.065489 266.660141 
L 373.448529 266.660141 
L 374.640049 270.652278 
L 378.214609 270.652278 
L 379.406129 274.644415 
L 381.789169 274.644415 
L 382.980689 278.636552 
L 386.555249 278.636552 
L 387.746769 282.62869 
L 390.129809 282.62869 
L 391.321329 286.620827 
L 393.704369 286.620827 
L 394.895889 290.612964 
L 398.470449 290.612964 
L 399.661969 294.605101 
L 403.236529 294.605101 
L 404.428049 298.597238 
L 409.194129 298.597238 
L 410.385649 302.589375 
L 422.300849 302.589375 
L 424.683889 294.605101 
L 427.066929 294.605101 
L 428.258449 290.612964 
L 436.599088 290.612964 
L 437.790608 286.620827 
L 438.982128 290.612964 
L 440.173648 290.612964 
L 441.365168 286.620827 
L 442.556688 290.612964 
L 443.748208 290.612964 
L 444.939728 286.620827 
L 446.131248 290.612964 
L 459.237968 290.612964 
L 460.429488 294.605101 
L 465.195568 294.605101 
L 465.195568 294.605101 
" style="fill:none;stroke:#55a868;stroke-linecap:round;stroke-width:1.75;"/>
    <defs>
     <path d="M 0 3.5 
C 0.928211 3.5 1.81853 3.131218 2.474874 2.474874 
C 3.131218 1.81853 3.5 0.928211 3.5 0 
C 3.5 -0.928211 3.131218 -1.81853 2.474874 -2.474874 
C 1.81853 -3.131218 0.928211 -3.5 0 -3.5 
C -0.928211 -3.5 -1.81853 -3.131218 -2.474874 -2.474874 
C -3.131218 -1.81853 -3.5 -0.928211 -3.5 0 
C -3.5 0.928211 -3.131218 1.81853 -2.474874 2.474874 
C -1.81853 3.131218 -0.928211 3.5 0 3.5 
z
" id="m24f608e253"/>
    </defs>
    <g clip-path="url(#p219c14aaa7)">
     <use style="fill:#55a868;" x="129.186932" xlink:href="#m24f608e253" y="63.061149"/>
     <use style="fill:#55a868;" x="130.378452" xlink:href="#m24f608e253" y="75.03756"/>
     <use style="fill:#55a868;" x="131.569972" xlink:href="#m24f608e253" y="87.013972"/>
     <use style="fill:#55a868;" x="132.761492" xlink:href="#m24f608e253" y="102.98252"/>
     <use style="fill:#55a868;" x="133.953012" xlink:href="#m24f608e253" y="114.958931"/>
     <use style="fill:#55a868;" x="135.144532" xlink:href="#m24f608e253" y="122.943206"/>
     <use style="fill:#55a868;" x="136.336052" xlink:href="#m24f608e253" y="134.919617"/>
     <use style="fill:#55a868;" x="137.527572" xlink:href="#m24f608e253" y="142.903891"/>
     <use style="fill:#55a868;" x="138.719092" xlink:href="#m24f608e253" y="154.880302"/>
     <use style="fill:#55a868;" x="139.910612" xlink:href="#m24f608e253" y="162.864577"/>
     <use style="fill:#55a868;" x="141.102132" xlink:href="#m24f608e253" y="170.848851"/>
     <use style="fill:#55a868;" x="142.293652" xlink:href="#m24f608e253" y="174.840988"/>
     <use style="fill:#55a868;" x="143.485172" xlink:href="#m24f608e253" y="182.825262"/>
     <use style="fill:#55a868;" x="144.676692" xlink:href="#m24f608e253" y="190.809536"/>
     <use style="fill:#55a868;" x="145.868212" xlink:href="#m24f608e253" y="194.801673"/>
     <use style="fill:#55a868;" x="147.059732" xlink:href="#m24f608e253" y="198.79381"/>
     <use style="fill:#55a868;" x="148.251252" xlink:href="#m24f608e253" y="206.778085"/>
     <use style="fill:#55a868;" x="149.442772" xlink:href="#m24f608e253" y="210.770222"/>
     <use style="fill:#55a868;" x="150.634292" xlink:href="#m24f608e253" y="218.754496"/>
     <use style="fill:#55a868;" x="151.825812" xlink:href="#m24f608e253" y="222.746633"/>
     <use style="fill:#55a868;" x="153.017332" xlink:href="#m24f608e253" y="226.73877"/>
     <use style="fill:#55a868;" x="154.208852" xlink:href="#m24f608e253" y="230.730907"/>
     <use style="fill:#55a868;" x="155.400372" xlink:href="#m24f608e253" y="234.723044"/>
     <use style="fill:#55a868;" x="156.591892" xlink:href="#m24f608e253" y="242.707319"/>
     <use style="fill:#55a868;" x="157.783412" xlink:href="#m24f608e253" y="246.699456"/>
     <use style="fill:#55a868;" x="158.974931" xlink:href="#m24f608e253" y="250.691593"/>
     <use style="fill:#55a868;" x="160.166451" xlink:href="#m24f608e253" y="254.68373"/>
     <use style="fill:#55a868;" x="161.357971" xlink:href="#m24f608e253" y="254.68373"/>
     <use style="fill:#55a868;" x="162.549491" xlink:href="#m24f608e253" y="258.675867"/>
     <use style="fill:#55a868;" x="163.741011" xlink:href="#m24f608e253" y="262.668004"/>
     <use style="fill:#55a868;" x="164.932531" xlink:href="#m24f608e253" y="262.668004"/>
     <use style="fill:#55a868;" x="166.124051" xlink:href="#m24f608e253" y="266.660141"/>
     <use style="fill:#55a868;" x="167.315571" xlink:href="#m24f608e253" y="266.660141"/>
     <use style="fill:#55a868;" x="168.507091" xlink:href="#m24f608e253" y="270.652278"/>
     <use style="fill:#55a868;" x="169.698611" xlink:href="#m24f608e253" y="274.644415"/>
     <use style="fill:#55a868;" x="170.890131" xlink:href="#m24f608e253" y="274.644415"/>
     <use style="fill:#55a868;" x="172.081651" xlink:href="#m24f608e253" y="278.636552"/>
     <use style="fill:#55a868;" x="173.273171" xlink:href="#m24f608e253" y="278.636552"/>
     <use style="fill:#55a868;" x="174.464691" xlink:href="#m24f608e253" y="282.62869"/>
     <use style="fill:#55a868;" x="175.656211" xlink:href="#m24f608e253" y="282.62869"/>
     <use style="fill:#55a868;" x="176.847731" xlink:href="#m24f608e253" y="282.62869"/>
     <use style="fill:#55a868;" x="178.039251" xlink:href="#m24f608e253" y="286.620827"/>
     <use style="fill:#55a868;" x="179.230771" xlink:href="#m24f608e253" y="286.620827"/>
     <use style="fill:#55a868;" x="180.422291" xlink:href="#m24f608e253" y="286.620827"/>
     <use style="fill:#55a868;" x="181.613811" xlink:href="#m24f608e253" y="290.612964"/>
     <use style="fill:#55a868;" x="182.805331" xlink:href="#m24f608e253" y="290.612964"/>
     <use style="fill:#55a868;" x="183.996851" xlink:href="#m24f608e253" y="290.612964"/>
     <use style="fill:#55a868;" x="185.188371" xlink:href="#m24f608e253" y="290.612964"/>
     <use style="fill:#55a868;" x="186.379891" xlink:href="#m24f608e253" y="290.612964"/>
     <use style="fill:#55a868;" x="187.571411" xlink:href="#m24f608e253" y="290.612964"/>
     <use style="fill:#55a868;" x="188.762931" xlink:href="#m24f608e253" y="286.620827"/>
     <use style="fill:#55a868;" x="189.954451" xlink:href="#m24f608e253" y="286.620827"/>
     <use style="fill:#55a868;" x="191.145971" xlink:href="#m24f608e253" y="282.62869"/>
     <use style="fill:#55a868;" x="192.337491" xlink:href="#m24f608e253" y="282.62869"/>
     <use style="fill:#55a868;" x="193.529011" xlink:href="#m24f608e253" y="278.636552"/>
     <use style="fill:#55a868;" x="194.720531" xlink:href="#m24f608e253" y="274.644415"/>
     <use style="fill:#55a868;" x="195.912051" xlink:href="#m24f608e253" y="266.660141"/>
     <use style="fill:#55a868;" x="197.103571" xlink:href="#m24f608e253" y="174.840988"/>
     <use style="fill:#55a868;" x="198.295091" xlink:href="#m24f608e253" y="150.888165"/>
     <use style="fill:#55a868;" x="199.486611" xlink:href="#m24f608e253" y="130.92748"/>
     <use style="fill:#55a868;" x="200.678131" xlink:href="#m24f608e253" y="118.951069"/>
     <use style="fill:#55a868;" x="201.869651" xlink:href="#m24f608e253" y="106.974657"/>
     <use style="fill:#55a868;" x="203.061171" xlink:href="#m24f608e253" y="94.998246"/>
     <use style="fill:#55a868;" x="204.252691" xlink:href="#m24f608e253" y="87.013972"/>
     <use style="fill:#55a868;" x="205.444211" xlink:href="#m24f608e253" y="79.029698"/>
     <use style="fill:#55a868;" x="206.635731" xlink:href="#m24f608e253" y="71.045423"/>
     <use style="fill:#55a868;" x="207.827251" xlink:href="#m24f608e253" y="67.053286"/>
     <use style="fill:#55a868;" x="209.018771" xlink:href="#m24f608e253" y="63.061149"/>
     <use style="fill:#55a868;" x="210.210291" xlink:href="#m24f608e253" y="59.069012"/>
     <use style="fill:#55a868;" x="211.401811" xlink:href="#m24f608e253" y="59.069012"/>
     <use style="fill:#55a868;" x="212.593331" xlink:href="#m24f608e253" y="59.069012"/>
     <use style="fill:#55a868;" x="213.784851" xlink:href="#m24f608e253" y="55.076875"/>
     <use style="fill:#55a868;" x="214.976371" xlink:href="#m24f608e253" y="55.076875"/>
     <use style="fill:#55a868;" x="216.167891" xlink:href="#m24f608e253" y="59.069012"/>
     <use style="fill:#55a868;" x="217.359411" xlink:href="#m24f608e253" y="59.069012"/>
     <use style="fill:#55a868;" x="218.550931" xlink:href="#m24f608e253" y="63.061149"/>
     <use style="fill:#55a868;" x="219.742451" xlink:href="#m24f608e253" y="67.053286"/>
     <use style="fill:#55a868;" x="220.933971" xlink:href="#m24f608e253" y="71.045423"/>
     <use style="fill:#55a868;" x="222.125491" xlink:href="#m24f608e253" y="75.03756"/>
     <use style="fill:#55a868;" x="223.317011" xlink:href="#m24f608e253" y="83.021835"/>
     <use style="fill:#55a868;" x="224.508531" xlink:href="#m24f608e253" y="87.013972"/>
     <use style="fill:#55a868;" x="225.700051" xlink:href="#m24f608e253" y="94.998246"/>
     <use style="fill:#55a868;" x="226.891571" xlink:href="#m24f608e253" y="98.990383"/>
     <use style="fill:#55a868;" x="228.083091" xlink:href="#m24f608e253" y="106.974657"/>
     <use style="fill:#55a868;" x="229.274611" xlink:href="#m24f608e253" y="110.966794"/>
     <use style="fill:#55a868;" x="230.466131" xlink:href="#m24f608e253" y="114.958931"/>
     <use style="fill:#55a868;" x="231.657651" xlink:href="#m24f608e253" y="122.943206"/>
     <use style="fill:#55a868;" x="232.849171" xlink:href="#m24f608e253" y="126.935343"/>
     <use style="fill:#55a868;" x="234.040691" xlink:href="#m24f608e253" y="130.92748"/>
     <use style="fill:#55a868;" x="235.232211" xlink:href="#m24f608e253" y="134.919617"/>
     <use style="fill:#55a868;" x="236.423731" xlink:href="#m24f608e253" y="138.911754"/>
     <use style="fill:#55a868;" x="237.615251" xlink:href="#m24f608e253" y="142.903891"/>
     <use style="fill:#55a868;" x="238.806771" xlink:href="#m24f608e253" y="150.888165"/>
     <use style="fill:#55a868;" x="239.998291" xlink:href="#m24f608e253" y="154.880302"/>
     <use style="fill:#55a868;" x="241.189811" xlink:href="#m24f608e253" y="158.87244"/>
     <use style="fill:#55a868;" x="242.381331" xlink:href="#m24f608e253" y="162.864577"/>
     <use style="fill:#55a868;" x="243.572851" xlink:href="#m24f608e253" y="166.856714"/>
     <use style="fill:#55a868;" x="244.764371" xlink:href="#m24f608e253" y="170.848851"/>
     <use style="fill:#55a868;" x="245.955891" xlink:href="#m24f608e253" y="174.840988"/>
     <use style="fill:#55a868;" x="247.147411" xlink:href="#m24f608e253" y="178.833125"/>
     <use style="fill:#55a868;" x="248.338931" xlink:href="#m24f608e253" y="182.825262"/>
     <use style="fill:#55a868;" x="249.530451" xlink:href="#m24f608e253" y="186.817399"/>
     <use style="fill:#55a868;" x="250.721971" xlink:href="#m24f608e253" y="190.809536"/>
     <use style="fill:#55a868;" x="251.91349" xlink:href="#m24f608e253" y="194.801673"/>
     <use style="fill:#55a868;" x="253.10501" xlink:href="#m24f608e253" y="194.801673"/>
     <use style="fill:#55a868;" x="254.29653" xlink:href="#m24f608e253" y="198.79381"/>
     <use style="fill:#55a868;" x="255.48805" xlink:href="#m24f608e253" y="202.785948"/>
     <use style="fill:#55a868;" x="256.67957" xlink:href="#m24f608e253" y="206.778085"/>
     <use style="fill:#55a868;" x="257.87109" xlink:href="#m24f608e253" y="210.770222"/>
     <use style="fill:#55a868;" x="259.06261" xlink:href="#m24f608e253" y="210.770222"/>
     <use style="fill:#55a868;" x="260.25413" xlink:href="#m24f608e253" y="214.762359"/>
     <use style="fill:#55a868;" x="261.44565" xlink:href="#m24f608e253" y="218.754496"/>
     <use style="fill:#55a868;" x="262.63717" xlink:href="#m24f608e253" y="222.746633"/>
     <use style="fill:#55a868;" x="263.82869" xlink:href="#m24f608e253" y="222.746633"/>
     <use style="fill:#55a868;" x="265.02021" xlink:href="#m24f608e253" y="226.73877"/>
     <use style="fill:#55a868;" x="266.21173" xlink:href="#m24f608e253" y="230.730907"/>
     <use style="fill:#55a868;" x="267.40325" xlink:href="#m24f608e253" y="230.730907"/>
     <use style="fill:#55a868;" x="268.59477" xlink:href="#m24f608e253" y="234.723044"/>
     <use style="fill:#55a868;" x="269.78629" xlink:href="#m24f608e253" y="238.715181"/>
     <use style="fill:#55a868;" x="270.97781" xlink:href="#m24f608e253" y="238.715181"/>
     <use style="fill:#55a868;" x="272.16933" xlink:href="#m24f608e253" y="242.707319"/>
     <use style="fill:#55a868;" x="273.36085" xlink:href="#m24f608e253" y="242.707319"/>
     <use style="fill:#55a868;" x="274.55237" xlink:href="#m24f608e253" y="246.699456"/>
     <use style="fill:#55a868;" x="275.74389" xlink:href="#m24f608e253" y="246.699456"/>
     <use style="fill:#55a868;" x="276.93541" xlink:href="#m24f608e253" y="250.691593"/>
     <use style="fill:#55a868;" x="278.12693" xlink:href="#m24f608e253" y="250.691593"/>
     <use style="fill:#55a868;" x="279.31845" xlink:href="#m24f608e253" y="254.68373"/>
     <use style="fill:#55a868;" x="280.50997" xlink:href="#m24f608e253" y="254.68373"/>
     <use style="fill:#55a868;" x="281.70149" xlink:href="#m24f608e253" y="258.675867"/>
     <use style="fill:#55a868;" x="282.89301" xlink:href="#m24f608e253" y="258.675867"/>
     <use style="fill:#55a868;" x="284.08453" xlink:href="#m24f608e253" y="258.675867"/>
     <use style="fill:#55a868;" x="285.27605" xlink:href="#m24f608e253" y="262.668004"/>
     <use style="fill:#55a868;" x="286.46757" xlink:href="#m24f608e253" y="262.668004"/>
     <use style="fill:#55a868;" x="287.65909" xlink:href="#m24f608e253" y="266.660141"/>
     <use style="fill:#55a868;" x="288.85061" xlink:href="#m24f608e253" y="266.660141"/>
     <use style="fill:#55a868;" x="290.04213" xlink:href="#m24f608e253" y="270.652278"/>
     <use style="fill:#55a868;" x="291.23365" xlink:href="#m24f608e253" y="270.652278"/>
     <use style="fill:#55a868;" x="292.42517" xlink:href="#m24f608e253" y="270.652278"/>
     <use style="fill:#55a868;" x="293.61669" xlink:href="#m24f608e253" y="274.644415"/>
     <use style="fill:#55a868;" x="294.80821" xlink:href="#m24f608e253" y="274.644415"/>
     <use style="fill:#55a868;" x="295.99973" xlink:href="#m24f608e253" y="274.644415"/>
     <use style="fill:#55a868;" x="297.19125" xlink:href="#m24f608e253" y="278.636552"/>
     <use style="fill:#55a868;" x="298.38277" xlink:href="#m24f608e253" y="278.636552"/>
     <use style="fill:#55a868;" x="299.57429" xlink:href="#m24f608e253" y="278.636552"/>
     <use style="fill:#55a868;" x="300.76581" xlink:href="#m24f608e253" y="282.62869"/>
     <use style="fill:#55a868;" x="301.95733" xlink:href="#m24f608e253" y="282.62869"/>
     <use style="fill:#55a868;" x="303.14885" xlink:href="#m24f608e253" y="282.62869"/>
     <use style="fill:#55a868;" x="304.34037" xlink:href="#m24f608e253" y="286.620827"/>
     <use style="fill:#55a868;" x="305.53189" xlink:href="#m24f608e253" y="286.620827"/>
     <use style="fill:#55a868;" x="306.72341" xlink:href="#m24f608e253" y="286.620827"/>
     <use style="fill:#55a868;" x="307.91493" xlink:href="#m24f608e253" y="290.612964"/>
     <use style="fill:#55a868;" x="309.10645" xlink:href="#m24f608e253" y="290.612964"/>
     <use style="fill:#55a868;" x="310.29797" xlink:href="#m24f608e253" y="290.612964"/>
     <use style="fill:#55a868;" x="311.48949" xlink:href="#m24f608e253" y="290.612964"/>
     <use style="fill:#55a868;" x="312.68101" xlink:href="#m24f608e253" y="290.612964"/>
     <use style="fill:#55a868;" x="313.87253" xlink:href="#m24f608e253" y="290.612964"/>
     <use style="fill:#55a868;" x="315.06405" xlink:href="#m24f608e253" y="290.612964"/>
     <use style="fill:#55a868;" x="316.25557" xlink:href="#m24f608e253" y="290.612964"/>
     <use style="fill:#55a868;" x="317.44709" xlink:href="#m24f608e253" y="290.612964"/>
     <use style="fill:#55a868;" x="318.63861" xlink:href="#m24f608e253" y="286.620827"/>
     <use style="fill:#55a868;" x="319.83013" xlink:href="#m24f608e253" y="274.644415"/>
     <use style="fill:#55a868;" x="321.02165" xlink:href="#m24f608e253" y="266.660141"/>
     <use style="fill:#55a868;" x="322.21317" xlink:href="#m24f608e253" y="262.668004"/>
     <use style="fill:#55a868;" x="323.40469" xlink:href="#m24f608e253" y="262.668004"/>
     <use style="fill:#55a868;" x="324.59621" xlink:href="#m24f608e253" y="258.675867"/>
     <use style="fill:#55a868;" x="325.78773" xlink:href="#m24f608e253" y="254.68373"/>
     <use style="fill:#55a868;" x="326.97925" xlink:href="#m24f608e253" y="254.68373"/>
     <use style="fill:#55a868;" x="328.17077" xlink:href="#m24f608e253" y="254.68373"/>
     <use style="fill:#55a868;" x="329.36229" xlink:href="#m24f608e253" y="250.691593"/>
     <use style="fill:#55a868;" x="330.55381" xlink:href="#m24f608e253" y="250.691593"/>
     <use style="fill:#55a868;" x="331.74533" xlink:href="#m24f608e253" y="250.691593"/>
     <use style="fill:#55a868;" x="332.93685" xlink:href="#m24f608e253" y="246.699456"/>
     <use style="fill:#55a868;" x="334.12837" xlink:href="#m24f608e253" y="246.699456"/>
     <use style="fill:#55a868;" x="335.31989" xlink:href="#m24f608e253" y="246.699456"/>
     <use style="fill:#55a868;" x="336.51141" xlink:href="#m24f608e253" y="246.699456"/>
     <use style="fill:#55a868;" x="337.70293" xlink:href="#m24f608e253" y="246.699456"/>
     <use style="fill:#55a868;" x="338.89445" xlink:href="#m24f608e253" y="246.699456"/>
     <use style="fill:#55a868;" x="340.08597" xlink:href="#m24f608e253" y="246.699456"/>
     <use style="fill:#55a868;" x="341.27749" xlink:href="#m24f608e253" y="246.699456"/>
     <use style="fill:#55a868;" x="342.46901" xlink:href="#m24f608e253" y="246.699456"/>
     <use style="fill:#55a868;" x="343.660529" xlink:href="#m24f608e253" y="246.699456"/>
     <use style="fill:#55a868;" x="344.852049" xlink:href="#m24f608e253" y="246.699456"/>
     <use style="fill:#55a868;" x="346.043569" xlink:href="#m24f608e253" y="246.699456"/>
     <use style="fill:#55a868;" x="347.235089" xlink:href="#m24f608e253" y="246.699456"/>
     <use style="fill:#55a868;" x="348.426609" xlink:href="#m24f608e253" y="246.699456"/>
     <use style="fill:#55a868;" x="349.618129" xlink:href="#m24f608e253" y="246.699456"/>
     <use style="fill:#55a868;" x="350.809649" xlink:href="#m24f608e253" y="250.691593"/>
     <use style="fill:#55a868;" x="352.001169" xlink:href="#m24f608e253" y="250.691593"/>
     <use style="fill:#55a868;" x="353.192689" xlink:href="#m24f608e253" y="250.691593"/>
     <use style="fill:#55a868;" x="354.384209" xlink:href="#m24f608e253" y="250.691593"/>
     <use style="fill:#55a868;" x="355.575729" xlink:href="#m24f608e253" y="250.691593"/>
     <use style="fill:#55a868;" x="356.767249" xlink:href="#m24f608e253" y="254.68373"/>
     <use style="fill:#55a868;" x="357.958769" xlink:href="#m24f608e253" y="254.68373"/>
     <use style="fill:#55a868;" x="359.150289" xlink:href="#m24f608e253" y="254.68373"/>
     <use style="fill:#55a868;" x="360.341809" xlink:href="#m24f608e253" y="254.68373"/>
     <use style="fill:#55a868;" x="361.533329" xlink:href="#m24f608e253" y="254.68373"/>
     <use style="fill:#55a868;" x="362.724849" xlink:href="#m24f608e253" y="258.675867"/>
     <use style="fill:#55a868;" x="363.916369" xlink:href="#m24f608e253" y="258.675867"/>
     <use style="fill:#55a868;" x="365.107889" xlink:href="#m24f608e253" y="258.675867"/>
     <use style="fill:#55a868;" x="366.299409" xlink:href="#m24f608e253" y="258.675867"/>
     <use style="fill:#55a868;" x="367.490929" xlink:href="#m24f608e253" y="262.668004"/>
     <use style="fill:#55a868;" x="368.682449" xlink:href="#m24f608e253" y="262.668004"/>
     <use style="fill:#55a868;" x="369.873969" xlink:href="#m24f608e253" y="262.668004"/>
     <use style="fill:#55a868;" x="371.065489" xlink:href="#m24f608e253" y="266.660141"/>
     <use style="fill:#55a868;" x="372.257009" xlink:href="#m24f608e253" y="266.660141"/>
     <use style="fill:#55a868;" x="373.448529" xlink:href="#m24f608e253" y="266.660141"/>
     <use style="fill:#55a868;" x="374.640049" xlink:href="#m24f608e253" y="270.652278"/>
     <use style="fill:#55a868;" x="375.831569" xlink:href="#m24f608e253" y="270.652278"/>
     <use style="fill:#55a868;" x="377.023089" xlink:href="#m24f608e253" y="270.652278"/>
     <use style="fill:#55a868;" x="378.214609" xlink:href="#m24f608e253" y="270.652278"/>
     <use style="fill:#55a868;" x="379.406129" xlink:href="#m24f608e253" y="274.644415"/>
     <use style="fill:#55a868;" x="380.597649" xlink:href="#m24f608e253" y="274.644415"/>
     <use style="fill:#55a868;" x="381.789169" xlink:href="#m24f608e253" y="274.644415"/>
     <use style="fill:#55a868;" x="382.980689" xlink:href="#m24f608e253" y="278.636552"/>
     <use style="fill:#55a868;" x="384.172209" xlink:href="#m24f608e253" y="278.636552"/>
     <use style="fill:#55a868;" x="385.363729" xlink:href="#m24f608e253" y="278.636552"/>
     <use style="fill:#55a868;" x="386.555249" xlink:href="#m24f608e253" y="278.636552"/>
     <use style="fill:#55a868;" x="387.746769" xlink:href="#m24f608e253" y="282.62869"/>
     <use style="fill:#55a868;" x="388.938289" xlink:href="#m24f608e253" y="282.62869"/>
     <use style="fill:#55a868;" x="390.129809" xlink:href="#m24f608e253" y="282.62869"/>
     <use style="fill:#55a868;" x="391.321329" xlink:href="#m24f608e253" y="286.620827"/>
     <use style="fill:#55a868;" x="392.512849" xlink:href="#m24f608e253" y="286.620827"/>
     <use style="fill:#55a868;" x="393.704369" xlink:href="#m24f608e253" y="286.620827"/>
     <use style="fill:#55a868;" x="394.895889" xlink:href="#m24f608e253" y="290.612964"/>
     <use style="fill:#55a868;" x="396.087409" xlink:href="#m24f608e253" y="290.612964"/>
     <use style="fill:#55a868;" x="397.278929" xlink:href="#m24f608e253" y="290.612964"/>
     <use style="fill:#55a868;" x="398.470449" xlink:href="#m24f608e253" y="290.612964"/>
     <use style="fill:#55a868;" x="399.661969" xlink:href="#m24f608e253" y="294.605101"/>
     <use style="fill:#55a868;" x="400.853489" xlink:href="#m24f608e253" y="294.605101"/>
     <use style="fill:#55a868;" x="402.045009" xlink:href="#m24f608e253" y="294.605101"/>
     <use style="fill:#55a868;" x="403.236529" xlink:href="#m24f608e253" y="294.605101"/>
     <use style="fill:#55a868;" x="404.428049" xlink:href="#m24f608e253" y="298.597238"/>
     <use style="fill:#55a868;" x="405.619569" xlink:href="#m24f608e253" y="298.597238"/>
     <use style="fill:#55a868;" x="406.811089" xlink:href="#m24f608e253" y="298.597238"/>
     <use style="fill:#55a868;" x="408.002609" xlink:href="#m24f608e253" y="298.597238"/>
     <use style="fill:#55a868;" x="409.194129" xlink:href="#m24f608e253" y="298.597238"/>
     <use style="fill:#55a868;" x="410.385649" xlink:href="#m24f608e253" y="302.589375"/>
     <use style="fill:#55a868;" x="411.577169" xlink:href="#m24f608e253" y="302.589375"/>
     <use style="fill:#55a868;" x="412.768689" xlink:href="#m24f608e253" y="302.589375"/>
     <use style="fill:#55a868;" x="413.960209" xlink:href="#m24f608e253" y="302.589375"/>
     <use style="fill:#55a868;" x="415.151729" xlink:href="#m24f608e253" y="302.589375"/>
     <use style="fill:#55a868;" x="416.343249" xlink:href="#m24f608e253" y="302.589375"/>
     <use style="fill:#55a868;" x="417.534769" xlink:href="#m24f608e253" y="302.589375"/>
     <use style="fill:#55a868;" x="418.726289" xlink:href="#m24f608e253" y="302.589375"/>
     <use style="fill:#55a868;" x="419.917809" xlink:href="#m24f608e253" y="302.589375"/>
     <use style="fill:#55a868;" x="421.109329" xlink:href="#m24f608e253" y="302.589375"/>
     <use style="fill:#55a868;" x="422.300849" xlink:href="#m24f608e253" y="302.589375"/>
     <use style="fill:#55a868;" x="423.492369" xlink:href="#m24f608e253" y="298.597238"/>
     <use style="fill:#55a868;" x="424.683889" xlink:href="#m24f608e253" y="294.605101"/>
     <use style="fill:#55a868;" x="425.875409" xlink:href="#m24f608e253" y="294.605101"/>
     <use style="fill:#55a868;" x="427.066929" xlink:href="#m24f608e253" y="294.605101"/>
     <use style="fill:#55a868;" x="428.258449" xlink:href="#m24f608e253" y="290.612964"/>
     <use style="fill:#55a868;" x="429.449969" xlink:href="#m24f608e253" y="290.612964"/>
     <use style="fill:#55a868;" x="430.641489" xlink:href="#m24f608e253" y="290.612964"/>
     <use style="fill:#55a868;" x="431.833009" xlink:href="#m24f608e253" y="290.612964"/>
     <use style="fill:#55a868;" x="433.024529" xlink:href="#m24f608e253" y="290.612964"/>
     <use style="fill:#55a868;" x="434.216049" xlink:href="#m24f608e253" y="290.612964"/>
     <use style="fill:#55a868;" x="435.407569" xlink:href="#m24f608e253" y="290.612964"/>
     <use style="fill:#55a868;" x="436.599088" xlink:href="#m24f608e253" y="290.612964"/>
     <use style="fill:#55a868;" x="437.790608" xlink:href="#m24f608e253" y="286.620827"/>
     <use style="fill:#55a868;" x="438.982128" xlink:href="#m24f608e253" y="290.612964"/>
     <use style="fill:#55a868;" x="440.173648" xlink:href="#m24f608e253" y="290.612964"/>
     <use style="fill:#55a868;" x="441.365168" xlink:href="#m24f608e253" y="286.620827"/>
     <use style="fill:#55a868;" x="442.556688" xlink:href="#m24f608e253" y="290.612964"/>
     <use style="fill:#55a868;" x="443.748208" xlink:href="#m24f608e253" y="290.612964"/>
     <use style="fill:#55a868;" x="444.939728" xlink:href="#m24f608e253" y="286.620827"/>
     <use style="fill:#55a868;" x="446.131248" xlink:href="#m24f608e253" y="290.612964"/>
     <use style="fill:#55a868;" x="447.322768" xlink:href="#m24f608e253" y="290.612964"/>
     <use style="fill:#55a868;" x="448.514288" xlink:href="#m24f608e253" y="290.612964"/>
     <use style="fill:#55a868;" x="449.705808" xlink:href="#m24f608e253" y="290.612964"/>
     <use style="fill:#55a868;" x="450.897328" xlink:href="#m24f608e253" y="290.612964"/>
     <use style="fill:#55a868;" x="452.088848" xlink:href="#m24f608e253" y="290.612964"/>
     <use style="fill:#55a868;" x="453.280368" xlink:href="#m24f608e253" y="290.612964"/>
     <use style="fill:#55a868;" x="454.471888" xlink:href="#m24f608e253" y="290.612964"/>
     <use style="fill:#55a868;" x="455.663408" xlink:href="#m24f608e253" y="290.612964"/>
     <use style="fill:#55a868;" x="456.854928" xlink:href="#m24f608e253" y="290.612964"/>
     <use style="fill:#55a868;" x="458.046448" xlink:href="#m24f608e253" y="290.612964"/>
     <use style="fill:#55a868;" x="459.237968" xlink:href="#m24f608e253" y="290.612964"/>
     <use style="fill:#55a868;" x="460.429488" xlink:href="#m24f608e253" y="294.605101"/>
     <use style="fill:#55a868;" x="461.621008" xlink:href="#m24f608e253" y="294.605101"/>
     <use style="fill:#55a868;" x="462.812528" xlink:href="#m24f608e253" y="294.605101"/>
     <use style="fill:#55a868;" x="464.004048" xlink:href="#m24f608e253" y="294.605101"/>
     <use style="fill:#55a868;" x="465.195568" xlink:href="#m24f608e253" y="294.605101"/>
    </g>
   </g>
   <g id="patch_7">
    <path d="M 112.3865 314.965 
L 112.3865 42.70125 
" style="fill:none;stroke:#262626;stroke-linecap:square;stroke-linejoin:miter;stroke-width:1.25;"/>
   </g>
   <g id="patch_8">
    <path d="M 481.996 314.965 
L 481.996 42.70125 
" style="fill:none;stroke:#262626;stroke-linecap:square;stroke-linejoin:miter;stroke-width:1.25;"/>
   </g>
   <g id="patch_9">
    <path d="M 112.3865 314.965 
L 481.996 314.965 
" style="fill:none;stroke:#262626;stroke-linecap:square;stroke-linejoin:miter;stroke-width:1.25;"/>
   </g>
   <g id="patch_10">
    <path d="M 112.3865 42.70125 
L 481.996 42.70125 
" style="fill:none;stroke:#262626;stroke-linecap:square;stroke-linejoin:miter;stroke-width:1.25;"/>
   </g>
  </g>
 </g>
 <defs>
  <clipPath id="p219c14aaa7">
   <rect height="272.26375" width="369.6095" x="112.3865" y="42.70125"/>
  </clipPath>
 </defs>
</svg>
